<?xml version="1.0" encoding="utf-8"?>
<!-- Generator: Adobe Illustrator 21.1.0, SVG Export Plug-In . SVG Version: 6.00 Build 0)  -->
<svg version="1.1" id="Layer_1" xmlns="http://www.w3.org/2000/svg" xmlns:xlink="http://www.w3.org/1999/xlink" x="0px" y="0px"
	 viewBox="0 0 512 512" style="enable-background:new 0 0 512 512;" xml:space="preserve">
<style type="text/css">
	.st0{fill:#3A3737;}
	.st1{fill:#D6D05B;}
	.st2{fill:none;}
	.st3{fill:#F7F5F5;}
	.st4{font-family:'MyriadPro-Bold';}
	.st5{font-size:123px;}
</style>
<g id="Layer_11">
	<g>
		<path class="st0" d="M420,197.3c-0.2,0.5-0.4,1-0.7,1.4L244.7,480.9c-5.1,8.2-15.7,11.2-24.1,6.3L64.4,396.1
			C56,391.3,52.9,380.2,58,372L232.6,89.8c0.3-0.4,0.5-0.9,0.8-1.3c1.6-3.4,4.7-6.3,8.6-7.2l129.9-34.2c7-1.8,14.2,2.4,16,9.3
			l34.2,129.9C423.1,190.2,422.2,194.3,420,197.3L420,197.3z M346.8,108.4c7.9,4.6,18,1.9,22.6-6c4.6-7.9,2-18.1-6-22.6
			c-7.9-4.6-18.1-2-22.6,6C336.3,93.6,339,103.8,346.8,108.4L346.8,108.4z"/>
		<path class="st1" d="M405.9,200.3c-0.3,0.4-0.5,0.9-0.8,1.3L210.2,470.7c-5.7,7.8-16.8,9.7-24.6,4l-147-105.3
			c-7.9-5.6-9.8-16.8-4-24.6l194.8-269c0.3-0.4,0.6-0.8,0.9-1.2c1.9-3.4,5.2-5.8,9.3-6.5l132.5-22c7.1-1.1,13.9,3.7,15,10.8
			L409,189.4C409.7,193.5,408.4,197.4,405.9,200.3L405.9,200.3z M341.5,104.8c7.4,5.3,17.7,3.6,23.1-3.8s3.6-17.7-3.8-23.1
			c-7.4-5.3-17.7-3.6-23.1,3.8C332.3,89.1,334,99.5,341.5,104.8L341.5,104.8z"/>
		
			<rect x="69" y="205.4" transform="matrix(0.5776 -0.8163 0.8163 0.5776 -113.907 308.1983)" class="st2" width="343.7" height="117.6"/>
		<text id="TERM" transform="matrix(0.5776 -0.8163 0.8163 0.5776 178.5838 406.3904)" class="st3 st4 st5">COND</text>
		<text transform="matrix(1 0 0 1 642 -18)" style="font-family:'MyriadPro-Regular'; font-size:12px;">Lorem ipsum</text>
	</g>
	
		<rect x="95.7" y="236.5" transform="matrix(0.5776 -0.8163 0.8163 0.5776 -115.6594 307.4971)" class="st2" width="287.2" height="58"/>
</g>
<g id="Layer_1_1_">
</g>
<text transform="matrix(1 0 0 1 -101 192)" style="font-family:'MyriadPro-Regular'; font-size:12px;">Lorem ipsum</text>
</svg>
