<?xml version="1.0" encoding="utf-8"?>
<!-- Generator: Adobe Illustrator 24.0.3, SVG Export Plug-In . SVG Version: 6.00 Build 0)  -->
<svg version="1.1"
	 id="svg1923" inkscape:output_extension="org.inkscape.output.svg.inkscape" inkscape:version="0.46" sodipodi:docbase="D:\Documents and Settings\MARI LUZ\Mis documentos" sodipodi:docname="Greater_toronto_area_map.svg" sodipodi:version="0.32" xmlns:cc="http://creativecommons.org/ns#" xmlns:dc="http://purl.org/dc/elements/1.1/" xmlns:inkscape="http://www.inkscape.org/namespaces/inkscape" xmlns:rdf="http://www.w3.org/1999/02/22-rdf-syntax-ns#" xmlns:sodipodi="http://sodipodi.sourceforge.net/DTD/sodipodi-0.dtd" xmlns:svg="http://www.w3.org/2000/svg"
	 xmlns="http://www.w3.org/2000/svg" xmlns:xlink="http://www.w3.org/1999/xlink" x="0px" y="0px" viewBox="0 0 643 500"
	 style="enable-background:new 0 0 643 500;" xml:space="preserve">
<style type="text/css">
	.st0{opacity:0.5;fill-rule:evenodd;clip-rule:evenodd;fill:#FFEEAA;stroke:#000000;enable-background:new    ;}
	.st1{opacity:0.88;}
	.st2{fill-rule:evenodd;clip-rule:evenodd;fill:#E5FF80;stroke:#000000;}
	.st3{fill-rule:evenodd;clip-rule:evenodd;fill:#FFCCAA;stroke:#000000;}
	.st4{fill-rule:evenodd;clip-rule:evenodd;fill:#FFDD55;stroke:#000000;}
	.st5{fill-rule:evenodd;clip-rule:evenodd;fill:#80E5FF;stroke:#000000;}
	.st6{fill-rule:evenodd;clip-rule:evenodd;fill:#FFEEAA;stroke:#000000;}
	.st7{fill:none;stroke:#000000;}
	.st8{opacity:0.88;fill:none;stroke:#000000;stroke-width:2;enable-background:new    ;}
	.st9{fill:#808080;}
</style>
<defs>
	
		<inkscape:perspective  id="perspective70" inkscape:persp3d-origin="321.5 : 166.66667 : 1" inkscape:vp_x="0 : 250 : 1" inkscape:vp_y="0 : 1000 : 0" inkscape:vp_z="643 : 250 : 1" sodipodi:type="inkscape:persp3d">
		</inkscape:perspective>
</defs>
<sodipodi:namedview  bordercolor="#666666" borderopacity="1.0" gridtolerance="10.0" guidetolerance="10.0" id="base" inkscape:current-layer="svg1923" inkscape:cx="357.49221" inkscape:cy="294.30247" inkscape:guide-bbox="true" inkscape:pageopacity="0.0" inkscape:pageshadow="2" inkscape:window-height="850" inkscape:window-width="1440" inkscape:window-x="-8" inkscape:window-y="-8" inkscape:zoom="1.4538115" objecttolerance="10.0" pagecolor="#ffffff" showgrid="false" showguides="true">
	</sodipodi:namedview>
<path id="path1960" class="st0" d="M574.2,179.5c0.6-0.4,0.8-0.8,0-1V179.5z"/>
<g id="g2920" class="st1">
	<path id="path1962" class="st2" d="M173.7,432.9l-13.7-26l-6.6,4.4l-27.1-49l8.8-3.1l-41.4-81.8L14.6,328l1.6,3.6l-7.5,4.8
		l-2.8-2.8l-5.2,3.5L72,470.3c0.2,4,0.2,4.3-3.2,5.1c-2.6,0.6-4.8,0-7.1,1.2c-1.9,0.9-4,0.7-6.3,1.2c-1.9,0.4-2.9,2.2-3.6,3.6
		c-0.9,1.9-1.6,1.6-1.6,4.8c0,1.9,2.6,4.2,3.6,5.5c1.8,2.4,3.1,2.8,5.5,4c1.7,0.8,4.4-1.2,5.9-1.6c2.1-0.5,4-1,6.3-1.6
		c2.1-0.5,4.9,0,7.1,0c3.1,0,6.1-0.3,8.7-1.6c2.3-1.1,3.9-1.7,6.3-3.2c1.5-0.9,3.6-1.2,5.2-2c1.8-0.9,3.3-2.2,5.5-2.8
		c2.1-0.5,4.1-2.4,5.5-3.2c2.1-1,2.8-2.2,5.1-2.8c2.5-0.6,4.3-2.7,5.9-3.6c1.6-0.8,2.4-2.4,4-3.2c2.1-1.1,3-3.7,5.1-4.8
		c2.2-1.1,3.7-2,5.2-2.8c2-1,2.8-3.6,3.9-4.8c1.4-1.4,2.6-3.8,4-5.6c1.2-1.6,4.1-2.8,5.5-3.5c2-1,3.7-2.9,5.5-4.4
		c2-1.6,4.1-2.1,5.9-3.9c1.5-1.5,3.1-2.3,4.8-4c1-1,4.3-1.6,5.9-2.4C171.9,433.8,172.8,433.4,173.7,432.9z"/>
	<path id="path1972" class="st3" d="M215.5,397.1c-0.5-2.2-0.3-4.6-0.8-6.8c-0.2-0.9-1.1-1.9-1.9-2.9c-0.4-0.5-0.8-1-1.1-1.5
		s-0.5-0.9-0.5-1.3c0-0.9-0.1-2.2,0.1-3.5c0.1-0.6,0.2-1.2,0.5-1.7s0.6-0.8,1.2-0.9c0.9-0.2,1.8-0.5,2.4-1c0.3-0.3,0.6-0.6,0.9-1
		s0.5-0.9,0.6-1.5c0.1-0.3,0.4-1.6,0.4-2.9c0-0.6,0-1.2-0.2-1.7s-0.5-0.7-1.1-0.7c-0.8,0-2.6,0.3-4.2,0.2c-0.8,0-1.5-0.2-1.9-0.5
		c-0.2-0.1-0.4-0.4-0.5-0.6s-0.1-0.5,0-0.9c0.2-0.7,0.3-1.4,0.3-2s-0.1-1.1-0.3-1.6c-0.4-1-1.1-1.9-2.2-3c-1-1-1.8-1.7-2-2.6
		c-0.1-0.4-0.1-0.8,0.2-1.2s0.7-0.9,1.4-1.4c0.6-0.5,1.7-1.2,2.7-2.1s1.8-1.6,2.2-2.3c0.3-0.6,0.7-1.6,0.9-2.7s0.3-2.3,0-3.5
		c-0.1-0.6-0.3-1.2-0.4-1.8l-16-167.3l-114.2-2l0.4,4.7l-6.7,5.6l-2-2.4l-21,12.7L93.5,277l0.2,0.3l41.4,81.8l-8.8,3.1l27.1,49
		l6.6-4.4l13.7,26c1.3-0.7,2.5-1.5,3.5-2.5c0.4-0.4,1.1-0.3,1.6-0.4c1.9-1.9,3-4.4,3.9-5.9c1.4-2.3,3.1-3.1,3.6-5.1
		c0.5-2.1,0.8-3.1,2.4-5.2c1.4-1.9,4-4,5.5-5.1c2.5-1.9,4.9-3.4,7.5-4.8c2.6-1.3,4-2.2,5.9-3.6c1.7-1.3,3.8,0.2,5.6-1.6
		C213.9,398.1,214.7,397.5,215.5,397.1z"/>
	<path id="path1977" class="st4" d="M393.5,341l-10.1-13.7l-0.4-21c-0.8,0-158.2,0-174.5,0l3.6,37.6c0.1,0.6,0.3,1.2,0.4,1.8
		c0.3,1.2,0.2,2.4,0,3.5s-0.6,2-0.9,2.7c-0.3,0.6-1.2,1.5-2.2,2.3s-2,1.6-2.7,2.1c-0.7,0.5-1.1,1-1.4,1.4s-0.3,0.8-0.2,1.2
		c0.2,0.8,1,1.6,2,2.6c1.1,1.1,1.8,2,2.2,3c0.2,0.5,0.3,1,0.3,1.6s-0.1,1.2-0.3,2c-0.1,0.3-0.1,0.6,0,0.9s0.3,0.4,0.5,0.6
		c0.5,0.3,1.1,0.4,1.9,0.5c1.5,0.1,3.3-0.2,4.2-0.2c0.5,0,0.9,0.3,1.1,0.7s0.2,1,0.2,1.7c0,1.2-0.4,2.6-0.4,2.9
		c-0.2,0.6-0.4,1.1-0.6,1.5s-0.5,0.7-0.9,1c-0.7,0.5-1.5,0.8-2.4,1c-0.5,0.1-0.9,0.5-1.2,0.9s-0.4,1.1-0.5,1.7
		c-0.2,1.3-0.1,2.6-0.1,3.5c0,0.4,0.2,0.8,0.5,1.3s0.7,1,1.1,1.5c0.8,1,1.7,2,1.9,2.9c0.5,2.2,0.3,4.6,0.8,6.8
		c1.1-0.6,2.2-1.1,3.6-1.5c2.8-0.7,5.9-0.6,8.7-1.2c2.7-0.5,5.9-3.2,7.9-4.8c2.6-1.9,3.7-3.3,5.9-5.5c1.4-1.4,4.8-2.4,6.7-2.8
		c4.1-0.8,4-1.7,6.7,0.4c2.5,1.9,2.7,2,5.9,2.8c3.2,0.8,4.6,1.8,7.5,2.4c1.4,0.3,0.8,4.8,0.8,5.9c0,3.5,0.7,3.9,2.8,5.9
		c1.3,1.3,3.4,1.2,5.5,1.2c2.1,0,4.1-2.1,5.5-3.2c0.5-0.4,1.1-0.8,1.6-1.2c3-2.2,4.3-3.7,7.1-5.1c0.7-0.4,1.6-0.5,2.4-0.8
		c0.9-0.3,1.8-0.5,2.8-0.8c0.5-0.1,1.1-0.2,1.6-0.4c3.8-1,3.5-0.8,5.9-3.2c2.4-2.4,5.2-2.4,8.3-2.4c6.9,0,3-0.5,4.4-0.8
		c2.2,0,4.2-3,5.1-4c1.5-1.5,3.6-2.4,5.5-3.5c1.9-1.2,3.5-2,5.9-2c1.6,0,4.6-2.1,5.9-2.8c1.9-0.9,2.9-3.5,3.6-4.8
		c0.8-1.6,3-2.3,4.8-3.2c3.2-1.6,8.4-2.1,11.8-2.8c2.3-0.5,4.9-2,7.1-3.2c0.5-0.3,1.1-0.5,1.6-0.8c3.4-1.7,6.1-1.3,9.1-3.6
		c2-1.5,4.9-2.9,7.1-4c2-1,4.9-3.3,6.3-4.8C391.8,342.3,392.6,341.6,393.5,341z"/>
	<path id="path1982" class="st5" d="M382.5,306.3l-0.4-189.8H449l-1.4-51.1c-1.4,0.7-3,2.5-4.3,3.5c-2.2,1.6-4.1,3.4-6.3,3.9
		c-2.9,0.7-4.1,2-7.1,1.2c-1.7-0.4-3.1-2.6-3.6-3.5c-0.7-1.5,0-5.5,0-7.1c0-1.6-5.1,2.7-5.1,2.8c-1.4,1.4-1.6,4-3.2,5.5
		c-1.1,1.1-4.7,0.8-6.3,0.8c-3.4,0-3.5-1.5-5.1-3.2c-1.5,0.5-0.5-0.5-0.8-0.8c-1.4-1.4-6.6-1.6-8.7-1.6c-2.2,0-4.1,1.9-6.7,2.4
		c-2.2,0.4-3.5-2-4-4c-0.3-1.1-2.7-3.3-3.6-4c-1.3-1-4.6,2.2-5.5,2.4c-2.2,0.4-3-0.5-5.1-1.6c-2.8-1.4-4.1,0.8-6.3,2
		c-1.9,1-3.8,1.6-6.3,1.6c-2.8,0-3.7-1.7-6.3-2.4c-2.7-0.7-5.4,1.7-7.5,2.8c-2.2,1.1-3.8,2.3-6.3,3.6c-2.4,1.2-3.9,2.8-6.3,4
		c-1.4,0.7-0.8,4.3-0.8,5.9c0,2.9-1,3.9-2,5.9c-0.5,1,2.6,2.6,3.2,3.2c1.4,1.4,2.1,1.7,2.8,4.3c0.6,2.2,0.5,4.6,0,6.7
		c-0.5,2.1-1.8,3.6-2.8,5.5c-1.1,2.2-2.4,2.8-3.6,4.3c-1.1,1.5-1.3,2.7-3.2,3.2c-2.5,0.6-3.2,0.4-4.3-1.2c-1.4-1.9-1.4-2.7-2-5.2
		c-0.6-2.3-4-2.2-4,0.4c0,2.3-1.2,4.3-1.6,6.3c0,0.2-1.9,2.2-2,2.4c-0.5,2.5-1.4,4.6-2,6.7c-0.4,1.4-2.4,3.7-3.2,4.8
		c-0.4,0.5-4.5,1.3-5.5,1.6c-1.8,0.5-4.4,3.6-4.8,5.1c-0.6,2.2-0.8,3.2-2,4.3c-0.9,0.9-1.1,4.2-1.6,5.2c-1.1,2.3-2.3,3.7-2.8,5.5
		c-0.5,2.1-1.4,2.6-2.8,4c-1.3,1.3-1.2,2.4-1.2,4.7c0,0.7-4.6,3.5-5.2,4c-1.8,1.4-3.6,2.4-5.5,3.6c-2.3,1.4-4.7,1.9-6.7,2.4
		c-2.4,0.6-4.8,1.6-7.5,1.6c-2.7,0-1.9,1.7-2.4,3.6c-0.5,1.9-1.3,2.7-3.2,3.2c-2,0.5-3.6,0.8-5.9,0.8c-2.3,0-2.5,2-5.2,2
		c-1.7,0-3.1-1.6-3.9-2.4c-1.5-1.5-1.5,0.8-3.2,1.2c-0.9,0.2-2.2,0-3.2,0l-39.2-0.7l12.4,129.8C224.7,306.3,380.9,306.3,382.5,306.3
		z"/>
	<path id="path1932" class="st6" d="M488.1,1.7c-1.3,0.6-3.1,2.6-3.3,2.8c-1.8,1.8-2.8,3.4-3.6,5.2c-0.6,1.6-2.3,3.1-3.2,4.8
		c-0.9,1.8-2.2,2.9-2.8,5.1c-0.5,2.1-0.3,3.6-0.8,5.5c-0.6,2.2-1.2,2.8-2.4,4.3c-1.2,1.5-1.5,2.7-2.4,4.4c-1.2,2.3-3.1,4.1-4.3,6.7
		c-0.9,1.9-1.8,2.8-2.8,4.8c-0.8,1.7-2.2,3.7-3.5,5.5c-1.6,2.2-2.4,4-3.6,6.3c-0.9,1.9-2.2,3-3.6,4.3c-1.5,1.5-2.3,3-4.3,4
		c0,0-0.1,0-0.1,0.1l1.4,51.1h-66.9l0.4,189.8c0,0,0.4,0,0.4,0l0.4,21l10.1,13.7c1.3-1,2.8-1.9,4.3-2.3c2.6-0.6,5.3-0.8,8.3-0.8
		c2.5,0,3.5,1.5,5.1,2.8c1.2,0.9,4,0.4,5.6,0.4c2.5,0,4.4-0.6,6.7,0c2.6,0.7,4.9,1.6,8.3,1.6c3.4,0,6.4-0.3,9.1-0.8
		c3.1-0.6,4.7-2,7.1-3.2c2.8-1.4,3.2-2.4,6.7-2.4c3,0,4.5,0.5,7.1,1.2c3.1,0.8,4.4-0.1,6.7,1.6c1.9,1.4,4.5,0.7,5.9,0
		c1.6-0.8,4.8-0.4,6.3,0c2.4,0.6,2.8,2.9,5.5,3.6c2.3,0.6,4.4,1.1,7.1,0.4c0.5-0.1,1.1-0.2,1.6-0.4c2.7-0.7,5-1.6,7.9-1.6
		c3.2,0,2.4-1.2,4,0.4c2.8,0,6.1,2.7,8.7,3.9c2.3,1.1,4.7,2.4,7.5,2.4c2,0,5.3,0.7,7.1,1.6c2.1,1,5.3,0.6,7.5,1.2
		c2.8,0.7,6.3,0.7,9.1,0c2.8-0.7,5.3-1.7,7.9-2.8c1.6-0.6,3.6-0.7,5.5-1.2c2.3-0.6,4,0.8,5.5,1.2c2.2,0.6,4.2,0.8,6.7,0.8
		c2.4,0,4.8,0,7.1,0c2.6,0,3.3,0.7,5.2,1.6c2,1,4.1,2.2,6.3,2.8c2.1,0.5,4.1,2.2,6.3,2.8c2.4,0.6,3.8,1.2,6.3,1.2c2.4,0,4.8,0,7.1,0
		c2.7,0,5.4,0.6,7.9,1.6c2,0.8,4.6,1,6.7,1.6c1.7,0.4,3.3,0.8,5.5,0.8c2.7,0,4.1,0.3,5.9,0.8c1.4,0.3,3.3,0,4.8,0l-2.4-99.2
		l-65.7-0.4l0.4-82.4c-1.4,1-5.7,2.4-7.5,3.3c-1.4,0.7-3,2.7-4.3,4c-1.8,1.8-4.4,2.9-6.3,4.3c-1.4,1.1-3.1,1.8-4,3.6
		c-0.5,0.9-3.7,2.5-5.1,3.2c-1.4,0.7-4.1,1.3-5.5,2c-2.6,1.3-4.9,0.8-5.6,3.6c-0.5,2.2-1.6,3-3.5,4c-2.4,1.2-2.5,2.1-4,3.6
		c-1.7,1.7-2.2,3-4.3,3.6c-1.8,0.5-3.9,1.9-6.3,2.4c-4.1,0.8-3.8,0-1.2-2c2.3-1.7,3.8-3.4,5.2-4.8c1.6-1.6,2.1-2.6,3.9-3.9
		c1.4-1.1,2.2-4.6,3.2-5.9c1.3-1.8,1.4-4.7,2.4-6.7c1-1.9,0.7-4.2,1.2-6.3c0.5-2.1,1.6-3.9,1.6-6.3c0-2.5,1.2-4.3,1.2-6.7
		c0-2.8,0.6-3.6-2.4-3.6c-2.4,0-3.6,2.1-4.3,3.6c-0.6,1.2-2.6,2.6-3.6,3.6c-1.8,1.8-2.3,3.1-3.6,4.3c-1.3,1.3-2.4,3.3-3.2,4.8
		c-0.8,1.7-1.6,2.3-1.6,4.8c0,1.6-2,4.4-2.8,5.1c-1.6,1.6-2.8,3.9-4,5.5c-1.6,2.2-4,3.4-5.1,5.6c-1.2,2.4-1.3,4-3.2,5.9
		c-1.5,1.5-3.6,0.6-4.8,0c-1.4-0.7-0.8-4.3-0.8-5.9c0-2.6,1.1-3,1.6-5.2c0.5-2.1,2.1-3.7,3.2-5.1c1-1.4,2.5-2.5,4-3.2
		c0.3-0.1,1.5-5.3,1.6-5.5c0.7-1.3,3-2.7,4-3.9c0.3-0.4,0-2.6,0-3.2L508.5,5.3c1.5-2-5.4-1.7-5.9-1.6c-1.7,0.4-3.7,1.8-4.4,2
		c-0.6,0.1-3-2.4-4.8-2.4c-2.3,0-2.6,0.2-4.3-1.6C488.9,1.5,488.5,1.5,488.1,1.7z"/>
</g>
<path id="path1936" class="st7" d="M-703.5,39.8l41.1,82.3l-79.1,50.6l1.6,3.6l-7.5,4.7l-2.8-2.8l-5.1,3.6l71.2,133.3
	c0.2,4,0.2,4.3-3.2,5.1c-2.6,0.6-4.8,0-7.1,1.2c-1.9,0.9-4,0.7-6.3,1.2c-1.9,0.4-2.9,2.2-3.6,3.6c-0.9,1.9-1.6,1.6-1.6,4.7
	c0,1.9,2.6,4.2,3.6,5.5c1.8,2.4,3.2,2.8,5.5,4c1.7,0.8,4.4-1.2,5.9-1.6c2.1-0.5,4-1,6.3-1.6c2.1-0.5,4.9,0,7.1,0
	c3.1,0,6.1-0.3,8.7-1.6c2.3-1.1,3.9-1.7,6.3-3.2c1.5-0.9,3.6-1.2,5.1-2c1.8-0.9,3.3-2.2,5.5-2.8c2.1-0.5,4.1-2.5,5.5-3.2
	c2.1-1,2.8-2.2,5.1-2.8c2.5-0.6,4.3-2.7,5.9-3.6c1.6-0.8,2.4-2.4,4-3.2c2.1-1.1,3-3.7,5.1-4.7c2.2-1.1,3.7-2.1,5.1-2.8
	c2-1,2.8-3.6,4-4.7c1.4-1.4,2.6-3.8,4-5.5c1.2-1.6,4.1-2.8,5.5-3.6c2-1,3.7-2.9,5.5-4.3c2-1.6,4.1-2.2,5.9-4c1.5-1.5,3.1-2.3,4.7-4
	c1-1,4.3-1.6,5.9-2.4c2.7-1.4,4.6-2.3,6.3-4c0.4-0.4,1.1-0.3,1.6-0.4c1.9-1.9,3-4.4,4-5.9c1.4-2.3,3.1-3.1,3.6-5.1
	c0.5-2.1,0.8-3.1,2.4-5.1c1.4-1.9,4-4,5.5-5.1c2.5-1.9,4.8-3.4,7.5-4.7c2.6-1.3,4.1-2.2,5.9-3.6c1.7-1.3,3.8,0.2,5.5-1.6
	c1.7-1.7,3.6-2.6,5.9-3.2c2.8-0.7,5.9-0.6,8.7-1.2c2.7-0.5,5.9-3.2,7.9-4.7c2.6-1.9,3.7-3.3,5.9-5.5c1.4-1.4,4.8-2.4,6.7-2.8
	c4.1-0.8,4-1.7,6.7,0.4c2.5,1.9,2.7,1.9,5.9,2.8c3.2,0.8,4.6,1.8,7.5,2.4c1.4,0.3,0.8,4.8,0.8,5.9c0,3.5,0.7,3.9,2.8,5.9
	c1.3,1.3,3.4,1.2,5.5,1.2c2.1,0,4.1-2.1,5.5-3.2c0.5-0.4,1.1-0.8,1.6-1.2c3-2.2,4.3-3.7,7.1-5.1c0.7-0.4,1.6-0.5,2.4-0.8
	c0.9-0.3,1.8-0.5,2.8-0.8c0.5-0.1,1.1-0.3,1.6-0.4c3.8-1,3.5-0.7,5.9-3.2c2.4-2.4,5.2-2.4,8.3-2.4c6.9,0,3-0.5,4.3-0.8
	c2.2,0,4.2-3,5.1-4c1.5-1.5,3.6-2.4,5.5-3.6c1.9-1.2,3.5-2,5.9-2c1.6,0,4.6-2.1,5.9-2.8c1.9-0.9,2.9-3.5,3.6-4.7
	c0.8-1.6,3-2.3,4.7-3.2c3.2-1.6,8.4-2.1,11.9-2.8c2.3-0.5,4.8-2,7.1-3.2c0.5-0.3,1.1-0.5,1.6-0.8c3.4-1.7,6.1-1.3,9.1-3.6
	c2-1.5,4.9-2.8,7.1-4c2-1,4.9-3.3,6.3-4.7c1.7-1.7,4.2-3.7,6.7-4.3c2.6-0.6,5.3-0.8,8.3-0.8c2.5,0,3.5,1.5,5.1,2.8
	c1.2,0.9,4,0.4,5.5,0.4c2.5,0,4.4-0.6,6.7,0c2.6,0.7,4.9,1.6,8.3,1.6c3.4,0,6.4-0.3,9.1-0.8c3.1-0.6,4.7-2,7.1-3.2
	c2.8-1.4,3.2-2.4,6.7-2.4c3,0,4.5,0.5,7.1,1.2c3.1,0.8,4.4-0.2,6.7,1.6c1.9,1.4,4.5,0.7,5.9,0c1.6-0.8,4.7-0.4,6.3,0
	c2.4,0.6,2.8,2.9,5.5,3.6c2.3,0.6,4.4,1.1,7.1,0.4c0.5-0.1,1.1-0.3,1.6-0.4c2.7-0.7,5-1.6,7.9-1.6c3.2,0,2.4-1.2,4,0.4
	c2.8,0,6.1,2.7,8.7,4c2.3,1.1,4.7,2.4,7.5,2.4c2,0,5.3,0.7,7.1,1.6c2.1,1,5.2,0.6,7.5,1.2c2.8,0.7,6.3,0.7,9.1,0
	c2.8-0.7,5.3-1.7,7.9-2.8c1.6-0.6,3.6-0.7,5.5-1.2c2.3-0.6,4,0.8,5.5,1.2c2.2,0.6,4.2,0.8,6.7,0.8c2.4,0,4.7,0,7.1,0
	c2.6,0,3.3,0.7,5.1,1.6c2,1,4.2,2.2,6.3,2.8c2.1,0.5,4.1,2.2,6.3,2.8c2.4,0.6,3.8,1.2,6.3,1.2c2.4,0,4.7,0,7.1,0
	c2.7,0,5.4,0.6,7.9,1.6c2,0.8,4.6,1.1,6.7,1.6c1.7,0.4,3.3,0.8,5.5,0.8c2.7,0,4.1,0.3,5.9,0.8c1.4,0.3,3.3,0,4.7,0l-2.4-99.3
	l-65.6-0.4l0.4-83.4c2.8,0.7-4.9,3.1-7.5,4.3c-1.4,0.7-3,2.6-4.3,4c-1.8,1.8-4.4,2.9-6.3,4.3c-1.4,1.1-3.1,1.8-4,3.6
	c-0.5,0.9-3.7,2.5-5.1,3.2c-1.4,0.7-4.2,1.3-5.5,2c-2.6,1.3-4.9,0.8-5.5,3.6c-0.5,2.2-1.6,3-3.6,4c-2.4,1.2-2.5,2.1-4,3.6
	c-1.7,1.7-2.2,3-4.3,3.6c-1.8,0.5-3.9,1.9-6.3,2.4c-4.1,0.8-3.8,0-1.2-2c2.3-1.7,3.8-3.4,5.1-4.7c1.6-1.6,2.1-2.6,4-4
	c1.4-1.1,2.2-4.6,3.2-5.9c1.3-1.8,1.4-4.7,2.4-6.7c1-1.9,0.7-4.2,1.2-6.3c0.5-2.1,1.6-3.9,1.6-6.3c0-2.5,1.2-4.3,1.2-6.7
	c0-2.8,0.6-3.6-2.4-3.6c-2.4,0-3.6,2.1-4.3,3.6c-0.6,1.2-2.6,2.6-3.6,3.6c-1.8,1.8-2.3,3.1-3.6,4.3c-1.3,1.3-2.4,3.3-3.2,4.7
	c-0.8,1.7-1.6,2.3-1.6,4.7c0,1.6-2,4.4-2.8,5.1c-1.6,1.6-2.8,3.9-4,5.5c-1.6,2.2-4.1,3.4-5.1,5.5c-1.2,2.4-1.3,4-3.2,5.9
	c-1.5,1.5-3.6,0.6-4.7,0c-1.4-0.7-0.8-4.3-0.8-5.9c0-2.6,1-3,1.6-5.1c0.5-2.1,2.1-3.7,3.2-5.1c1-1.4,2.5-2.4,4-3.2
	c0.3-0.1,1.5-5.3,1.6-5.5c0.7-1.3,3-2.7,4-4c0.3-0.4,0-2.6,0-3.2l-1.6-176.4c1.5-2-5.4-1.7-5.9-1.6c-1.7,0.4-3.7,1.8-4.3,2
	c-0.6,0.1-3-2.4-4.7-2.4c-2.3,0-2.6,0.1-4.3-1.6c-1-1-4,2.5-4.3,2.8c-1.8,1.8-2.8,3.3-3.6,5.1c-0.6,1.6-2.3,3.1-3.2,4.7
	c-0.9,1.8-2.2,2.9-2.8,5.1c-0.5,2.1-0.3,3.6-0.8,5.5c-0.6,2.2-1.2,2.8-2.4,4.3c-1.2,1.5-1.5,2.7-2.4,4.3c-1.2,2.3-3.1,4.2-4.3,6.7
	c-0.9,1.9-1.8,2.8-2.8,4.7c-0.8,1.7-2.2,3.7-3.6,5.5c-1.6,2.2-2.4,4-3.6,6.3c-0.9,1.9-2.2,3-3.6,4.3c-1.5,1.5-2.3,2.9-4.3,4
	c-1.4,0.7-3.1,2.6-4.3,3.6c-2.2,1.6-4.1,3.4-6.3,4c-2.9,0.7-4.1,2-7.1,1.2c-1.7-0.4-3.1-2.6-3.6-3.6c-0.7-1.5,0-5.5,0-7.1
	c0-1.6-5.1,2.7-5.1,2.8c-1.4,1.4-1.6,4-3.2,5.5c-1.1,1.1-4.7,0.8-6.3,0.8c-3.4,0-3.5-1.5-5.1-3.2c-1.5,0.5-0.5-0.5-0.8-0.8
	c-1.4-1.4-6.6-1.6-8.7-1.6c-2.2,0-4.1,1.9-6.7,2.4c-2.2,0.4-3.5-2-4-4c-0.3-1.1-2.7-3.3-3.6-4c-1.3-1-4.6,2.2-5.5,2.4
	c-2.2,0.4-3-0.5-5.1-1.6c-2.8-1.4-4,0.8-6.3,2c-1.9,1-3.8,1.6-6.3,1.6c-2.8,0-3.7-1.7-6.3-2.4c-2.7-0.7-5.4,1.7-7.5,2.8
	c-2.2,1.1-3.8,2.3-6.3,3.6c-2.4,1.2-3.9,2.8-6.3,4c-1.4,0.7-0.8,4.3-0.8,5.9c0,2.9-1,3.9-2,5.9c-0.5,1,2.6,2.6,3.2,3.2
	c1.4,1.4,2.1,1.7,2.8,4.3c0.6,2.2,0.5,4.6,0,6.7c-0.5,2.1-1.8,3.6-2.8,5.5c-1.1,2.2-2.4,2.8-3.6,4.3c-1.1,1.5-1.3,2.7-3.2,3.2
	c-2.5,0.6-3.2,0.4-4.3-1.2c-1.4-1.9-1.4-2.7-2-5.1c-0.6-2.3-4-2.2-4,0.4c0,2.3-1.2,4.3-1.6,6.3c0,0.2-1.9,2.2-2,2.4
	c-0.5,2.5-1.4,4.6-2,6.7c-0.4,1.4-2.4,3.7-3.2,4.7c-0.4,0.5-4.5,1.3-5.5,1.6c-1.8,0.5-4.4,3.6-4.7,5.1c-0.6,2.2-0.8,3.2-2,4.3
	c-0.9,0.9-1.1,4.2-1.6,5.1c-1.1,2.3-2.3,3.7-2.8,5.5c-0.5,2.1-1.4,2.6-2.8,4c-1.3,1.3-1.2,2.4-1.2,4.7c0,0.7-4.5,3.5-5.1,4
	c-1.8,1.4-3.6,2.4-5.5,3.6c-2.3,1.4-4.7,1.9-6.7,2.4c-2.4,0.6-4.8,1.6-7.5,1.6c-2.7,0-1.9,1.7-2.4,3.6c-0.5,1.9-1.3,2.7-3.2,3.2
	c-2,0.5-3.6,0.8-5.9,0.8c-2.3,0-2.4,2-5.1,2c-1.7,0-3.2-1.6-4-2.4c-1.5-1.5-1.5,0.8-3.2,1.2c-0.9,0.2-2.2,0-3.2,0l-153.4-2.8
	l0.4,4.7l-6.7,5.5l-2-2.4"/>
<path id="path1938" class="st7" d="M-813.5,34.9l41.1,82.3l-79.1,50.6l1.6,3.6l-7.5,4.7l-2.8-2.8l-5.1,3.6l71.2,133.3
	c0.2,4,0.2,4.3-3.2,5.1c-2.6,0.6-4.8,0-7.1,1.2c-1.9,0.9-4,0.7-6.3,1.2c-1.9,0.4-2.9,2.2-3.6,3.6c-0.9,1.9-1.6,1.6-1.6,4.7
	c0,1.9,2.6,4.2,3.6,5.5c1.8,2.4,3.2,2.8,5.5,4c1.7,0.8,4.4-1.2,5.9-1.6c2.1-0.5,4-1,6.3-1.6c2.1-0.5,4.9,0,7.1,0
	c3.1,0,6.1-0.3,8.7-1.6c2.3-1.1,3.9-1.7,6.3-3.2c1.5-0.9,3.6-1.2,5.1-2c1.8-0.9,3.3-2.2,5.5-2.8c2.1-0.5,4.1-2.5,5.5-3.2
	c2.1-1,2.8-2.2,5.1-2.8c2.5-0.6,4.3-2.7,5.9-3.6c1.6-0.8,2.4-2.4,4-3.2c2.1-1.1,3-3.7,5.1-4.7c2.2-1.1,3.7-2.1,5.1-2.8
	c2-1,2.8-3.6,4-4.7c1.4-1.4,2.6-3.8,4-5.5c1.2-1.6,4.1-2.8,5.5-3.6c2-1,3.7-2.9,5.5-4.3c2-1.6,4.1-2.2,5.9-4c1.5-1.5,3.1-2.3,4.7-4
	c1-1,4.3-1.6,5.9-2.4c2.7-1.4,4.6-2.3,6.3-4c0.4-0.4,1.1-0.3,1.6-0.4c1.9-1.9,3-4.4,4-5.9c1.4-2.3,3.1-3.1,3.6-5.1
	c0.5-2.1,0.8-3.1,2.4-5.1c1.4-1.9,4-4,5.5-5.1c2.5-1.9,4.8-3.4,7.5-4.7c2.6-1.3,4.1-2.2,5.9-3.6c1.7-1.3,3.8,0.2,5.5-1.6
	c1.7-1.7,3.6-2.6,5.9-3.2c2.8-0.7,5.9-0.6,8.7-1.2c2.7-0.5,5.9-3.2,7.9-4.7c2.6-1.9,3.7-3.3,5.9-5.5c1.4-1.4,4.8-2.4,6.7-2.8
	c4.1-0.8,4-1.7,6.7,0.4c2.5,1.9,2.7,1.9,5.9,2.8c3.2,0.8,4.6,1.8,7.5,2.4c1.4,0.3,0.8,4.8,0.8,5.9c0,3.5,0.7,3.9,2.8,5.9
	c1.3,1.3,3.4,1.2,5.5,1.2c2.1,0,4.1-2.1,5.5-3.2c0.5-0.4,1.1-0.8,1.6-1.2c3-2.2,4.3-3.7,7.1-5.1c0.7-0.4,1.6-0.5,2.4-0.8
	c0.9-0.3,1.8-0.5,2.8-0.8c0.5-0.1,1.1-0.3,1.6-0.4c3.8-1,3.5-0.7,5.9-3.2c2.4-2.4,5.2-2.4,8.3-2.4c6.9,0,3-0.5,4.3-0.8
	c2.2,0,4.2-3,5.1-4c1.5-1.5,3.6-2.4,5.5-3.6c1.9-1.2,3.5-2,5.9-2c1.6,0,4.6-2.1,5.9-2.8c1.9-0.9,2.9-3.5,3.6-4.7
	c0.8-1.6,3-2.3,4.7-3.2c3.2-1.6,8.4-2.1,11.9-2.8c2.3-0.5,4.8-2,7.1-3.2c0.5-0.3,1.1-0.5,1.6-0.8c3.4-1.7,6.1-1.3,9.1-3.6
	c2-1.5,4.9-2.8,7.1-4c2-1,4.9-3.3,6.3-4.7c1.7-1.7,4.2-3.7,6.7-4.3c2.6-0.6,5.3-0.8,8.3-0.8c2.5,0,3.5,1.5,5.1,2.8
	c1.2,0.9,4,0.4,5.5,0.4c2.5,0,4.4-0.6,6.7,0c2.6,0.7,4.9,1.6,8.3,1.6c3.4,0,6.4-0.3,9.1-0.8c3.1-0.6,4.7-2,7.1-3.2
	c2.8-1.4,3.2-2.4,6.7-2.4c3,0,4.5,0.5,7.1,1.2c3.1,0.8,4.4-0.2,6.7,1.6c1.9,1.4,4.5,0.7,5.9,0c1.6-0.8,4.7-0.4,6.3,0
	c2.4,0.6,2.8,2.9,5.5,3.6c2.3,0.6,4.4,1.1,7.1,0.4c0.5-0.1,1.1-0.3,1.6-0.4c2.7-0.7,5-1.6,7.9-1.6c3.2,0,2.4-1.2,4,0.4
	c2.8,0,6.1,2.7,8.7,4c2.3,1.1,4.7,2.4,7.5,2.4c2,0,5.3,0.7,7.1,1.6c2.1,1,5.2,0.6,7.5,1.2c2.8,0.7,6.3,0.7,9.1,0
	c2.8-0.7,5.3-1.7,7.9-2.8c1.6-0.6,3.6-0.7,5.5-1.2c2.3-0.6,4,0.8,5.5,1.2c2.2,0.6,4.2,0.8,6.7,0.8c2.4,0,4.7,0,7.1,0
	c2.6,0,3.3,0.7,5.1,1.6c2,1,4.2,2.2,6.3,2.8c2.1,0.5,4.1,2.2,6.3,2.8c2.4,0.6,3.8,1.2,6.3,1.2c2.4,0,4.7,0,7.1,0
	c2.7,0,5.4,0.6,7.9,1.6c2,0.8,4.6,1.1,6.7,1.6c1.7,0.4,3.3,0.8,5.5,0.8c2.7,0,4.1,0.3,5.9,0.8c1.4,0.3,3.3,0,4.7,0l-2.4-99.3
	l-65.6-0.4l0.4-83.4c2.8,0.7-4.9,3.1-7.5,4.3c-1.4,0.7-3,2.6-4.3,4c-1.8,1.8-4.4,2.9-6.3,4.3c-1.4,1.1-3.1,1.8-4,3.6
	c-0.5,0.9-3.7,2.5-5.1,3.2c-1.4,0.7-4.2,1.3-5.5,2c-2.6,1.3-4.9,0.8-5.5,3.6c-0.5,2.2-1.6,3-3.6,4c-2.4,1.2-2.5,2.1-4,3.6
	c-1.7,1.7-2.2,3-4.3,3.6c-1.8,0.5-3.9,1.9-6.3,2.4c-4.1,0.8-3.8,0-1.2-2c2.3-1.7,3.8-3.4,5.1-4.7c1.6-1.6,2.1-2.6,4-4
	c1.4-1.1,2.2-4.6,3.2-5.9c1.3-1.8,1.4-4.7,2.4-6.7c1-1.9,0.7-4.2,1.2-6.3c0.5-2.1,1.6-3.9,1.6-6.3c0-2.5,1.2-4.3,1.2-6.7
	c0-2.8,0.6-3.6-2.4-3.6c-2.4,0-3.6,2.1-4.3,3.6c-0.6,1.2-2.6,2.6-3.6,3.6c-1.8,1.8-2.3,3.1-3.6,4.3c-1.3,1.3-2.4,3.3-3.2,4.7
	c-0.8,1.7-1.6,2.3-1.6,4.7c0,1.6-2,4.4-2.8,5.1c-1.6,1.6-2.8,3.9-4,5.5c-1.6,2.2-4.1,3.4-5.1,5.5c-1.2,2.4-1.3,4-3.2,5.9
	c-1.5,1.5-3.6,0.6-4.7,0c-1.4-0.7-0.8-4.3-0.8-5.9c0-2.6,1-3,1.6-5.1c0.5-2.1,2.1-3.7,3.2-5.1c1-1.4,2.5-2.4,4-3.2
	c0.3-0.1,1.5-5.3,1.6-5.5c0.7-1.3,3-2.7,4-4c0.3-0.4,0-2.6,0-3.2l-1.6-176.4c1.5-2-5.4-1.7-5.9-1.6c-1.7,0.4-3.7,1.8-4.3,2
	c-0.6,0.1-3-2.4-4.7-2.4c-2.3,0-2.6,0.1-4.3-1.6c-1-1-4,2.5-4.3,2.8c-1.8,1.8-2.8,3.3-3.6,5.1c-0.6,1.6-2.3,3.1-3.2,4.7
	c-0.9,1.8-2.2,2.9-2.8,5.1c-0.5,2.1-0.3,3.6-0.8,5.5c-0.6,2.2-1.2,2.8-2.4,4.3c-1.2,1.5-1.5,2.7-2.4,4.3c-1.2,2.3-3.1,4.2-4.3,6.7
	c-0.9,1.9-1.8,2.8-2.8,4.7c-0.8,1.7-2.2,3.7-3.6,5.5c-1.6,2.2-2.4,4-3.6,6.3c-0.9,1.9-2.2,3-3.6,4.3c-1.5,1.5-2.3,2.9-4.3,4
	c-1.4,0.7-3.1,2.6-4.3,3.6c-2.2,1.6-4.1,3.4-6.3,4c-2.9,0.7-4.1,2-7.1,1.2c-1.7-0.4-3.1-2.6-3.6-3.6c-0.7-1.5,0-5.5,0-7.1
	c0-1.6-5.1,2.7-5.1,2.8c-1.4,1.4-1.6,4-3.2,5.5c-1.1,1.1-4.7,0.8-6.3,0.8c-3.4,0-3.5-1.5-5.1-3.2c-1.5,0.5-0.5-0.5-0.8-0.8
	c-1.4-1.4-6.6-1.6-8.7-1.6c-2.2,0-4.1,1.9-6.7,2.4c-2.2,0.4-3.5-2-4-4c-0.3-1.1-2.7-3.3-3.6-4c-1.3-1-4.6,2.2-5.5,2.4
	c-2.2,0.4-3-0.5-5.1-1.6c-2.8-1.4-4,0.8-6.3,2c-1.9,1-3.8,1.6-6.3,1.6c-2.8,0-3.7-1.7-6.3-2.4c-2.7-0.7-5.4,1.7-7.5,2.8
	c-2.2,1.1-3.8,2.3-6.3,3.6c-2.4,1.2-3.9,2.8-6.3,4c-1.4,0.7-0.8,4.3-0.8,5.9c0,2.9-1,3.9-2,5.9c-0.5,1,2.6,2.6,3.2,3.2
	c1.4,1.4,2.1,1.7,2.8,4.3c0.6,2.2,0.5,4.6,0,6.7c-0.5,2.1-1.8,3.6-2.8,5.5c-1.1,2.2-2.4,2.8-3.6,4.3c-1.1,1.5-1.3,2.7-3.2,3.2
	c-2.5,0.6-3.2,0.4-4.3-1.2c-1.4-1.9-1.4-2.7-2-5.1c-0.6-2.3-4-2.2-4,0.4c0,2.3-1.2,4.3-1.6,6.3c0,0.2-1.9,2.2-2,2.4
	c-0.5,2.5-1.4,4.6-2,6.7c-0.4,1.4-2.4,3.7-3.2,4.7c-0.4,0.5-4.5,1.3-5.5,1.6c-1.8,0.5-4.4,3.6-4.7,5.1c-0.6,2.2-0.8,3.2-2,4.3
	c-0.9,0.9-1.1,4.2-1.6,5.1c-1.1,2.3-2.3,3.7-2.8,5.5c-0.5,2.1-1.4,2.6-2.8,4C-579.1-6-579-5-579-2.6c0,0.7-4.5,3.5-5.1,4
	c-1.8,1.4-3.6,2.4-5.5,3.6c-2.3,1.4-4.7,1.9-6.7,2.4c-2.4,0.6-4.8,1.6-7.5,1.6c-2.7,0-1.9,1.7-2.4,3.6c-0.5,1.9-1.3,2.7-3.2,3.2
	c-2,0.5-3.6,0.8-5.9,0.8c-2.3,0-2.4,2-5.1,2c-1.7,0-3.2-1.6-4-2.4c-1.5-1.5-1.5,0.8-3.2,1.2c-0.9,0.2-2.2,0-3.2,0l-153.4-2.8
	l0.4,4.7l-6.7,5.5l-2-2.4"/>
<path id="path1940" class="st8" d="M52.6,195.1l41.1,82.3L14.6,328l1.6,3.6l-7.5,4.7l-2.8-2.8l-5.1,3.6L72,470.3
	c0.2,4,0.2,4.3-3.2,5.1c-2.6,0.6-4.8,0-7.1,1.2c-1.9,0.9-4,0.7-6.3,1.2c-1.9,0.4-2.9,2.2-3.6,3.6c-0.9,1.9-1.6,1.6-1.6,4.7
	c0,1.9,2.6,4.2,3.6,5.5c1.8,2.4,3.2,2.8,5.5,4c1.7,0.8,4.4-1.2,5.9-1.6c2.1-0.5,4-1,6.3-1.6c2.1-0.5,4.9,0,7.1,0
	c3.1,0,6.1-0.3,8.7-1.6c2.3-1.1,3.9-1.7,6.3-3.2c1.5-0.9,3.6-1.2,5.1-2c1.8-0.9,3.3-2.2,5.5-2.8c2.1-0.5,4.1-2.5,5.5-3.2
	c2.1-1,2.8-2.2,5.1-2.8c2.5-0.6,4.3-2.7,5.9-3.6c1.6-0.8,2.4-2.4,4-3.2c2.1-1.1,3-3.7,5.1-4.7c2.2-1.1,3.7-2.1,5.1-2.8
	c2-1,2.8-3.6,4-4.7c1.4-1.4,2.6-3.8,4-5.5c1.2-1.6,4.1-2.8,5.5-3.6c2-1,3.7-2.9,5.5-4.3c2-1.6,4.1-2.2,5.9-4c1.5-1.5,3.1-2.3,4.7-4
	c1-1,4.3-1.6,5.9-2.4c2.7-1.4,4.6-2.3,6.3-4c0.4-0.4,1.1-0.3,1.6-0.4c1.9-1.9,3-4.4,4-5.9c1.4-2.3,3.1-3.1,3.6-5.1
	c0.5-2.1,0.8-3.1,2.4-5.1c1.4-1.9,4-4,5.5-5.1c2.5-1.9,4.8-3.4,7.5-4.7c2.6-1.3,4.1-2.2,5.9-3.6c1.7-1.3,3.8,0.2,5.5-1.6
	c1.7-1.7,3.6-2.6,5.9-3.2c2.8-0.7,5.9-0.6,8.7-1.2c2.7-0.5,5.9-3.2,7.9-4.7c2.6-1.9,3.7-3.3,5.9-5.5c1.4-1.4,4.8-2.4,6.7-2.8
	c4.1-0.8,4-1.7,6.7,0.4c2.5,1.9,2.7,1.9,5.9,2.8c3.2,0.8,4.6,1.8,7.5,2.4c1.4,0.3,0.8,4.8,0.8,5.9c0,3.5,0.7,3.9,2.8,5.9
	c1.3,1.3,3.4,1.2,5.5,1.2c2.1,0,4.1-2.1,5.5-3.2c0.5-0.4,1.1-0.8,1.6-1.2c3-2.2,4.3-3.7,7.1-5.1c0.7-0.4,1.6-0.5,2.4-0.8
	c0.9-0.3,1.8-0.5,2.8-0.8c0.5-0.1,1.1-0.3,1.6-0.4c3.8-1,3.5-0.7,5.9-3.2c2.4-2.4,5.2-2.4,8.3-2.4c6.9,0,3-0.5,4.3-0.8
	c2.2,0,4.2-3,5.1-4c1.5-1.5,3.6-2.4,5.5-3.6c1.9-1.2,3.5-2,5.9-2c1.6,0,4.6-2.1,5.9-2.8c1.9-0.9,2.9-3.5,3.6-4.7
	c0.8-1.6,3-2.3,4.7-3.2c3.2-1.6,8.4-2.1,11.9-2.8c2.3-0.5,4.8-2,7.1-3.2c0.5-0.3,1.1-0.5,1.6-0.8c3.4-1.7,6.1-1.3,9.1-3.6
	c2-1.5,4.9-2.8,7.1-4c2-1,4.9-3.3,6.3-4.7c1.7-1.7,4.2-3.7,6.7-4.3c2.6-0.6,5.3-0.8,8.3-0.8c2.5,0,3.5,1.5,5.1,2.8
	c1.2,0.9,4,0.4,5.5,0.4c2.5,0,4.4-0.6,6.7,0c2.6,0.7,4.9,1.6,8.3,1.6c3.4,0,6.4-0.3,9.1-0.8c3.1-0.6,4.7-2,7.1-3.2
	c2.8-1.4,3.2-2.4,6.7-2.4c3,0,4.5,0.5,7.1,1.2c3.1,0.8,4.4-0.2,6.7,1.6c1.9,1.4,4.5,0.7,5.9,0c1.6-0.8,4.7-0.4,6.3,0
	c2.4,0.6,2.8,2.9,5.5,3.6c2.3,0.6,4.4,1.1,7.1,0.4c0.5-0.1,1.1-0.3,1.6-0.4c2.7-0.7,5-1.6,7.9-1.6c3.2,0,2.4-1.2,4,0.4
	c2.8,0,6.1,2.7,8.7,4c2.3,1.1,4.7,2.4,7.5,2.4c2,0,5.3,0.7,7.1,1.6c2.1,1,5.2,0.6,7.5,1.2c2.8,0.7,6.3,0.7,9.1,0
	c2.8-0.7,5.3-1.7,7.9-2.8c1.6-0.6,3.6-0.7,5.5-1.2c2.3-0.6,4,0.8,5.5,1.2c2.2,0.6,4.2,0.8,6.7,0.8c2.4,0,4.7,0,7.1,0
	c2.6,0,3.3,0.7,5.1,1.6c2,1,4.2,2.2,6.3,2.8c2.1,0.5,4.1,2.2,6.3,2.8c2.4,0.6,3.8,1.2,6.3,1.2c2.4,0,4.7,0,7.1,0
	c2.7,0,5.4,0.6,7.9,1.6c2,0.8,4.6,1.1,6.7,1.6c1.7,0.4,3.3,0.8,5.5,0.8c2.7,0,4.1,0.3,5.9,0.8c1.4,0.3,3.3,0,4.7,0l-2.4-99.3
	l-65.6-0.4l0.4-83.4c2.8,0.7-4.9,3.1-7.5,4.3c-1.4,0.7-3,2.6-4.3,4c-1.8,1.8-4.4,2.9-6.3,4.3c-1.4,1.1-3.1,1.8-4,3.6
	c-0.5,0.9-3.7,2.5-5.1,3.2c-1.4,0.7-4.2,1.3-5.5,2c-2.6,1.3-4.9,0.8-5.5,3.6c-0.5,2.2-1.6,3-3.6,4c-2.4,1.2-2.5,2.1-4,3.6
	c-1.7,1.7-2.2,3-4.3,3.6c-1.8,0.5-3.9,1.9-6.3,2.4c-4.1,0.8-3.8,0-1.2-2c2.3-1.7,3.8-3.4,5.1-4.7c1.6-1.6,2.1-2.6,4-4
	c1.4-1.1,2.2-4.6,3.2-5.9c1.3-1.8,1.4-4.7,2.4-6.7c1-1.9,0.7-4.2,1.2-6.3c0.5-2.1,1.6-3.9,1.6-6.3c0-2.5,1.2-4.3,1.2-6.7
	c0-2.8,0.6-3.6-2.4-3.6c-2.4,0-3.6,2.1-4.3,3.6c-0.6,1.2-2.6,2.6-3.6,3.6c-1.8,1.8-2.3,3.1-3.6,4.3c-1.3,1.3-2.4,3.3-3.2,4.7
	c-0.8,1.7-1.6,2.3-1.6,4.7c0,1.6-2,4.4-2.8,5.1c-1.6,1.6-2.8,3.9-4,5.5c-1.6,2.2-4.1,3.4-5.1,5.5c-1.2,2.4-1.3,4-3.2,5.9
	c-1.5,1.5-3.6,0.6-4.7,0c-1.4-0.7-0.8-4.3-0.8-5.9c0-2.6,1-3,1.6-5.1c0.5-2.1,2.1-3.7,3.2-5.1c1-1.4,2.5-2.4,4-3.2
	c0.3-0.1,1.5-5.3,1.6-5.5c0.7-1.3,3-2.7,4-4c0.3-0.4,0-2.6,0-3.2L508.5,5.3c1.5-2-5.4-1.7-5.9-1.6c-1.7,0.4-3.7,1.8-4.3,2
	c-0.6,0.1-3-2.4-4.7-2.4c-2.3,0-2.6,0.1-4.3-1.6c-1-1-4,2.5-4.3,2.8c-1.8,1.8-2.8,3.3-3.6,5.1c-0.6,1.6-2.3,3.1-3.2,4.7
	c-0.9,1.8-2.2,2.9-2.8,5.1c-0.5,2.1-0.3,3.6-0.8,5.5c-0.6,2.2-1.2,2.8-2.4,4.3c-1.2,1.5-1.5,2.7-2.4,4.3c-1.2,2.3-3.1,4.2-4.3,6.7
	c-0.9,1.9-1.8,2.8-2.8,4.7c-0.8,1.7-2.2,3.7-3.6,5.5c-1.6,2.2-2.4,4-3.6,6.3c-0.9,1.9-2.2,3-3.6,4.3c-1.5,1.5-2.3,2.9-4.3,4
	c-1.4,0.7-3.1,2.6-4.3,3.6c-2.2,1.6-4.1,3.4-6.3,4c-2.9,0.7-4.1,2-7.1,1.2c-1.7-0.4-3.1-2.6-3.6-3.6c-0.7-1.5,0-5.5,0-7.1
	c0-1.6-5.1,2.7-5.1,2.8c-1.4,1.4-1.6,4-3.2,5.5c-1.1,1.1-4.7,0.8-6.3,0.8c-3.4,0-3.5-1.5-5.1-3.2c-1.5,0.5-0.5-0.5-0.8-0.8
	c-1.4-1.4-6.6-1.6-8.7-1.6c-2.2,0-4.1,1.9-6.7,2.4c-2.2,0.4-3.5-2-4-4c-0.3-1.1-2.7-3.3-3.6-4c-1.3-1-4.6,2.2-5.5,2.4
	c-2.2,0.4-3-0.5-5.1-1.6c-2.8-1.4-4,0.8-6.3,2c-1.9,1-3.8,1.6-6.3,1.6c-2.8,0-3.7-1.7-6.3-2.4c-2.7-0.7-5.4,1.7-7.5,2.8
	c-2.2,1.1-3.8,2.3-6.3,3.6c-2.4,1.2-3.9,2.8-6.3,4c-1.4,0.7-0.8,4.3-0.8,5.9c0,2.9-1,3.9-2,5.9c-0.5,1,2.6,2.6,3.2,3.2
	c1.4,1.4,2.1,1.7,2.8,4.3c0.6,2.2,0.5,4.6,0,6.7c-0.5,2.1-1.8,3.6-2.8,5.5c-1.1,2.2-2.4,2.8-3.6,4.3c-1.1,1.5-1.3,2.7-3.2,3.2
	c-2.5,0.6-3.2,0.4-4.3-1.2c-1.4-1.9-1.4-2.7-2-5.1c-0.6-2.3-4-2.2-4,0.4c0,2.3-1.2,4.3-1.6,6.3c0,0.2-1.9,2.2-2,2.4
	c-0.5,2.5-1.4,4.6-2,6.7c-0.4,1.4-2.4,3.7-3.2,4.7c-0.4,0.5-4.5,1.3-5.5,1.6c-1.8,0.5-4.4,3.6-4.7,5.1c-0.6,2.2-0.8,3.2-2,4.3
	c-0.9,0.9-1.1,4.2-1.6,5.1c-1.1,2.3-2.3,3.7-2.8,5.5c-0.5,2.1-1.4,2.6-2.8,4c-1.3,1.3-1.2,2.4-1.2,4.7c0,0.7-4.5,3.5-5.1,4
	c-1.8,1.4-3.6,2.4-5.5,3.6c-2.3,1.4-4.7,1.9-6.7,2.4c-2.4,0.6-4.8,1.6-7.5,1.6c-2.7,0-1.9,1.7-2.4,3.6c-0.5,1.9-1.3,2.7-3.2,3.2
	c-2,0.5-3.6,0.8-5.9,0.8c-2.3,0-2.4,2-5.1,2c-1.7,0-3.2-1.6-4-2.4c-1.5-1.5-1.5,0.8-3.2,1.2c-0.9,0.2-2.2,0-3.2,0l-153.4-2.8
	l0.4,4.7l-6.7,5.5l-2-2.4L52.6,195.1z"/>
<path id="path2882" class="st7" d="M38.4,312.6l35.1,68L93,366.5l6.2,11.2l27.5-15.6"/>
<path id="path2884" class="st7" d="M49.9,429.1l31.5-21.3l18.1,32.2l11.6-9l-0.4-9.8l10.1-6.9l7.2,2.5l20.3-14.1"/>
<path id="path2886" class="st7" d="M103.9,436.7l18.8,35.8"/>
<path id="path2888" class="st7" d="M134.2,356.7c0.3,0,4.2,0,6.5,0c1.7,0,3.5,0.4,5.4,0.4c1.4,0,3.9-0.9,5.1-1.4
	c2.1-1.1,4-2.2,6.2-3.3c1.8-0.9,2.9-2.4,4.7-3.3c2.3-1.2,3.8-2.7,6.2-3.3c2-0.5,2.9-1.8,5.4-1.8c2.2,0,3.3-0.8,5.1-2.2
	c1.9-1.4,2.3-2.3,3.6-3.6c1.5-1.5,2.2-3.2,3.6-5.1c1.7-2.2,2.5-4.6,4.3-6.5c1.9-1.9,2.7-4,4.7-5.4c1.7-1.3,3.6-2,5.8-2.9
	c1.9-0.8,4-2.2,5.4-2.9c1-0.5,2.1-0.9,2.9-1.4"/>
<path id="path2890" class="st7" d="M112.9,315.1l27.5-17.7v-3.6l4-2.2l3.6,1.8l55.7-38"/>
<path id="path2892" class="st7" d="M304.7,127.7l-20.3,162.1l27.9,0.7l15.2-68l0.7-25l2.5-24.2l-31.8,0.4"/>
<path id="path2894" class="st7" d="M295.6,197.5h33.3"/>
<path id="path2896" class="st7" d="M292.4,227.2h34.4"/>
<path id="path2898" class="st7" d="M321.3,253.6h61.5"/>
<path id="path2900" class="st7" d="M329.6,180.1l52.1,2.5"/>
<path id="path2902" class="st7" d="M202.6,241.6l87.6,2.2"/>
<path id="path2904" class="st7" d="M292.7,290.5l-1.8,15.9"/>
<path id="path2906" class="st7" d="M447.2,116.8l2.1,221.2"/>
<path id="path2908" class="st7" d="M382.2,248.3l130.5,1.9l0.7,93.8"/>
<path id="path2910" class="st7" d="M480.4,249.4v89.3"/>
<path id="path2912" class="st7" d="M448.5,290.6C448.4,290.6,448.3,290.6,448.5,290.6z"/>
<path id="path2914" class="st7" d="M448.5,290.6h-27.1c0,1.5-0.8,2.2-1.1,3.3c-0.3,1.3,1.2,1.1,2.2,1.1c1.4,0,2.2,0.3,2.7,1.5
	c0.7,1.3,0.5,3.1,0.5,4.5c0,1.6-0.5,2.7-0.9,4.2c-0.3,1.1-0.6,2-1.3,2.7c-1.2,1.2-1.6,0.5-2,2.2c-0.3,1.2-0.3,1.7,0,2.9
	c0.2,0.9,0,2.3,0,3.3c0,1.1,0.7,2.5,1.3,3.3c0.6,0.8,1,2.3,1.5,3.3c0.5,1.1,1.4,1.9,1.8,3.1c0.4,1.1,0.4,2.4,0.4,3.6
	c0,1.3,0,2.5,0,3.8c0,1-0.7,2.6-1.1,3.5c-0.4,0.8-0.6,2.1-0.7,2.7c-0.1,0.6-0.2,1.1-0.2,1.8"/>
<path id="path2916" class="st7" d="M447,169.4h63.1"/>
<path id="path2918" class="st7" d="M512.4,262.2l64.2-0.4"/>
<path id="text7352" class="st9" d="M23.5,340.9h4.4v5h4.8v-5h4.4v14.3h-4.4v-5.8h-4.8v5.8h-4.4V340.9z M43.5,348.2l-3.8-0.4
	c0.1-0.7,0.3-1.2,0.6-1.6c0.3-0.4,0.7-0.7,1.2-1c0.4-0.2,0.9-0.4,1.5-0.5c0.6-0.1,1.3-0.2,2.1-0.2c1.2,0,2.1,0.1,2.9,0.2
	c0.7,0.1,1.3,0.4,1.8,0.8c0.3,0.3,0.6,0.7,0.8,1.2c0.2,0.5,0.3,1,0.3,1.5v4.6c0,0.5,0,0.9,0.1,1.1c0.1,0.3,0.2,0.6,0.4,1.1h-3.7
	c-0.1-0.3-0.2-0.5-0.3-0.6c0-0.1-0.1-0.4-0.1-0.7c-0.5,0.5-1,0.9-1.6,1.1c-0.7,0.3-1.5,0.4-2.5,0.4c-1.2,0-2.2-0.3-2.8-0.9
	c-0.6-0.6-1-1.3-1-2.1c0-0.8,0.2-1.4,0.7-1.9c0.5-0.5,1.3-0.9,2.6-1.1c1.5-0.3,2.5-0.5,2.9-0.6c0.4-0.1,0.9-0.3,1.4-0.5
	c0-0.5-0.1-0.8-0.3-1c-0.2-0.2-0.6-0.3-1.1-0.3c-0.7,0-1.1,0.1-1.5,0.3C43.9,347.4,43.6,347.7,43.5,348.2L43.5,348.2z M46.9,350.3
	c-0.5,0.2-1.1,0.4-1.7,0.5c-0.8,0.2-1.3,0.4-1.5,0.6c-0.2,0.2-0.3,0.5-0.3,0.7c0,0.3,0.1,0.6,0.3,0.8c0.2,0.2,0.5,0.3,1,0.3
	c0.4,0,0.9-0.1,1.2-0.3c0.4-0.2,0.7-0.5,0.8-0.8c0.2-0.3,0.2-0.7,0.2-1.2V350.3z M53.4,340.9h4v14.3h-4V340.9z M64.7,340.9v3.9h2.2
	v2.9h-2.2v3.7c0,0.4,0,0.7,0.1,0.9c0.1,0.2,0.4,0.3,0.7,0.3c0.3,0,0.7-0.1,1.2-0.3l0.3,2.7c-1,0.2-1.9,0.3-2.8,0.3
	c-1,0-1.7-0.1-2.2-0.4c-0.5-0.3-0.8-0.6-1-1.2c-0.2-0.5-0.3-1.4-0.3-2.5v-3.7h-1.5v-2.9h1.5v-1.9L64.7,340.9z M68.3,350
	c0-1.6,0.5-2.9,1.6-3.9c1.1-1,2.5-1.5,4.3-1.5c2.1,0,3.6,0.6,4.7,1.8c0.9,1,1.3,2.2,1.3,3.6c0,1.6-0.5,2.9-1.6,3.9
	c-1.1,1-2.5,1.5-4.4,1.5c-1.7,0-3-0.4-4-1.3C68.9,353.1,68.3,351.7,68.3,350L68.3,350z M72.3,350c0,0.9,0.2,1.6,0.6,2.1
	c0.4,0.4,0.8,0.7,1.4,0.7c0.6,0,1-0.2,1.4-0.7c0.4-0.4,0.6-1.1,0.6-2.1c0-0.9-0.2-1.6-0.6-2c-0.4-0.4-0.8-0.7-1.4-0.7
	c-0.6,0-1.1,0.2-1.4,0.7C72.5,348.4,72.3,349.1,72.3,350L72.3,350z M82.1,344.8h3.7v1.7c0.6-0.7,1.1-1.2,1.7-1.5
	c0.6-0.3,1.3-0.4,2.1-0.4c1.1,0,2,0.3,2.6,1c0.6,0.7,0.9,1.7,0.9,3v6.6h-4v-5.7c0-0.7-0.1-1.1-0.4-1.4c-0.2-0.3-0.6-0.4-1-0.4
	c-0.5,0-0.9,0.2-1.2,0.5c-0.3,0.4-0.4,1-0.4,2v5h-4V344.8z"/>
<path id="text7356" class="st9" d="M99.6,196.3h7.4c1.6,0,2.8,0.4,3.6,1.1c0.8,0.8,1.2,1.8,1.2,3.3c0,1.4-0.4,2.6-1.3,3.4
	c-0.9,0.8-2.2,1.2-4,1.2H104v5.3h-4.4V196.3z M104,202.4h1.1c0.9,0,1.5-0.1,1.8-0.4c0.3-0.3,0.5-0.7,0.5-1.1c0-0.4-0.1-0.8-0.4-1.1
	c-0.3-0.3-0.9-0.5-1.7-0.5H104V202.4z M125.3,206.4h-8c0.1,0.6,0.2,1.1,0.5,1.4c0.4,0.4,0.9,0.7,1.5,0.7c0.4,0,0.8-0.1,1.1-0.3
	c0.2-0.1,0.4-0.3,0.7-0.7l3.9,0.4c-0.6,1-1.3,1.8-2.2,2.2c-0.8,0.5-2.1,0.7-3.6,0.7c-1.4,0-2.5-0.2-3.2-0.6c-0.8-0.4-1.4-1-2-1.8
	c-0.5-0.8-0.8-1.8-0.8-3c0-1.6,0.5-2.9,1.6-3.9c1-1,2.5-1.5,4.3-1.5c1.5,0,2.7,0.2,3.5,0.7c0.9,0.4,1.5,1.1,2,2
	c0.4,0.9,0.7,2,0.7,3.3V206.4z M121.2,204.5c-0.1-0.8-0.3-1.3-0.6-1.7c-0.3-0.3-0.8-0.5-1.3-0.5c-0.6,0-1.1,0.3-1.5,0.8
	c-0.2,0.3-0.4,0.8-0.5,1.4H121.2z M138.6,206.4h-8c0.1,0.6,0.2,1.1,0.5,1.4c0.4,0.4,0.9,0.7,1.5,0.7c0.4,0,0.8-0.1,1.1-0.3
	c0.2-0.1,0.4-0.3,0.7-0.7l3.9,0.4c-0.6,1-1.3,1.8-2.2,2.2s-2.1,0.7-3.6,0.7c-1.4,0-2.5-0.2-3.2-0.6c-0.8-0.4-1.4-1-2-1.8
	c-0.5-0.8-0.8-1.8-0.8-3c0-1.6,0.5-2.9,1.6-3.9c1-1,2.5-1.5,4.3-1.5c1.5,0,2.7,0.2,3.5,0.7c0.9,0.4,1.5,1.1,2,2
	c0.4,0.9,0.7,2,0.7,3.3V206.4z M134.6,204.5c-0.1-0.8-0.3-1.3-0.6-1.7c-0.3-0.3-0.8-0.5-1.3-0.5c-0.6,0-1.1,0.3-1.5,0.8
	c-0.2,0.3-0.4,0.8-0.5,1.4H134.6z M140.6,196.3h4v14.3h-4V196.3z"/>
<path id="text7360" class="st9" d="M226.8,192.8h4.9l2.9,4.8l2.9-4.8h4.9l-5.6,8.3v6h-4.4v-6L226.8,192.8z M243,201.9
	c0-1.6,0.5-2.9,1.6-3.9c1.1-1,2.5-1.5,4.3-1.5c2.1,0,3.6,0.6,4.7,1.8c0.9,1,1.3,2.2,1.3,3.6c0,1.6-0.5,2.9-1.6,3.9
	c-1.1,1-2.5,1.5-4.4,1.5c-1.7,0-3-0.4-4-1.3C243.6,205,243,203.6,243,201.9L243,201.9z M247,201.9c0,0.9,0.2,1.6,0.6,2.1
	c0.4,0.4,0.8,0.7,1.4,0.7c0.6,0,1-0.2,1.4-0.7c0.4-0.4,0.6-1.1,0.6-2.1c0-0.9-0.2-1.6-0.6-2c-0.4-0.4-0.8-0.7-1.4-0.7
	c-0.6,0-1.1,0.2-1.4,0.7C247.2,200.3,247,201,247,201.9L247,201.9z M256.9,196.7h3.7v1.7c0.4-0.7,0.7-1.2,1.1-1.5
	c0.4-0.3,0.9-0.4,1.4-0.4c0.6,0,1.2,0.2,1.9,0.5l-1.2,2.8c-0.5-0.2-0.8-0.3-1.1-0.3c-0.5,0-0.9,0.2-1.2,0.6
	c-0.4,0.6-0.6,1.7-0.6,3.4v3.5h-4V196.7z M265.7,192.8h4.1v7.4l3-3.4h4.9l-3.7,3.6l3.9,6.7h-4.5l-2.1-4.2l-1.5,1.5v2.7h-4.1V192.8z"
	/>
<path id="text7364" class="st9" d="M409.2,137.1h6.6c1.3,0,2.3,0.2,3.1,0.5c0.8,0.4,1.5,0.9,2,1.5c0.5,0.7,0.9,1.4,1.1,2.3
	c0.2,0.9,0.4,1.8,0.4,2.8c0,1.5-0.2,2.7-0.5,3.6c-0.3,0.8-0.8,1.5-1.5,2.1c-0.6,0.6-1.3,0.9-2,1.1c-1,0.3-1.8,0.4-2.6,0.4h-6.6
	V137.1z M413.6,140.3v7.8h1.1c0.9,0,1.6-0.1,2-0.3c0.4-0.2,0.7-0.6,0.9-1.1c0.2-0.5,0.3-1.3,0.3-2.5c0-1.5-0.2-2.6-0.7-3.1
	c-0.5-0.6-1.3-0.8-2.5-0.8H413.6z M435.3,151.4h-3.7v-1.7c-0.6,0.7-1.1,1.2-1.7,1.5c-0.6,0.3-1.3,0.4-2.1,0.4c-1.1,0-2-0.3-2.6-1
	s-0.9-1.7-0.9-3V141h4v5.7c0,0.7,0.1,1.1,0.4,1.4c0.2,0.3,0.6,0.4,1,0.4c0.5,0,0.9-0.2,1.2-0.5c0.3-0.4,0.5-1,0.5-2v-5h4V151.4z
	 M437.8,141h3.7v1.7c0.4-0.7,0.7-1.2,1.1-1.5c0.4-0.3,0.9-0.4,1.4-0.4c0.6,0,1.2,0.2,1.9,0.5l-1.2,2.8c-0.5-0.2-0.8-0.3-1.1-0.3
	c-0.5,0-0.9,0.2-1.2,0.6c-0.4,0.6-0.6,1.7-0.6,3.4v3.5h-4V141z M446.6,137.1h4v5.3c0.5-0.6,1.1-1,1.6-1.2c0.5-0.2,1.2-0.4,1.9-0.4
	c1.1,0,1.9,0.3,2.6,1c0.6,0.7,0.9,1.7,0.9,3v6.6h-4v-5.7c0-0.7-0.1-1.1-0.4-1.4c-0.2-0.3-0.6-0.4-1-0.4c-0.5,0-0.9,0.2-1.2,0.5
	c-0.3,0.4-0.4,1-0.4,2v5h-4V137.1z M463.6,144.4l-3.8-0.4c0.1-0.7,0.3-1.2,0.6-1.6c0.3-0.4,0.7-0.7,1.2-1c0.4-0.2,0.9-0.4,1.5-0.5
	c0.6-0.1,1.3-0.2,2.1-0.2c1.2,0,2.1,0.1,2.9,0.2c0.7,0.1,1.3,0.4,1.8,0.8c0.3,0.3,0.6,0.7,0.8,1.2s0.3,1,0.3,1.5v4.6
	c0,0.5,0,0.9,0.1,1.1c0.1,0.3,0.2,0.6,0.4,1.1h-3.7c-0.1-0.3-0.2-0.5-0.3-0.6c0-0.1-0.1-0.4-0.1-0.7c-0.5,0.5-1,0.9-1.6,1.1
	c-0.7,0.3-1.5,0.4-2.5,0.4c-1.2,0-2.2-0.3-2.8-0.9s-1-1.3-1-2.1c0-0.8,0.2-1.4,0.7-1.9s1.3-0.9,2.6-1.1c1.5-0.3,2.5-0.5,2.9-0.6
	c0.4-0.1,0.9-0.3,1.4-0.5c0-0.5-0.1-0.8-0.3-1c-0.2-0.2-0.6-0.3-1.1-0.3c-0.7,0-1.1,0.1-1.5,0.3C464,143.6,463.8,143.9,463.6,144.4
	L463.6,144.4z M467.1,146.5c-0.5,0.2-1.1,0.4-1.7,0.5c-0.8,0.2-1.3,0.4-1.5,0.6c-0.2,0.2-0.3,0.5-0.3,0.7c0,0.3,0.1,0.6,0.3,0.8
	c0.2,0.2,0.5,0.3,1,0.3c0.4,0,0.9-0.1,1.2-0.3s0.7-0.5,0.8-0.8s0.2-0.7,0.2-1.2V146.5z M473.4,141h3.7v1.5c0.5-0.6,1.1-1.1,1.6-1.3
	c0.5-0.3,1.2-0.4,2-0.4c0.8,0,1.5,0.1,2,0.4c0.5,0.3,0.9,0.7,1.2,1.3c0.6-0.7,1.2-1.1,1.7-1.4c0.5-0.2,1.1-0.4,1.9-0.4
	c1.1,0,2,0.3,2.6,1c0.6,0.7,0.9,1.7,0.9,3.1v6.5h-4v-5.9c0-0.5-0.1-0.8-0.3-1c-0.3-0.4-0.6-0.5-1-0.5c-0.5,0-0.8,0.2-1.1,0.5
	c-0.3,0.3-0.4,0.9-0.4,1.6v5.4h-4v-5.7c0-0.5,0-0.8-0.1-0.9c-0.1-0.3-0.2-0.5-0.4-0.6c-0.2-0.2-0.5-0.2-0.7-0.2
	c-0.5,0-0.8,0.2-1.1,0.5c-0.3,0.3-0.4,0.9-0.4,1.7v5.3h-4V141z"/>
<path id="text7370" class="st9" d="M227.3,340.2l3.9,1.2c-0.3,1.1-0.7,2-1.2,2.7c-0.6,0.7-1.3,1.3-2.1,1.7c-0.8,0.4-1.9,0.6-3.2,0.6
	c-1.6,0-2.8-0.2-3.8-0.7s-1.8-1.2-2.6-2.4s-1.1-2.6-1.1-4.4c0-2.4,0.6-4.2,1.9-5.5c1.3-1.3,3-1.9,5.3-1.9c1.8,0,3.2,0.4,4.3,1.1
	c1,0.7,1.8,1.8,2.3,3.4l-3.9,0.9c-0.1-0.4-0.3-0.8-0.4-1c-0.2-0.3-0.6-0.6-0.9-0.8c-0.4-0.2-0.8-0.3-1.2-0.3c-1,0-1.8,0.4-2.3,1.2
	c-0.4,0.6-0.6,1.5-0.6,2.8c0,1.6,0.2,2.7,0.7,3.3c0.5,0.6,1.2,0.9,2,0.9c0.8,0,1.5-0.2,1.9-0.7C226.8,341.8,227.1,341.1,227.3,340.2
	L227.3,340.2z M233.2,331.7h4v2.7h-4V331.7z M233.2,335.6h4V346h-4V335.6z M244.5,331.7v3.9h2.2v2.9h-2.2v3.7c0,0.4,0,0.7,0.1,0.9
	c0.1,0.2,0.4,0.3,0.7,0.3c0.3,0,0.7-0.1,1.2-0.3l0.3,2.7c-1,0.2-1.9,0.3-2.8,0.3c-1,0-1.7-0.1-2.2-0.4s-0.8-0.6-1-1.2
	s-0.3-1.4-0.3-2.5v-3.7h-1.5v-2.9h1.5v-1.9L244.5,331.7z M247.5,335.6h4.2l2.1,6.9l2-6.9h3.9l-4.1,11.1c-0.5,1.3-0.9,2.1-1.4,2.6
	c-0.7,0.6-1.7,0.9-3.2,0.9c-0.6,0-1.5-0.1-2.7-0.2l-0.3-2.8c0.6,0.2,1.2,0.3,1.9,0.3c0.5,0,0.8-0.1,1.1-0.3c0.3-0.2,0.5-0.6,0.7-1.2
	L247.5,335.6z M267,340.9c0-1.6,0.5-2.9,1.6-3.9c1.1-1,2.5-1.5,4.3-1.5c2.1,0,3.6,0.6,4.7,1.8c0.9,1,1.3,2.2,1.3,3.6
	c0,1.6-0.5,2.9-1.6,3.9c-1.1,1-2.5,1.5-4.4,1.5c-1.7,0-3-0.4-4-1.3C267.7,343.9,267,342.6,267,340.9L267,340.9z M271,340.8
	c0,0.9,0.2,1.6,0.6,2.1c0.4,0.4,0.8,0.7,1.4,0.7c0.6,0,1-0.2,1.4-0.7s0.6-1.1,0.6-2.1c0-0.9-0.2-1.6-0.6-2s-0.8-0.7-1.4-0.7
	c-0.6,0-1.1,0.2-1.4,0.7C271.2,339.3,271,339.9,271,340.8L271,340.8z M285.3,335.6h1.9v2.9h-1.9v7.5h-4v-7.5h-1.5v-2.9h1.5v-0.5
	c0-0.4,0-0.9,0.1-1.4c0.1-0.5,0.3-0.9,0.5-1.2c0.3-0.3,0.6-0.6,1.1-0.8c0.5-0.2,1.1-0.3,2-0.3c0.7,0,1.7,0.1,3,0.2l-0.4,2.4
	c-0.5-0.1-0.9-0.1-1.2-0.1c-0.4,0-0.6,0.1-0.8,0.2c-0.2,0.1-0.3,0.3-0.3,0.6C285.3,334.9,285.3,335.2,285.3,335.6L285.3,335.6z
	 M294.6,331.7H308v3.5h-4.5V346h-4.4v-10.8h-4.5V331.7z M309.3,340.9c0-1.6,0.5-2.9,1.6-3.9c1.1-1,2.5-1.5,4.3-1.5
	c2.1,0,3.6,0.6,4.7,1.8c0.9,1,1.3,2.2,1.3,3.6c0,1.6-0.5,2.9-1.6,3.9s-2.5,1.5-4.4,1.5c-1.7,0-3-0.4-4-1.3
	C309.9,343.9,309.3,342.6,309.3,340.9L309.3,340.9z M313.3,340.8c0,0.9,0.2,1.6,0.6,2.1c0.4,0.4,0.8,0.7,1.4,0.7
	c0.6,0,1-0.2,1.4-0.7c0.4-0.4,0.6-1.1,0.6-2.1c0-0.9-0.2-1.6-0.6-2c-0.4-0.4-0.8-0.7-1.4-0.7c-0.6,0-1.1,0.2-1.4,0.7
	C313.5,339.3,313.3,339.9,313.3,340.8L313.3,340.8z M323.2,335.6h3.7v1.7c0.4-0.7,0.7-1.2,1.1-1.5c0.4-0.3,0.9-0.4,1.4-0.4
	c0.6,0,1.2,0.2,1.9,0.5l-1.2,2.8c-0.5-0.2-0.8-0.3-1.1-0.3c-0.5,0-0.9,0.2-1.2,0.6c-0.4,0.6-0.6,1.7-0.6,3.4v3.5h-4V335.6z
	 M331.5,340.9c0-1.6,0.5-2.9,1.6-3.9c1.1-1,2.5-1.5,4.3-1.5c2.1,0,3.6,0.6,4.7,1.8c0.9,1,1.3,2.2,1.3,3.6c0,1.6-0.5,2.9-1.6,3.9
	c-1.1,1-2.5,1.5-4.4,1.5c-1.7,0-3-0.4-4-1.3C332.2,343.9,331.5,342.6,331.5,340.9L331.5,340.9z M335.5,340.8c0,0.9,0.2,1.6,0.6,2.1
	c0.4,0.4,0.8,0.7,1.4,0.7c0.6,0,1-0.2,1.4-0.7s0.6-1.1,0.6-2.1c0-0.9-0.2-1.6-0.6-2c-0.4-0.4-0.8-0.7-1.4-0.7
	c-0.6,0-1.1,0.2-1.4,0.7C335.7,339.3,335.5,339.9,335.5,340.8L335.5,340.8z M345.4,335.6h3.7v1.7c0.6-0.7,1.1-1.2,1.7-1.5
	c0.6-0.3,1.3-0.4,2.1-0.4c1.1,0,2,0.3,2.6,1c0.6,0.7,0.9,1.7,0.9,3v6.6h-4v-5.7c0-0.7-0.1-1.1-0.4-1.4c-0.2-0.3-0.6-0.4-1-0.4
	c-0.5,0-0.9,0.2-1.2,0.5c-0.3,0.4-0.4,1-0.4,2v5h-4V335.6z M363.5,331.7v3.9h2.2v2.9h-2.2v3.7c0,0.4,0,0.7,0.1,0.9
	c0.1,0.2,0.4,0.3,0.7,0.3c0.3,0,0.7-0.1,1.2-0.3l0.3,2.7c-1,0.2-1.9,0.3-2.8,0.3c-1,0-1.7-0.1-2.2-0.4s-0.8-0.6-1-1.2
	c-0.2-0.5-0.3-1.4-0.3-2.5v-3.7h-1.5v-2.9h1.5v-1.9L363.5,331.7z M367.1,340.9c0-1.6,0.5-2.9,1.6-3.9c1.1-1,2.5-1.5,4.3-1.5
	c2.1,0,3.6,0.6,4.7,1.8c0.9,1,1.3,2.2,1.3,3.6c0,1.6-0.5,2.9-1.6,3.9s-2.5,1.5-4.4,1.5c-1.7,0-3-0.4-4-1.3
	C367.7,343.9,367.1,342.6,367.1,340.9L367.1,340.9z M371.1,340.8c0,0.9,0.2,1.6,0.6,2.1c0.4,0.4,0.8,0.7,1.4,0.7
	c0.6,0,1-0.2,1.4-0.7c0.4-0.4,0.6-1.1,0.6-2.1c0-0.9-0.2-1.6-0.6-2c-0.4-0.4-0.8-0.7-1.4-0.7c-0.6,0-1.1,0.2-1.4,0.7
	C371.3,339.3,371.1,339.9,371.1,340.8L371.1,340.8z"/>
<path id="text7378" d="M49.4,394.4h1.5l2.6,7.2l2.6-7.2h1.5v8.9h-0.8v-8.1l-2.9,8.1h-0.5l-2.9-8.1v8.1h-0.9V394.4z M60,394.5h0.9v1
	H60V394.5z M60,397h0.9v6.3H60V397z M63.4,394.4h0.9v8.9h-0.9V394.4z M67,394.7h0.8v2.3h1.6v0.8h-1.6v3.9c0,0.3,0.1,0.6,0.3,0.8
	c0.2,0.2,0.4,0.3,0.7,0.3c0.2,0,0.4,0,0.6-0.1v0.8c-0.3,0-0.5,0.1-0.7,0.1c-0.6,0-1-0.1-1.3-0.4s-0.4-0.7-0.4-1.2v-4.1h-1.1V397H67
	V394.7z M73.4,403.4c-0.8,0-1.5-0.3-2-0.9c-0.6-0.6-0.8-1.4-0.8-2.4c0-0.7,0.1-1.3,0.4-1.8c0.2-0.5,0.6-0.9,1-1.1
	c0.4-0.3,0.9-0.4,1.4-0.4c0.5,0,0.9,0.1,1.4,0.4c0.4,0.3,0.8,0.7,1,1.2c0.3,0.5,0.4,1.1,0.4,1.8c0,1-0.3,1.8-0.8,2.4
	C74.7,403.2,74.1,403.4,73.4,403.4L73.4,403.4z M73.3,402.7c0.5,0,1-0.2,1.3-0.7c0.4-0.4,0.6-1.1,0.6-1.9c0-0.8-0.2-1.4-0.6-1.9
	s-0.8-0.6-1.3-0.6c-0.6,0-1,0.2-1.4,0.7s-0.6,1.1-0.6,1.9c0,0.8,0.2,1.5,0.6,1.9S72.8,402.7,73.3,402.7L73.3,402.7z M78.7,397.7
	c0.5-0.3,0.9-0.5,1.3-0.6c0.4-0.1,0.8-0.2,1.1-0.2c0.3,0,0.6,0.1,0.8,0.2c0.3,0.1,0.5,0.3,0.7,0.7c0.2,0.3,0.3,0.7,0.3,1.2v4.4H82
	V399c0-0.4-0.1-0.8-0.3-1c-0.2-0.2-0.5-0.3-0.8-0.3c-0.3,0-0.6,0.1-1,0.2c-0.4,0.1-0.8,0.3-1.2,0.6v4.9h-0.9V397h0.9V397.7z"/>
<path id="text7382" d="M118.7,437.9c-1,0-1.9-0.4-2.5-1.1c-0.8-0.9-1.2-2-1.2-3.4c0-0.9,0.2-1.7,0.5-2.5c0.3-0.8,0.8-1.3,1.3-1.7
	s1.2-0.6,1.9-0.6c0.6,0,1.1,0.1,1.6,0.4c0.5,0.3,0.8,0.6,1.1,1c0.3,0.4,0.5,0.9,0.7,1.5c0.2,0.5,0.2,1.1,0.2,1.7
	c0,0.7-0.1,1.3-0.2,1.8c-0.2,0.5-0.4,0.9-0.6,1.3c-0.2,0.3-0.5,0.6-0.7,0.8c-0.3,0.3-0.7,0.5-1.1,0.6
	C119.4,437.8,119,437.9,118.7,437.9L118.7,437.9z M118.6,437.1c0.8,0,1.4-0.3,2-1c0.5-0.6,0.8-1.6,0.8-2.8c0-1.3-0.3-2.3-0.9-3
	c-0.5-0.6-1.1-0.9-1.8-0.9c-0.7,0-1.4,0.3-1.9,1c-0.5,0.6-0.8,1.6-0.8,2.9c0,1.3,0.3,2.2,0.8,2.8S117.9,437.1,118.6,437.1
	L118.6,437.1z M123.9,432.5c0.4-0.4,0.8-0.7,1.3-0.9s0.9-0.3,1.4-0.3c0.5,0,1,0.1,1.3,0.3c0.4,0.2,0.6,0.5,0.8,0.9
	c0.1,0.3,0.2,0.6,0.2,1v2.7c0,0.5,0.1,1,0.2,1.5h-0.9c-0.1-0.4-0.2-0.7-0.2-1.1c-0.4,0.4-0.8,0.7-1.2,0.9c-0.4,0.2-0.8,0.3-1.2,0.3
	c-0.5,0-1-0.2-1.3-0.5c-0.3-0.3-0.5-0.7-0.5-1.2c0-0.4,0.1-0.8,0.4-1.1c0.3-0.3,0.6-0.6,1.2-0.8c0.4-0.1,1.3-0.4,2.7-0.7v-0.4
	c0-0.3-0.1-0.6-0.3-0.8c-0.2-0.2-0.5-0.3-0.9-0.3c-0.3,0-0.7,0.1-1,0.2c-0.3,0.2-0.7,0.4-1.2,0.8L123.9,432.5z M127.9,436.2v-2
	c-0.9,0.2-1.6,0.4-1.9,0.5c-0.5,0.2-0.8,0.4-1.1,0.6s-0.3,0.5-0.3,0.8c0,0.3,0.1,0.5,0.3,0.7c0.2,0.2,0.5,0.3,0.8,0.3
	c0.3,0,0.6-0.1,1-0.2C127.1,436.7,127.5,436.5,127.9,436.2L127.9,436.2z M130.9,428.8h0.9v5.8l2.9-3.2h1.1l-2.1,2.2l2.3,4.1H135
	l-1.9-3.5l-1.4,1.5v2.1h-0.9V428.8z M136.6,431.4h0.9l1.7,5.1l1.7-5.1h0.9l-2.2,6.3h-0.9L136.6,431.4z M143.3,428.9h0.9v1h-0.9
	V428.9z M143.3,431.4h0.9v6.3h-0.9V431.4z M146.7,428.8h0.9v8.9h-0.9V428.8z M150.1,428.8h0.9v8.9h-0.9V428.8z M158.1,436.3
	c-0.4,0.5-0.8,0.9-1.2,1.2c-0.4,0.3-0.9,0.4-1.4,0.4c-0.7,0-1.4-0.3-1.9-0.9s-0.8-1.4-0.8-2.4c0-1,0.3-1.8,0.8-2.4
	c0.5-0.6,1.1-0.9,1.8-0.9c0.5,0,0.9,0.1,1.4,0.4s0.8,0.6,1,1.1s0.3,1.1,0.3,1.8h-4.4c0,0.5,0.1,0.9,0.2,1.2c0.2,0.4,0.4,0.7,0.7,0.9
	c0.3,0.2,0.6,0.3,0.9,0.3c0.7,0,1.3-0.4,2-1.3L158.1,436.3z M157.3,433.9c-0.1-0.6-0.3-1.1-0.6-1.4s-0.7-0.5-1.2-0.5
	c-0.5,0-0.9,0.2-1.3,0.6c-0.3,0.4-0.5,0.8-0.5,1.3H157.3z"/>
<path id="text7386" d="M68.8,428.9l2.3,2c0.8,0.7,1.2,1.4,1.3,2.1c0.1,0.7,0,1.3-0.4,1.7c-0.3,0.3-0.6,0.5-1.1,0.6
	c-0.4,0.1-0.9,0-1.5-0.1c0.3,0.6,0.4,1.1,0.4,1.6c0,0.5-0.2,0.9-0.5,1.2c-0.4,0.5-1,0.7-1.7,0.7c-0.8,0-1.5-0.4-2.3-1l-2.4-2.1
	L68.8,428.9z M68.9,430l-2.1,2.4l1.2,1.1c0.8,0.7,1.4,1.1,2,1.1s0.9-0.1,1.2-0.4c0.3-0.3,0.4-0.7,0.3-1.2c-0.1-0.5-0.4-0.9-0.9-1.4
	L68.9,430z M66.3,433l-2.3,2.5l1.7,1.5c0.5,0.5,1.1,0.7,1.8,0.8c0.4,0,0.8-0.1,1.1-0.5c0.2-0.2,0.3-0.5,0.4-0.9
	c0-0.3-0.1-0.7-0.3-1.1c-0.2-0.4-0.5-0.7-0.9-1.1L66.3,433z M73.2,436.2l0.6,0.6l-2.7,3.1c-0.3,0.3-0.5,0.7-0.5,1
	c0,0.3,0.1,0.6,0.3,0.8c0.2,0.2,0.5,0.3,0.8,0.4c0.3,0.1,0.8,0.2,1.5,0.2l3-3.4l0.6,0.6l-4.2,4.7l-0.6-0.6l0.7-0.8
	c-0.6,0-1.1-0.1-1.5-0.2c-0.4-0.1-0.8-0.3-1-0.5c-0.2-0.2-0.4-0.4-0.5-0.7s-0.1-0.6,0-1c0.1-0.4,0.3-0.7,0.6-1.1L73.2,436.2z
	 M78.3,442.7c0.6-0.2,1.2-0.2,1.6-0.2c0.5,0.1,0.9,0.3,1.2,0.6c0,0,0.1,0.1,0.2,0.2l-0.7,0.6l-0.2-0.2c-0.2-0.2-0.4-0.3-0.7-0.4
	c-0.3-0.1-0.6-0.1-0.9-0.1c-0.3,0-0.7,0.2-1,0.4c-0.3,0.2-0.6,0.4-0.8,0.6l-1.9,2.1l-0.6-0.6l4.2-4.7l0.6,0.6L78.3,442.7z
	 M84.1,442.5l0.6,0.6l-5.9,6.6l-0.6-0.6L84.1,442.5z M86.6,444.8l0.6,0.6l-0.7,0.8l-0.6-0.6L86.6,444.8z M84.9,446.6l0.6,0.6
	l-4.2,4.7l-0.6-0.6L84.9,446.6z M87.5,449.9c0.5,0.1,1,0.2,1.4,0.4c0.4,0.2,0.7,0.4,0.9,0.5c0.2,0.2,0.4,0.4,0.5,0.7
	s0.1,0.6,0.1,0.9c-0.1,0.4-0.3,0.7-0.6,1.1l-2.9,3.3l-0.6-0.6l2.9-3.3c0.3-0.3,0.4-0.6,0.4-0.9c0-0.3-0.1-0.5-0.4-0.8
	c-0.2-0.2-0.5-0.4-0.9-0.5c-0.4-0.2-0.8-0.3-1.3-0.4l-3.2,3.6l-0.6-0.6l4.2-4.7l0.6,0.6L87.5,449.9z M90.5,456.7c0-0.4,0-0.7,0-1
	c0.1-0.3,0.2-0.5,0.5-0.8c0.4-0.5,1-0.7,1.6-0.8c0.6,0,1.2,0.2,1.8,0.8c0.2,0.2,0.4,0.5,0.6,0.7c0.2,0.3,0.3,0.5,0.3,0.8
	c0.5,0.1,1,0.3,1.5,0.8l-0.5,0.6l-0.2-0.2c-0.3-0.2-0.5-0.4-0.7-0.5c-0.1,0.4-0.3,0.8-0.5,1.1c-0.4,0.5-1,0.8-1.6,0.8
	c-0.6,0-1.2-0.2-1.8-0.7c-0.2-0.2-0.4-0.4-0.6-0.6c-0.1-0.1-0.2-0.2-0.2-0.3c-0.1-0.1-0.3-0.2-0.4-0.2c-0.1,0-0.2,0-0.3,0.1
	c-0.1,0.1-0.1,0.3,0,0.4c0,0.1,0.2,0.3,0.5,0.6c0.8,0.7,1.3,1.4,1.6,1.8c0.3,0.5,0.4,0.9,0.4,1.2s-0.2,0.6-0.4,0.9
	c-0.2,0.3-0.5,0.4-0.9,0.5s-0.7,0-1.2-0.2s-0.8-0.4-1.2-0.8c-0.5-0.4-0.9-0.9-1.2-1.4c-0.2-0.4-0.3-0.8-0.3-1.1s0.1-0.7,0.3-0.9
	c0.2-0.2,0.4-0.3,0.6-0.4c0.2-0.1,0.5-0.1,0.8-0.1c-0.1-0.2-0.1-0.4-0.1-0.6s0.1-0.3,0.2-0.4c0.1-0.2,0.3-0.3,0.5-0.3
	C89.9,456.6,90.2,456.6,90.5,456.7L90.5,456.7z M91.9,457.7c0.4,0.4,0.8,0.5,1.3,0.5c0.4,0,0.8-0.2,1.1-0.5c0.3-0.3,0.4-0.6,0.3-1.1
	c0-0.4-0.3-0.8-0.7-1.2c-0.4-0.4-0.8-0.6-1.3-0.6c-0.4,0-0.8,0.2-1,0.5c-0.3,0.3-0.4,0.7-0.4,1.1C91.3,456.9,91.5,457.3,91.9,457.7
	L91.9,457.7z M89.4,458.5c-0.3-0.1-0.6-0.1-0.8,0c-0.2,0-0.4,0.1-0.5,0.3c-0.2,0.2-0.2,0.4-0.1,0.8c0.1,0.5,0.5,1,1.1,1.6
	c0.6,0.5,1.1,0.8,1.5,0.9c0.3,0,0.5,0,0.7-0.2c0.2-0.2,0.2-0.6,0-1C91.1,460.3,90.4,459.6,89.4,458.5L89.4,458.5z M99.6,456.6
	l0.6,0.6l-1.5,1.7l1.2,1l-0.5,0.6l-1.2-1l-2.6,2.9c-0.2,0.2-0.3,0.5-0.3,0.7c0,0.2,0.1,0.5,0.3,0.7c0.1,0.1,0.3,0.2,0.5,0.3
	l-0.5,0.6c-0.2-0.2-0.4-0.3-0.6-0.5c-0.4-0.4-0.7-0.8-0.7-1.1c0-0.4,0.2-0.7,0.5-1.2l2.7-3l-0.8-0.7l0.5-0.6l0.8,0.7L99.6,456.6z
	 M98.6,467.4c-0.6-0.5-0.9-1.2-0.9-2c0-0.8,0.3-1.6,1-2.3c0.4-0.5,0.9-0.9,1.4-1.1c0.5-0.2,1-0.3,1.5-0.2s0.9,0.3,1.3,0.6
	c0.4,0.3,0.6,0.7,0.8,1.2c0.2,0.5,0.2,1,0,1.6c-0.2,0.6-0.5,1.1-0.9,1.6c-0.7,0.7-1.4,1.1-2.2,1.2C99.8,468.1,99.1,467.9,98.6,467.4
	L98.6,467.4z M99,466.8c0.4,0.3,0.9,0.5,1.4,0.4c0.6-0.1,1.1-0.4,1.7-1.1c0.5-0.6,0.8-1.2,0.8-1.8c0-0.6-0.2-1-0.6-1.4
	c-0.4-0.4-0.9-0.5-1.5-0.4s-1.1,0.4-1.7,1c-0.6,0.6-0.8,1.2-0.8,1.8C98.4,466,98.6,466.4,99,466.8L99,466.8z M106.4,466.7
	c0.5,0.1,1,0.2,1.4,0.4c0.4,0.2,0.7,0.4,0.9,0.5c0.2,0.2,0.4,0.4,0.5,0.7c0.1,0.3,0.1,0.6,0.1,0.9c-0.1,0.4-0.3,0.7-0.6,1.1
	l-2.9,3.3l-0.6-0.6l2.9-3.3c0.3-0.3,0.4-0.6,0.4-0.9c0-0.3-0.1-0.5-0.4-0.8c-0.2-0.2-0.5-0.4-0.9-0.5c-0.4-0.2-0.8-0.3-1.3-0.4
	l-3.2,3.6l-0.6-0.6l4.2-4.7l0.6,0.6L106.4,466.7z"/>
<path id="text7390" d="M66.8,315.5h0.9v3.8h4.7v-3.8h0.9v8.9h-0.9v-4.3h-4.7v4.3h-0.9V315.5z M75.3,319.2c0.4-0.4,0.8-0.7,1.3-0.9
	s0.9-0.3,1.4-0.3c0.5,0,1,0.1,1.3,0.3c0.4,0.2,0.6,0.5,0.8,0.9c0.1,0.3,0.2,0.6,0.2,1v2.7c0,0.5,0.1,1,0.2,1.5h-0.9
	c-0.1-0.4-0.2-0.7-0.2-1.1c-0.4,0.4-0.8,0.7-1.2,0.9c-0.4,0.2-0.8,0.3-1.2,0.3c-0.5,0-1-0.2-1.3-0.5s-0.5-0.7-0.5-1.2
	c0-0.4,0.1-0.8,0.4-1.1s0.6-0.6,1.2-0.8c0.4-0.1,1.3-0.4,2.7-0.7v-0.4c0-0.3-0.1-0.6-0.3-0.8c-0.2-0.2-0.5-0.3-0.9-0.3
	c-0.3,0-0.7,0.1-1,0.2s-0.7,0.4-1.2,0.8L75.3,319.2z M79.3,322.8v-2c-0.9,0.2-1.6,0.4-1.9,0.5c-0.5,0.2-0.8,0.4-1.1,0.6
	s-0.3,0.5-0.3,0.8c0,0.3,0.1,0.5,0.3,0.7s0.5,0.3,0.8,0.3c0.3,0,0.6-0.1,1-0.2C78.5,323.4,78.9,323.1,79.3,322.8L79.3,322.8z
	 M82.5,315.5h0.9v8.9h-0.9V315.5z M86.1,315.8h0.8v2.3h1.6v0.8h-1.6v3.9c0,0.3,0.1,0.6,0.3,0.8s0.4,0.3,0.7,0.3c0.2,0,0.4,0,0.6-0.1
	v0.8c-0.3,0-0.5,0.1-0.7,0.1c-0.6,0-1-0.1-1.3-0.4s-0.4-0.7-0.4-1.2v-4.1H85v-0.8h1.1V315.8z M92.5,324.5c-0.8,0-1.5-0.3-2-0.9
	s-0.8-1.4-0.8-2.4c0-0.7,0.1-1.3,0.4-1.8s0.6-0.9,1-1.1s0.9-0.4,1.4-0.4c0.5,0,0.9,0.1,1.4,0.4c0.4,0.3,0.8,0.7,1,1.2
	c0.3,0.5,0.4,1.1,0.4,1.8c0,1-0.3,1.8-0.8,2.4C93.9,324.2,93.2,324.5,92.5,324.5L92.5,324.5z M92.4,323.8c0.5,0,1-0.2,1.3-0.7
	c0.4-0.4,0.6-1.1,0.6-1.9c0-0.8-0.2-1.4-0.6-1.9c-0.4-0.4-0.8-0.6-1.3-0.6c-0.6,0-1,0.2-1.4,0.7s-0.6,1.1-0.6,1.9
	c0,0.8,0.2,1.5,0.6,1.9S91.9,323.8,92.4,323.8L92.4,323.8z M97.8,318.8c0.5-0.3,0.9-0.5,1.3-0.6c0.4-0.1,0.8-0.2,1.1-0.2
	c0.3,0,0.6,0.1,0.8,0.2s0.5,0.3,0.7,0.7c0.2,0.3,0.3,0.7,0.3,1.2v4.4h-0.9V320c0-0.4-0.1-0.8-0.3-1c-0.2-0.2-0.5-0.3-0.8-0.3
	c-0.3,0-0.6,0.1-1,0.2s-0.8,0.3-1.2,0.6v4.9H97v-6.3h0.9V318.8z M73,326.3h0.9v3.8h4.7v-3.8h0.9v8.9h-0.9v-4.3h-4.7v4.3H73V326.3z
	 M81.9,326.4h0.9v1h-0.9V326.4z M81.9,328.9h0.9v6.3h-0.9V328.9z M85.2,326.3h0.9v8.9h-0.9V326.3z M88.6,326.3h0.9v8.9h-0.9V326.3z
	 M91.9,331.5c-0.3-0.3-0.5-0.7-0.5-1.1c0-0.5,0.2-0.9,0.6-1.2c0.4-0.3,0.9-0.5,1.6-0.5c0.4,0,0.9,0.1,1.3,0.2c0.4,0.2,0.7,0.4,1,0.7
	l-0.7,0.5c-0.2-0.3-0.5-0.5-0.8-0.6c-0.3-0.1-0.6-0.2-0.9-0.2c-0.4,0-0.7,0.1-1,0.3s-0.3,0.4-0.3,0.6c0,0.2,0.1,0.4,0.3,0.6
	c0.2,0.2,0.6,0.3,1.2,0.5c1,0.2,1.6,0.5,1.9,0.9c0.3,0.4,0.5,0.7,0.5,1.2c0,0.5-0.2,0.9-0.6,1.3c-0.4,0.4-0.9,0.5-1.6,0.5
	c-0.5,0-1-0.1-1.4-0.3s-0.9-0.5-1.3-0.9l0.7-0.5c0.4,0.4,0.7,0.6,1,0.8c0.3,0.2,0.6,0.2,1,0.2c0.4,0,0.8-0.1,1-0.3
	c0.2-0.2,0.4-0.5,0.4-0.7c0-0.2-0.1-0.4-0.3-0.6c-0.3-0.2-0.8-0.5-1.5-0.7c-0.5-0.1-0.9-0.3-1.2-0.4
	C92.2,331.7,92.1,331.6,91.9,331.5L91.9,331.5z"/>
<path id="text7396" d="M132.8,308h3.1c1,0,1.8,0.2,2.4,0.7c0.5,0.5,0.8,1,0.8,1.6c0,0.4-0.1,0.8-0.4,1.2c-0.3,0.4-0.7,0.7-1.2,0.9
	c0.6,0.2,1.1,0.6,1.4,1c0.3,0.4,0.5,0.8,0.5,1.2c0,0.6-0.3,1.2-0.9,1.7c-0.6,0.5-1.4,0.7-2.4,0.7h-3.2V308z M133.7,308.8v3.2h1.6
	c1.1,0,1.8-0.2,2.2-0.5s0.6-0.7,0.6-1.1c0-0.4-0.2-0.8-0.5-1.1c-0.4-0.3-0.9-0.5-1.6-0.5H133.7z M133.7,312.7v3.4h2.3
	c0.7,0,1.3-0.2,1.8-0.6c0.3-0.3,0.5-0.6,0.5-1.1c0-0.3-0.1-0.6-0.3-0.9s-0.5-0.5-0.9-0.6c-0.4-0.1-0.9-0.2-1.4-0.2H133.7z M142,312
	c0.4-0.5,0.7-0.9,1.1-1.2s0.8-0.4,1.3-0.4c0.1,0,0.1,0,0.2,0l-0.1,0.9l-0.3,0c-0.2,0-0.5,0-0.8,0.2s-0.5,0.3-0.8,0.6s-0.4,0.6-0.5,1
	s-0.2,0.7-0.2,1v2.8h-0.9v-6.3h0.9V312z M145.7,311.7c0.4-0.4,0.8-0.7,1.3-0.9s0.9-0.3,1.4-0.3c0.5,0,1,0.1,1.3,0.3
	c0.4,0.2,0.6,0.5,0.8,0.9c0.1,0.3,0.2,0.6,0.2,1v2.7c0,0.5,0.1,1,0.2,1.5H150c-0.1-0.4-0.2-0.7-0.2-1.1c-0.4,0.4-0.8,0.7-1.2,0.9
	s-0.8,0.3-1.2,0.3c-0.5,0-1-0.2-1.3-0.5s-0.5-0.7-0.5-1.2c0-0.4,0.1-0.8,0.4-1.1s0.6-0.6,1.2-0.8c0.4-0.1,1.3-0.4,2.7-0.7v-0.4
	c0-0.3-0.1-0.6-0.3-0.8s-0.5-0.3-0.9-0.3c-0.3,0-0.7,0.1-1,0.2s-0.7,0.4-1.2,0.8L145.7,311.7z M149.8,315.3v-2
	c-0.9,0.2-1.6,0.4-1.9,0.5c-0.5,0.2-0.8,0.4-1.1,0.6s-0.3,0.5-0.3,0.8c0,0.3,0.1,0.5,0.3,0.7s0.5,0.3,0.8,0.3c0.3,0,0.6-0.1,1-0.2
	S149.4,315.6,149.8,315.3L149.8,315.3z M153.7,311.6c0.7-0.5,1.3-0.8,1.6-0.9s0.7-0.2,1-0.2c0.3,0,0.6,0.1,0.9,0.3s0.4,0.5,0.6,0.9
	c0.7-0.5,1.3-0.8,1.6-0.9s0.7-0.2,1-0.2c0.4,0,0.8,0.1,1.1,0.4c0.4,0.4,0.6,0.8,0.6,1.4v4.7h-0.9v-4.4c0-0.4-0.1-0.7-0.3-0.9
	s-0.4-0.3-0.7-0.3c-0.2,0-0.5,0.1-0.9,0.2s-0.8,0.4-1.4,0.9v4.6h-0.9v-4.4c0-0.4-0.1-0.7-0.3-0.9s-0.4-0.3-0.7-0.3
	c-0.3,0-0.6,0.1-0.9,0.2c-0.3,0.1-0.8,0.4-1.4,0.9v4.6h-0.9v-6.3h0.9V311.6z M164.9,311.4c0.3-0.3,0.7-0.5,1.1-0.7s0.7-0.2,1.1-0.2
	c0.5,0,0.9,0.1,1.3,0.4c0.4,0.3,0.7,0.7,1,1.2c0.2,0.5,0.3,1.1,0.3,1.7c0,0.7-0.1,1.2-0.3,1.7s-0.6,0.9-1,1.1
	c-0.4,0.3-0.9,0.4-1.3,0.4c-0.4,0-0.7-0.1-1.1-0.2s-0.7-0.4-1.1-0.7v3.2H164v-8.7h0.8V311.4z M164.9,315.3c0.4,0.3,0.7,0.5,1.1,0.7
	s0.7,0.2,1,0.2c0.5,0,0.9-0.2,1.3-0.6c0.4-0.4,0.5-1.1,0.5-1.9c0-0.8-0.2-1.4-0.6-1.8c-0.4-0.4-0.8-0.6-1.3-0.6
	c-0.3,0-0.6,0.1-1,0.2s-0.7,0.4-1.1,0.7V315.3z M171.8,308.3h0.8v2.3h1.6v0.8h-1.6v3.9c0,0.3,0.1,0.6,0.3,0.8s0.4,0.3,0.7,0.3
	c0.2,0,0.4,0,0.6-0.1v0.8c-0.3,0-0.5,0.1-0.7,0.1c-0.6,0-1-0.1-1.3-0.4s-0.4-0.7-0.4-1.2v-4.1h-1.1v-0.8h1.1V308.3z M178.2,317
	c-0.8,0-1.5-0.3-2-0.9s-0.8-1.4-0.8-2.4c0-0.7,0.1-1.3,0.4-1.8s0.6-0.9,1-1.1s0.9-0.4,1.4-0.4c0.5,0,0.9,0.1,1.4,0.4s0.8,0.7,1,1.2
	s0.4,1.1,0.4,1.8c0,1-0.3,1.8-0.8,2.4C179.6,316.7,178.9,317,178.2,317L178.2,317z M178.1,316.3c0.5,0,1-0.2,1.3-0.7
	s0.6-1.1,0.6-1.9c0-0.8-0.2-1.4-0.6-1.9s-0.8-0.6-1.3-0.6c-0.6,0-1,0.2-1.4,0.7s-0.6,1.1-0.6,1.9c0,0.8,0.2,1.5,0.6,1.9
	S177.6,316.3,178.1,316.3L178.1,316.3z M183.5,311.3c0.5-0.3,0.9-0.5,1.3-0.6s0.8-0.2,1.1-0.2c0.3,0,0.6,0.1,0.8,0.2
	s0.5,0.3,0.7,0.7s0.3,0.7,0.3,1.2v4.4h-0.9v-4.4c0-0.4-0.1-0.8-0.3-1c-0.2-0.2-0.5-0.3-0.8-0.3c-0.3,0-0.6,0.1-1,0.2
	s-0.8,0.3-1.2,0.6v4.9h-0.9v-6.3h0.9V311.3z"/>
<path id="text7404" d="M127.6,250.2c-0.1,0.6-0.3,1-0.6,1.4c-0.3,0.5-0.7,0.8-1.2,1.1c-0.5,0.2-1,0.4-1.6,0.4
	c-0.7,0-1.3-0.2-1.8-0.5c-0.5-0.4-1-0.9-1.3-1.6c-0.3-0.7-0.5-1.5-0.5-2.5c0-0.8,0.1-1.6,0.4-2.4s0.7-1.3,1.3-1.7
	c0.5-0.4,1.2-0.6,1.8-0.6c0.6,0,1.1,0.1,1.6,0.3c0.4,0.2,0.8,0.6,1.2,1c0.2,0.3,0.4,0.8,0.6,1.3l-0.9,0.1c-0.2-0.7-0.5-1.2-0.9-1.5
	c-0.4-0.3-0.9-0.5-1.4-0.5c-0.7,0-1.3,0.3-1.8,0.8c-0.6,0.7-0.8,1.7-0.8,2.9c0,1.3,0.3,2.3,0.9,3c0.5,0.6,1.1,0.9,1.8,0.9
	c0.4,0,0.8-0.1,1.2-0.3c0.3-0.2,0.6-0.5,0.9-0.9c0.1-0.2,0.3-0.6,0.4-1L127.6,250.2z M128.9,247.6c0.4-0.4,0.8-0.7,1.3-0.9
	s0.9-0.3,1.4-0.3c0.5,0,1,0.1,1.3,0.3s0.6,0.5,0.8,0.9c0.1,0.3,0.2,0.6,0.2,1v2.7c0,0.5,0.1,1,0.2,1.5h-0.9
	c-0.1-0.4-0.2-0.7-0.2-1.1c-0.4,0.4-0.8,0.7-1.2,0.9c-0.4,0.2-0.8,0.3-1.2,0.3c-0.5,0-1-0.2-1.3-0.5s-0.5-0.7-0.5-1.2
	c0-0.4,0.1-0.8,0.4-1.1s0.6-0.6,1.2-0.8c0.4-0.1,1.3-0.4,2.7-0.7v-0.4c0-0.3-0.1-0.6-0.3-0.8s-0.5-0.3-0.9-0.3c-0.3,0-0.7,0.1-1,0.2
	s-0.7,0.4-1.2,0.8L128.9,247.6z M132.9,251.3v-2c-0.9,0.2-1.6,0.4-1.9,0.5c-0.5,0.2-0.8,0.4-1.1,0.6s-0.3,0.5-0.3,0.8
	c0,0.3,0.1,0.5,0.3,0.7s0.5,0.3,0.8,0.3c0.3,0,0.6-0.1,1-0.2C132.1,251.8,132.5,251.6,132.9,251.3L132.9,251.3z M136.1,243.9h0.9
	v8.9h-0.9V243.9z M144.2,251.4c-0.4,0.5-0.8,0.9-1.2,1.2s-0.9,0.4-1.4,0.4c-0.7,0-1.4-0.3-1.9-0.9s-0.8-1.4-0.8-2.4
	c0-1,0.3-1.8,0.8-2.4s1.1-0.9,1.8-0.9c0.5,0,0.9,0.1,1.4,0.4s0.8,0.6,1,1.1c0.2,0.5,0.3,1.1,0.3,1.8h-4.4c0,0.5,0.1,0.9,0.2,1.2
	c0.2,0.4,0.4,0.7,0.7,0.9s0.6,0.3,0.9,0.3c0.7,0,1.3-0.4,2-1.3L144.2,251.4z M143.3,249c-0.1-0.6-0.3-1.1-0.6-1.4s-0.7-0.5-1.2-0.5
	c-0.5,0-0.9,0.2-1.3,0.6s-0.5,0.8-0.5,1.3H143.3z M150.1,243.9h0.8v6.9c0,0.4,0,0.7,0.1,1.1c0,0.4,0.1,0.7,0.2,0.8h-0.9
	c-0.1-0.3-0.1-0.6-0.1-0.9c-0.4,0.3-0.8,0.6-1.1,0.8c-0.4,0.2-0.7,0.3-1.1,0.3c-0.7,0-1.3-0.3-1.8-0.9s-0.8-1.4-0.8-2.4
	c0-1,0.3-1.9,0.8-2.4s1.1-0.9,1.8-0.9c0.4,0,0.7,0.1,1.1,0.2c0.3,0.2,0.7,0.4,1.1,0.7V243.9z M150.1,248.1c-0.4-0.3-0.7-0.5-1-0.7
	c-0.3-0.2-0.7-0.2-1-0.2c-0.5,0-1,0.2-1.3,0.6s-0.5,1-0.5,1.8c0,0.9,0.2,1.5,0.5,1.9s0.8,0.6,1.3,0.6c0.3,0,0.7-0.1,1-0.2
	c0.3-0.2,0.7-0.4,1-0.7V248.1z M155.6,252.9c-0.8,0-1.5-0.3-2-0.9s-0.8-1.4-0.8-2.4c0-0.7,0.1-1.3,0.4-1.8s0.6-0.9,1-1.1
	s0.9-0.4,1.4-0.4c0.5,0,0.9,0.1,1.4,0.4s0.8,0.7,1,1.2s0.4,1.1,0.4,1.8c0,1-0.3,1.8-0.8,2.4C157,252.6,156.4,252.9,155.6,252.9
	L155.6,252.9z M155.5,252.2c0.5,0,1-0.2,1.3-0.7c0.4-0.4,0.6-1.1,0.6-1.9c0-0.8-0.2-1.4-0.6-1.9c-0.4-0.4-0.8-0.6-1.3-0.6
	c-0.6,0-1,0.2-1.4,0.7s-0.6,1.1-0.6,1.9c0,0.8,0.2,1.5,0.6,1.9S155,252.2,155.5,252.2L155.5,252.2z M161,247.2
	c0.5-0.3,0.9-0.5,1.3-0.6c0.4-0.1,0.8-0.2,1.1-0.2c0.3,0,0.6,0.1,0.8,0.2s0.5,0.3,0.7,0.7s0.3,0.7,0.3,1.2v4.4h-0.9v-4.4
	c0-0.4-0.1-0.8-0.3-1c-0.2-0.2-0.5-0.3-0.8-0.3c-0.3,0-0.6,0.1-1,0.2c-0.4,0.1-0.8,0.3-1.2,0.6v4.9h-0.9v-6.3h0.9V247.2z"/>
<path id="text7412" d="M140.9,372.6h1.5l2.6,7.2l2.6-7.2h1.5v8.9h-0.8v-8.1l-2.9,8.1h-0.5l-2.9-8.1v8.1h-0.9V372.6z M151.5,372.7
	h0.9v1h-0.9V372.7z M151.5,375.2h0.9v6.3h-0.9V375.2z M154.8,377.8c-0.3-0.3-0.5-0.7-0.5-1.1c0-0.5,0.2-0.9,0.6-1.2s0.9-0.5,1.6-0.5
	c0.4,0,0.9,0.1,1.3,0.2s0.7,0.4,1,0.7l-0.7,0.5c-0.2-0.3-0.5-0.5-0.8-0.6s-0.6-0.2-0.9-0.2c-0.4,0-0.7,0.1-1,0.3s-0.3,0.4-0.3,0.6
	c0,0.2,0.1,0.4,0.3,0.6c0.2,0.2,0.6,0.3,1.2,0.5c1,0.2,1.6,0.5,1.9,0.9s0.5,0.7,0.5,1.2c0,0.5-0.2,0.9-0.6,1.3s-0.9,0.5-1.6,0.5
	c-0.5,0-1-0.1-1.4-0.3s-0.9-0.5-1.3-0.9l0.7-0.5c0.4,0.4,0.7,0.6,1,0.8s0.6,0.2,1,0.2c0.4,0,0.8-0.1,1-0.3c0.2-0.2,0.4-0.5,0.4-0.7
	c0-0.2-0.1-0.4-0.3-0.6c-0.3-0.2-0.8-0.5-1.5-0.7c-0.5-0.1-0.9-0.3-1.2-0.4C155.1,378,154.9,377.9,154.8,377.8L154.8,377.8z
	 M160.9,377.8c-0.3-0.3-0.5-0.7-0.5-1.1c0-0.5,0.2-0.9,0.6-1.2s0.9-0.5,1.6-0.5c0.4,0,0.9,0.1,1.3,0.2s0.7,0.4,1,0.7l-0.7,0.5
	c-0.2-0.3-0.5-0.5-0.8-0.6c-0.3-0.1-0.6-0.2-0.9-0.2c-0.4,0-0.7,0.1-1,0.3s-0.3,0.4-0.3,0.6c0,0.2,0.1,0.4,0.3,0.6
	c0.2,0.2,0.6,0.3,1.2,0.5c1,0.2,1.6,0.5,1.9,0.9s0.5,0.7,0.5,1.2c0,0.5-0.2,0.9-0.6,1.3c-0.4,0.4-0.9,0.5-1.6,0.5
	c-0.5,0-1-0.1-1.4-0.3s-0.9-0.5-1.3-0.9l0.7-0.5c0.4,0.4,0.7,0.6,1,0.8s0.6,0.2,1,0.2c0.4,0,0.8-0.1,1-0.3s0.4-0.5,0.4-0.7
	c0-0.2-0.1-0.4-0.3-0.6c-0.3-0.2-0.8-0.5-1.5-0.7c-0.5-0.1-0.9-0.3-1.2-0.4C161.2,378,161,377.9,160.9,377.8L160.9,377.8z
	 M167.1,372.7h0.9v1h-0.9V372.7z M167.1,375.2h0.9v6.3h-0.9V375.2z M170.4,377.8c-0.3-0.3-0.5-0.7-0.5-1.1c0-0.5,0.2-0.9,0.6-1.2
	s0.9-0.5,1.6-0.5c0.4,0,0.9,0.1,1.3,0.2c0.4,0.2,0.7,0.4,1,0.7l-0.7,0.5c-0.2-0.3-0.5-0.5-0.8-0.6s-0.6-0.2-0.9-0.2
	c-0.4,0-0.7,0.1-1,0.3s-0.3,0.4-0.3,0.6c0,0.2,0.1,0.4,0.3,0.6c0.2,0.2,0.6,0.3,1.2,0.5c1,0.2,1.6,0.5,1.9,0.9s0.5,0.7,0.5,1.2
	c0,0.5-0.2,0.9-0.6,1.3s-0.9,0.5-1.6,0.5c-0.5,0-1-0.1-1.4-0.3s-0.9-0.5-1.3-0.9l0.7-0.5c0.4,0.4,0.7,0.6,1,0.8s0.6,0.2,1,0.2
	c0.4,0,0.8-0.1,1-0.3s0.4-0.5,0.4-0.7c0-0.2-0.1-0.4-0.3-0.6c-0.3-0.2-0.8-0.5-1.5-0.7c-0.5-0.1-0.9-0.3-1.2-0.4
	C170.7,378,170.5,377.9,170.4,377.8L170.4,377.8z M176.5,377.8c-0.3-0.3-0.5-0.7-0.5-1.1c0-0.5,0.2-0.9,0.6-1.2s0.9-0.5,1.6-0.5
	c0.4,0,0.9,0.1,1.3,0.2s0.7,0.4,1,0.7l-0.7,0.5c-0.2-0.3-0.5-0.5-0.8-0.6c-0.3-0.1-0.6-0.2-0.9-0.2c-0.4,0-0.7,0.1-1,0.3
	s-0.3,0.4-0.3,0.6c0,0.2,0.1,0.4,0.3,0.6c0.2,0.2,0.6,0.3,1.2,0.5c1,0.2,1.6,0.5,1.9,0.9c0.3,0.4,0.5,0.7,0.5,1.2
	c0,0.5-0.2,0.9-0.6,1.3s-0.9,0.5-1.6,0.5c-0.5,0-1-0.1-1.4-0.3s-0.9-0.5-1.3-0.9l0.7-0.5c0.4,0.4,0.7,0.6,1,0.8s0.6,0.2,1,0.2
	c0.4,0,0.8-0.1,1-0.3s0.4-0.5,0.4-0.7c0-0.2-0.1-0.4-0.3-0.6c-0.3-0.2-0.8-0.5-1.5-0.7c-0.5-0.1-0.9-0.3-1.2-0.4
	C176.8,378,176.7,377.9,176.5,377.8L176.5,377.8z M182.2,376.3c0.4-0.4,0.8-0.7,1.3-0.9s0.9-0.3,1.4-0.3c0.5,0,1,0.1,1.3,0.3
	c0.4,0.2,0.6,0.5,0.8,0.9c0.1,0.3,0.2,0.6,0.2,1v2.7c0,0.5,0.1,1,0.2,1.5h-0.9c-0.1-0.4-0.2-0.7-0.2-1.1c-0.4,0.4-0.8,0.7-1.2,0.9
	s-0.8,0.3-1.2,0.3c-0.5,0-1-0.2-1.3-0.5s-0.5-0.7-0.5-1.2c0-0.4,0.1-0.8,0.4-1.1s0.6-0.6,1.2-0.8c0.4-0.1,1.3-0.4,2.7-0.7v-0.4
	c0-0.3-0.1-0.6-0.3-0.8s-0.5-0.3-0.9-0.3c-0.3,0-0.7,0.1-1,0.2s-0.7,0.4-1.2,0.8L182.2,376.3z M186.3,379.9v-2
	c-0.9,0.2-1.6,0.4-1.9,0.5c-0.5,0.2-0.8,0.4-1.1,0.6s-0.3,0.5-0.3,0.8c0,0.3,0.1,0.5,0.3,0.7s0.5,0.3,0.8,0.3c0.3,0,0.6-0.1,1-0.2
	S185.9,380.2,186.3,379.9L186.3,379.9z M189.2,375.2h0.9v4.1c0,0.5,0.1,0.8,0.3,1.1s0.5,0.4,0.8,0.4c0.3,0,0.6-0.1,0.9-0.2
	s0.7-0.4,1.2-0.9v-4.5h0.9v6.3h-0.9v-1c-0.5,0.4-0.9,0.7-1.3,0.9s-0.8,0.3-1.1,0.3c-0.3,0-0.6-0.1-0.9-0.2s-0.5-0.4-0.7-0.7
	s-0.3-0.7-0.3-1.2V375.2z M196.9,379c-0.3-0.2-0.5-0.5-0.6-0.8s-0.2-0.6-0.2-0.9c0-0.6,0.2-1.2,0.7-1.6s1.1-0.6,1.9-0.6
	c0.3,0,0.6,0,0.9,0.1s0.6,0.2,0.8,0.4c0.4-0.2,1-0.4,1.6-0.4v0.8l-0.3,0c-0.4,0-0.7,0-0.9,0.1c0.2,0.4,0.3,0.7,0.3,1.2
	c0,0.7-0.2,1.2-0.7,1.7s-1.1,0.7-1.9,0.7c-0.2,0-0.5,0-0.8-0.1c-0.2,0-0.3,0-0.3,0c-0.2,0-0.3,0-0.4,0.1s-0.2,0.2-0.2,0.3
	c0,0.1,0.1,0.3,0.3,0.4c0.1,0,0.3,0.1,0.8,0.1c1.1,0,1.9,0.1,2.4,0.3s0.9,0.4,1.1,0.7c0.2,0.3,0.3,0.6,0.3,0.9
	c0,0.3-0.1,0.7-0.3,0.9c-0.2,0.3-0.5,0.5-1,0.6c-0.4,0.1-0.9,0.2-1.4,0.2c-0.7,0-1.3-0.1-1.9-0.3c-0.4-0.1-0.8-0.4-1-0.6
	s-0.3-0.6-0.3-0.9c0-0.2,0.1-0.5,0.2-0.7s0.3-0.4,0.6-0.6c-0.2-0.1-0.3-0.3-0.4-0.4s-0.1-0.3-0.1-0.4c0-0.2,0.1-0.4,0.2-0.6
	S196.6,379.1,196.9,379L196.9,379z M198.7,378.8c0.5,0,1-0.2,1.3-0.5s0.5-0.7,0.5-1.1c0-0.4-0.2-0.7-0.5-1c-0.3-0.3-0.7-0.4-1.3-0.4
	c-0.6,0-1,0.1-1.3,0.4s-0.5,0.6-0.5,1.1s0.2,0.8,0.5,1.1S198.1,378.8,198.7,378.8L198.7,378.8z M197.3,381.1
	c-0.3,0.2-0.5,0.3-0.6,0.5s-0.2,0.3-0.2,0.5c0,0.2,0.1,0.5,0.4,0.7c0.4,0.3,1.1,0.4,1.9,0.4s1.4-0.1,1.7-0.4
	c0.2-0.2,0.4-0.4,0.4-0.6c0-0.3-0.2-0.6-0.7-0.7S198.8,381.2,197.3,381.1L197.3,381.1z M203,376.3c0.4-0.4,0.8-0.7,1.3-0.9
	s0.9-0.3,1.4-0.3c0.5,0,1,0.1,1.3,0.3s0.6,0.5,0.8,0.9c0.1,0.3,0.2,0.6,0.2,1v2.7c0,0.5,0.1,1,0.2,1.5h-0.9
	c-0.1-0.4-0.2-0.7-0.2-1.1c-0.4,0.4-0.8,0.7-1.2,0.9s-0.8,0.3-1.2,0.3c-0.5,0-1-0.2-1.3-0.5s-0.5-0.7-0.5-1.2c0-0.4,0.1-0.8,0.4-1.1
	s0.6-0.6,1.2-0.8c0.4-0.1,1.3-0.4,2.7-0.7v-0.4c0-0.3-0.1-0.6-0.3-0.8c-0.2-0.2-0.5-0.3-0.9-0.3c-0.3,0-0.7,0.1-1,0.2
	s-0.7,0.4-1.2,0.8L203,376.3z M207.1,379.9v-2c-0.9,0.2-1.6,0.4-1.9,0.5c-0.5,0.2-0.8,0.4-1.1,0.6s-0.3,0.5-0.3,0.8
	c0,0.3,0.1,0.5,0.3,0.7s0.5,0.3,0.8,0.3c0.3,0,0.6-0.1,1-0.2S206.6,380.2,207.1,379.9L207.1,379.9z"/>
<path id="text7416" d="M222.8,263.1h0.9l2.6,7.5l2.6-7.5h0.9l-3,8.9h-0.8L222.8,263.1z M230.8,266.8c0.4-0.4,0.8-0.7,1.3-0.9
	s0.9-0.3,1.4-0.3c0.5,0,1,0.1,1.3,0.3s0.6,0.5,0.8,0.9c0.1,0.3,0.2,0.6,0.2,1v2.7c0,0.5,0.1,1,0.2,1.5H235c-0.1-0.4-0.2-0.7-0.2-1.1
	c-0.4,0.4-0.8,0.7-1.2,0.9s-0.8,0.3-1.2,0.3c-0.5,0-1-0.2-1.3-0.5s-0.5-0.7-0.5-1.2c0-0.4,0.1-0.8,0.4-1.1s0.6-0.6,1.2-0.8
	c0.4-0.1,1.3-0.4,2.7-0.7v-0.4c0-0.3-0.1-0.6-0.3-0.8s-0.5-0.3-0.9-0.3c-0.3,0-0.7,0.1-1,0.2s-0.7,0.4-1.2,0.8L230.8,266.8z
	 M234.9,270.5v-2c-0.9,0.2-1.6,0.4-1.9,0.5c-0.5,0.2-0.8,0.4-1.1,0.6s-0.3,0.5-0.3,0.8c0,0.3,0.1,0.5,0.3,0.7s0.5,0.3,0.8,0.3
	c0.3,0,0.6-0.1,1-0.2S234.4,270.8,234.9,270.5L234.9,270.5z M237.7,265.7h0.9v4.1c0,0.5,0.1,0.8,0.3,1.1s0.5,0.4,0.8,0.4
	c0.3,0,0.6-0.1,0.9-0.2s0.7-0.4,1.2-0.9v-4.5h0.9v6.3h-0.9v-1c-0.5,0.4-0.9,0.7-1.3,0.9c-0.4,0.2-0.8,0.3-1.1,0.3
	c-0.3,0-0.6-0.1-0.9-0.2s-0.5-0.4-0.7-0.7s-0.3-0.7-0.3-1.2V265.7z M245.5,269.5c-0.3-0.2-0.5-0.5-0.6-0.8s-0.2-0.6-0.2-0.9
	c0-0.6,0.2-1.2,0.7-1.6s1.1-0.6,1.9-0.6c0.3,0,0.6,0,0.9,0.1c0.3,0.1,0.6,0.2,0.8,0.4c0.4-0.2,1-0.4,1.6-0.4v0.8l-0.3,0
	c-0.4,0-0.7,0-0.9,0.1c0.2,0.4,0.3,0.7,0.3,1.2c0,0.7-0.2,1.2-0.7,1.7s-1.1,0.7-1.9,0.7c-0.2,0-0.5,0-0.8-0.1c-0.2,0-0.3,0-0.3,0
	c-0.2,0-0.3,0-0.4,0.1s-0.2,0.2-0.2,0.3c0,0.1,0.1,0.3,0.3,0.4c0.1,0,0.3,0.1,0.8,0.1c1.1,0,1.9,0.1,2.4,0.3
	c0.5,0.2,0.9,0.4,1.1,0.7c0.2,0.3,0.3,0.6,0.3,0.9c0,0.3-0.1,0.7-0.3,0.9s-0.5,0.5-1,0.6s-0.9,0.2-1.4,0.2c-0.7,0-1.3-0.1-1.9-0.3
	c-0.4-0.1-0.8-0.4-1-0.6s-0.3-0.6-0.3-0.9c0-0.2,0.1-0.5,0.2-0.7s0.3-0.4,0.6-0.6c-0.2-0.1-0.3-0.3-0.4-0.4s-0.1-0.3-0.1-0.4
	c0-0.2,0.1-0.4,0.2-0.6S245.2,269.7,245.5,269.5L245.5,269.5z M247.2,269.3c0.5,0,1-0.2,1.3-0.5c0.3-0.3,0.5-0.7,0.5-1.1
	c0-0.4-0.2-0.7-0.5-1c-0.3-0.3-0.7-0.4-1.3-0.4c-0.6,0-1,0.1-1.3,0.4s-0.5,0.6-0.5,1.1s0.2,0.8,0.5,1.1S246.7,269.3,247.2,269.3
	L247.2,269.3z M245.9,271.7c-0.3,0.2-0.5,0.3-0.6,0.5s-0.2,0.3-0.2,0.5c0,0.2,0.1,0.5,0.4,0.7c0.4,0.3,1.1,0.4,1.9,0.4
	s1.4-0.1,1.7-0.4c0.2-0.2,0.4-0.4,0.4-0.6c0-0.3-0.2-0.6-0.7-0.7C248.4,271.9,247.4,271.7,245.9,271.7L245.9,271.7z M251.9,263.1
	h0.9v3.3c0.7-0.4,1.2-0.6,1.5-0.7s0.6-0.1,0.9-0.1c0.5,0,0.9,0.2,1.2,0.5c0.3,0.4,0.5,0.9,0.5,1.6v4.3H256v-4.5
	c0-0.4-0.1-0.6-0.3-0.8s-0.5-0.3-0.8-0.3c-0.3,0-0.6,0.1-1,0.2s-0.8,0.3-1.2,0.6v4.9h-0.9V263.1z M258.7,266.8
	c0.4-0.4,0.8-0.7,1.3-0.9c0.5-0.2,0.9-0.3,1.4-0.3c0.5,0,1,0.1,1.3,0.3c0.4,0.2,0.6,0.5,0.8,0.9c0.1,0.3,0.2,0.6,0.2,1v2.7
	c0,0.5,0.1,1,0.2,1.5h-0.9c-0.1-0.4-0.2-0.7-0.2-1.1c-0.4,0.4-0.8,0.7-1.2,0.9c-0.4,0.2-0.8,0.3-1.2,0.3c-0.5,0-1-0.2-1.3-0.5
	c-0.3-0.3-0.5-0.7-0.5-1.2c0-0.4,0.1-0.8,0.4-1.1c0.3-0.3,0.6-0.6,1.2-0.8c0.4-0.1,1.3-0.4,2.7-0.7v-0.4c0-0.3-0.1-0.6-0.3-0.8
	c-0.2-0.2-0.5-0.3-0.9-0.3c-0.3,0-0.7,0.1-1,0.2c-0.3,0.2-0.7,0.4-1.2,0.8L258.7,266.8z M262.8,270.5v-2c-0.9,0.2-1.6,0.4-1.9,0.5
	c-0.5,0.2-0.8,0.4-1.1,0.6s-0.3,0.5-0.3,0.8c0,0.3,0.1,0.5,0.3,0.7s0.5,0.3,0.8,0.3c0.3,0,0.6-0.1,1-0.2
	C261.9,271,262.3,270.8,262.8,270.5L262.8,270.5z M266.6,266.5c0.5-0.3,0.9-0.5,1.3-0.6c0.4-0.1,0.8-0.2,1.1-0.2
	c0.3,0,0.6,0.1,0.8,0.2c0.3,0.1,0.5,0.3,0.7,0.7c0.2,0.3,0.3,0.7,0.3,1.2v4.4h-0.9v-4.4c0-0.4-0.1-0.8-0.3-1
	c-0.2-0.2-0.5-0.3-0.8-0.3c-0.3,0-0.6,0.1-1,0.2c-0.4,0.1-0.8,0.3-1.2,0.6v4.9h-0.9v-6.3h0.9V266.5z"/>
<path id="text7420" d="M323.2,274.2h1.5l2.6,7.2l2.6-7.2h1.5v8.9h-0.8V275l-2.9,8.1h-0.5L324,275v8.1h-0.9V274.2z M333.3,277.8
	c0.4-0.4,0.8-0.7,1.3-0.9s0.9-0.3,1.4-0.3c0.5,0,1,0.1,1.3,0.3s0.6,0.5,0.8,0.9c0.1,0.3,0.2,0.6,0.2,1v2.7c0,0.5,0.1,1,0.2,1.5h-0.9
	c-0.1-0.4-0.2-0.7-0.2-1.1c-0.4,0.4-0.8,0.7-1.2,0.9s-0.8,0.3-1.2,0.3c-0.5,0-1-0.2-1.3-0.5s-0.5-0.7-0.5-1.2c0-0.4,0.1-0.8,0.4-1.1
	s0.6-0.6,1.2-0.8c0.4-0.1,1.3-0.4,2.7-0.7v-0.4c0-0.3-0.1-0.6-0.3-0.8s-0.5-0.3-0.9-0.3c-0.3,0-0.7,0.1-1,0.2s-0.7,0.4-1.2,0.8
	L333.3,277.8z M337.4,281.5v-2c-0.9,0.2-1.6,0.4-1.9,0.5c-0.5,0.2-0.8,0.4-1.1,0.6s-0.3,0.5-0.3,0.8c0,0.3,0.1,0.5,0.3,0.7
	s0.5,0.3,0.8,0.3c0.3,0,0.6-0.1,1-0.2S336.9,281.8,337.4,281.5L337.4,281.5z M341.3,278.2c0.4-0.5,0.7-0.9,1.1-1.2s0.8-0.4,1.3-0.4
	c0.1,0,0.1,0,0.2,0l-0.1,0.9l-0.3,0c-0.2,0-0.5,0-0.8,0.2s-0.5,0.3-0.8,0.6s-0.4,0.6-0.5,1s-0.2,0.7-0.2,1v2.8h-0.9v-6.3h0.9V278.2z
	 M345.2,274.2h0.9v5.8l2.9-3.2h1.1L348,279l2.3,4.1h-0.9l-1.9-3.5l-1.4,1.5v2.1h-0.9V274.2z M351.8,274.2h0.9v3.3
	c0.7-0.4,1.2-0.6,1.5-0.7s0.6-0.1,0.9-0.1c0.5,0,0.9,0.2,1.2,0.5s0.5,0.9,0.5,1.6v4.3h-0.9v-4.5c0-0.4-0.1-0.6-0.3-0.8
	s-0.5-0.3-0.8-0.3c-0.3,0-0.6,0.1-1,0.2s-0.8,0.3-1.2,0.6v4.9h-0.9V274.2z M358.6,277.8c0.4-0.4,0.8-0.7,1.3-0.9s0.9-0.3,1.4-0.3
	c0.5,0,1,0.1,1.3,0.3s0.6,0.5,0.8,0.9c0.1,0.3,0.2,0.6,0.2,1v2.7c0,0.5,0.1,1,0.2,1.5h-0.9c-0.1-0.4-0.2-0.7-0.2-1.1
	c-0.4,0.4-0.8,0.7-1.2,0.9s-0.8,0.3-1.2,0.3c-0.5,0-1-0.2-1.3-0.5s-0.5-0.7-0.5-1.2c0-0.4,0.1-0.8,0.4-1.1s0.6-0.6,1.2-0.8
	c0.4-0.1,1.3-0.4,2.7-0.7v-0.4c0-0.3-0.1-0.6-0.3-0.8s-0.5-0.3-0.9-0.3c-0.3,0-0.7,0.1-1,0.2s-0.7,0.4-1.2,0.8L358.6,277.8z
	 M362.6,281.5v-2c-0.9,0.2-1.6,0.4-1.9,0.5c-0.5,0.2-0.8,0.4-1.1,0.6s-0.3,0.5-0.3,0.8c0,0.3,0.1,0.5,0.3,0.7s0.5,0.3,0.8,0.3
	c0.3,0,0.6-0.1,1-0.2S362.2,281.8,362.6,281.5L362.6,281.5z M366.5,277.8c0.7-0.5,1.3-0.8,1.6-0.9s0.7-0.2,1-0.2
	c0.3,0,0.6,0.1,0.9,0.3s0.4,0.5,0.6,0.9c0.7-0.5,1.3-0.8,1.6-0.9s0.7-0.2,1-0.2c0.4,0,0.8,0.1,1.1,0.4c0.4,0.4,0.6,0.8,0.6,1.4v4.7
	h-0.9v-4.4c0-0.4-0.1-0.7-0.3-0.9s-0.4-0.3-0.7-0.3c-0.2,0-0.5,0.1-0.9,0.2s-0.8,0.4-1.4,0.9v4.6h-0.9v-4.4c0-0.4-0.1-0.7-0.3-0.9
	s-0.4-0.3-0.7-0.3c-0.3,0-0.6,0.1-0.9,0.2s-0.8,0.4-1.4,0.9v4.6h-0.9v-6.3h0.9V277.8z"/>
<path id="text7424" sodipodi:nodetypes="cccccccccccccccccsssccccssscccccccccccccccccccccssccsscccccccssssssssccsssssscccccsssccccssscccccccsssccccccsssscccsscccssscccccccssssssssccsssssscccccsssccccsssccccccccccsssssssssssssccsssssssssssscccccccccssccsscccccccssssssssscccssssssscccccsssccccccssssccccssccsscccccccccccccssccssccccccccccccccccccccccccccccccccccccccccssssssssccssscccssscc" d="
	M341.7,191.6l0.5,0.6l-4.2,6l6.6-3.1l0.6,0.7l-4.2,6l6.6-3.1l0.5,0.6l-8.3,3.9l-0.5-0.6l4.3-6.2l-6.8,3.2l-0.5-0.6L341.7,191.6z
	 M349.1,200.4l0.6,0.7l-2.5,2.1c0.7,0.3,1.3,0.6,1.5,0.7c0.3,0.2,0.5,0.4,0.7,0.6c0.3,0.4,0.5,0.8,0.4,1.3c-0.1,0.5-0.4,0.9-0.9,1.4
	l-3.3,2.8l-0.6-0.7l3.5-2.9c0.3-0.2,0.4-0.5,0.5-0.8s-0.1-0.5-0.3-0.8c-0.2-0.2-0.5-0.4-0.8-0.6c-0.3-0.2-0.7-0.4-1.2-0.6l-3.7,3.1
	l-0.6-0.7L349.1,200.4z M353.7,206l0.6,0.7l-0.8,0.7l-0.6-0.7L353.7,206z M351.8,207.6l0.6,0.7l-4.8,4.1l-0.6-0.7L351.8,207.6z
	 M355.9,208.9l0.5,0.6l-1.8,1.5l1,1.2l-0.6,0.5l-1-1.2l-3,2.5c-0.2,0.2-0.4,0.4-0.4,0.7s0.1,0.5,0.2,0.7c0.1,0.1,0.3,0.3,0.5,0.4
	l-0.6,0.5c-0.2-0.2-0.4-0.4-0.5-0.5c-0.4-0.5-0.6-0.9-0.5-1.2s0.3-0.7,0.7-1.1l3.1-2.6l-0.7-0.8l0.6-0.5l0.7,0.8L355.9,208.9z
	 M356,220.4c-0.6,0.1-1.1,0.1-1.5,0c-0.6-0.1-1-0.4-1.4-0.8c-0.3-0.4-0.5-0.8-0.6-1.3c-0.1-0.5,0-1,0.2-1.5s0.6-1,1.1-1.4
	c0.8-0.6,1.5-1,2.3-0.9c0.8,0,1.4,0.3,1.9,0.9c0.3,0.4,0.5,0.8,0.6,1.3c0.1,0.5,0,1-0.2,1.6l-0.8-0.3c0.2-0.5,0.3-0.9,0.3-1.2
	c0-0.4-0.1-0.7-0.4-0.9c-0.3-0.4-0.8-0.6-1.4-0.6c-0.6,0-1.2,0.3-1.9,0.8c-0.6,0.5-0.9,1-1,1.6c-0.1,0.6,0,1,0.3,1.4
	c0.5,0.6,1.2,0.7,2.1,0.5L356,220.4z M362.7,216.9l0.6,0.7l-2.5,2.1c0.7,0.3,1.3,0.6,1.5,0.7c0.3,0.2,0.5,0.4,0.7,0.6
	c0.3,0.4,0.5,0.8,0.4,1.3c-0.1,0.5-0.4,0.9-0.9,1.4l-3.3,2.8l-0.6-0.7l3.5-2.9c0.3-0.2,0.4-0.5,0.5-0.8s-0.1-0.5-0.3-0.8
	c-0.2-0.2-0.5-0.4-0.8-0.6c-0.3-0.2-0.7-0.4-1.2-0.6l-3.7,3.1l-0.6-0.7L362.7,216.9z M365.3,223.9l0.6,0.7l-3.2,2.7
	c-0.3,0.3-0.5,0.6-0.6,0.9c-0.1,0.3,0,0.6,0.2,0.9c0.2,0.2,0.4,0.4,0.8,0.5c0.3,0.2,0.8,0.3,1.5,0.4l3.4-2.9l0.6,0.7l-4.8,4.1
	l-0.6-0.7l0.8-0.7c-0.6-0.1-1.1-0.3-1.5-0.4c-0.4-0.2-0.7-0.4-0.9-0.6c-0.2-0.2-0.3-0.5-0.4-0.8c-0.1-0.3,0-0.6,0.1-0.9
	c0.1-0.3,0.4-0.7,0.8-1L365.3,223.9z M369.4,231.1c0.6-0.1,1.2-0.1,1.6,0.1c0.4,0.1,0.8,0.4,1.1,0.8c0,0,0.1,0.1,0.1,0.2l-0.8,0.5
	l-0.2-0.2c-0.1-0.2-0.3-0.3-0.6-0.5c-0.3-0.1-0.6-0.2-0.9-0.2c-0.3,0-0.7,0.1-1.1,0.2c-0.4,0.2-0.7,0.3-0.9,0.5l-2.1,1.8l-0.6-0.7
	l4.8-4.1l0.6,0.7L369.4,231.1z M372.5,239.9c-0.6,0.1-1.1,0.1-1.5,0c-0.6-0.1-1-0.4-1.4-0.8c-0.3-0.4-0.5-0.8-0.6-1.3
	c-0.1-0.5,0-1,0.2-1.5c0.2-0.5,0.6-1,1.1-1.4c0.8-0.6,1.5-1,2.3-0.9c0.8,0,1.4,0.3,1.9,0.9c0.3,0.4,0.5,0.8,0.6,1.3s0,1-0.2,1.6
	l-0.8-0.3c0.2-0.5,0.3-0.9,0.3-1.2s-0.1-0.7-0.4-0.9c-0.3-0.4-0.8-0.6-1.4-0.6c-0.6,0-1.2,0.3-1.9,0.8c-0.6,0.5-0.9,1-1,1.6
	c-0.1,0.6,0,1,0.3,1.4c0.5,0.6,1.2,0.7,2.1,0.5L372.5,239.9z M379.2,236.4l0.6,0.7l-2.5,2.1c0.7,0.3,1.3,0.6,1.5,0.7
	c0.3,0.2,0.5,0.4,0.7,0.6c0.3,0.4,0.5,0.8,0.4,1.3c-0.1,0.5-0.4,0.9-0.9,1.4l-3.3,2.8l-0.6-0.7l3.5-2.9c0.3-0.2,0.4-0.5,0.5-0.8
	c0-0.3-0.1-0.5-0.3-0.8c-0.2-0.2-0.5-0.4-0.8-0.6c-0.3-0.2-0.7-0.4-1.2-0.6l-3.7,3.1l-0.6-0.7L379.2,236.4z M379.7,245.2l1.1,1.3
	l-0.7,0.6l-1.1-1.3L379.7,245.2z M331.1,206.1c-0.2,0.3-0.3,0.6-0.4,0.8c-0.1,0.4-0.1,0.7-0.1,1.1c0.1,0.4,0.3,0.7,0.6,1.1
	c0.4,0.5,0.9,0.8,1.4,0.9c0.5,0.1,0.9,0,1.3-0.3c0.3-0.3,0.5-0.6,0.5-1.1c0-0.3-0.2-0.9-0.5-1.6c-0.5-1-0.7-1.8-0.7-2.4
	c0-0.6,0.2-1.1,0.7-1.5c0.5-0.4,1.1-0.6,1.8-0.5c0.7,0.1,1.3,0.4,1.8,1.1c0.3,0.4,0.6,0.8,0.7,1.3c0.1,0.5,0.2,0.9,0.1,1.4
	c-0.1,0.3-0.2,0.7-0.5,1l-0.8-0.5c0.3-0.5,0.4-0.9,0.4-1.4c0-0.5-0.2-0.9-0.5-1.3c-0.4-0.4-0.8-0.7-1.2-0.7c-0.4-0.1-0.8,0-1.1,0.3
	c-0.3,0.2-0.4,0.5-0.4,0.9c0,0.4,0.1,1,0.5,1.9c0.5,1,0.7,1.8,0.6,2.4c-0.1,0.6-0.3,1.1-0.8,1.5c-0.5,0.5-1.2,0.6-1.9,0.5
	c-0.7-0.1-1.4-0.5-2-1.2c-0.4-0.4-0.6-0.9-0.8-1.4c-0.1-0.5-0.1-1,0-1.5c0.1-0.3,0.3-0.7,0.5-1.1L331.1,206.1z M340.7,208l0.5,0.6
	l-1.8,1.5l1,1.2l-0.6,0.5l-1-1.2l-3,2.5c-0.2,0.2-0.4,0.4-0.4,0.7c0,0.2,0.1,0.5,0.2,0.7c0.1,0.1,0.3,0.3,0.5,0.4l-0.6,0.5
	c-0.2-0.2-0.4-0.4-0.5-0.5c-0.4-0.5-0.6-0.9-0.5-1.2c0-0.4,0.3-0.7,0.7-1.1l3.1-2.6l-0.7-0.8l0.6-0.5l0.7,0.8L340.7,208z
	 M338.1,218.5c-0.5-0.6-0.7-1.3-0.6-2.1s0.5-1.5,1.3-2.2c0.5-0.4,1-0.7,1.6-0.9c0.6-0.1,1.1-0.1,1.5,0s0.9,0.4,1.2,0.8
	c0.3,0.4,0.5,0.8,0.6,1.3c0.1,0.5,0,1-0.2,1.5s-0.6,1-1.1,1.4c-0.8,0.6-1.5,0.9-2.3,0.9C339.2,219.4,338.6,219.1,338.1,218.5
	L338.1,218.5z M338.6,218c0.3,0.4,0.8,0.6,1.4,0.6c0.6,0,1.2-0.3,1.8-0.8c0.6-0.5,1-1.1,1.1-1.6c0.1-0.6,0-1-0.4-1.4
	c-0.4-0.4-0.8-0.6-1.4-0.6c-0.6,0-1.2,0.3-1.8,0.8c-0.6,0.5-1,1.1-1.1,1.7C338.2,217.1,338.3,217.6,338.6,218L338.6,218z
	 M345.9,217.7l0.6,0.7l-3.2,2.7c-0.3,0.3-0.5,0.6-0.6,0.9c-0.1,0.3,0,0.6,0.2,0.9c0.2,0.2,0.4,0.4,0.8,0.5s0.8,0.3,1.5,0.4l3.4-2.9
	l0.6,0.7l-4.8,4.1l-0.6-0.7l0.8-0.7c-0.6-0.1-1.1-0.3-1.5-0.4c-0.4-0.2-0.7-0.4-0.9-0.6c-0.2-0.2-0.3-0.5-0.4-0.8
	c-0.1-0.3,0-0.6,0.1-0.9c0.1-0.3,0.4-0.7,0.8-1L345.9,217.7z M350.8,223.5l0.8-0.6c0.4-0.3,0.8-0.4,1.2-0.4c0.4,0.1,0.8,0.3,1.2,0.7
	c0.1,0.1,0.2,0.2,0.3,0.4l-0.6,0.5c-0.1-0.1-0.2-0.3-0.2-0.3c-0.2-0.2-0.4-0.4-0.6-0.4c-0.2,0-0.4,0.1-0.7,0.2l-0.7,0.6l0.8,1
	l-0.6,0.5l-0.8-1l-4.2,3.6l-0.5-0.6l4.2-3.6l-0.8-0.9l0.6-0.5L350.8,223.5z M353.3,226.5l0.8-0.6c0.4-0.3,0.8-0.4,1.2-0.4
	s0.8,0.3,1.2,0.7c0.1,0.1,0.2,0.2,0.3,0.4l-0.6,0.5c-0.1-0.1-0.2-0.3-0.2-0.3c-0.2-0.2-0.4-0.4-0.6-0.4c-0.2,0-0.4,0.1-0.7,0.2
	l-0.7,0.6l0.8,1l-0.6,0.5l-0.8-1l-4.2,3.6l-0.5-0.6l4.2-3.6l-0.8-0.9l0.6-0.5L353.3,226.5z M355,228.5l0.6,0.7l-2.7,4.6l5-1.9
	l0.6,0.7l-6.2,2.4l-0.6-0.7L355,228.5z M361.3,232.1l0.6,0.7l-0.8,0.7l-0.6-0.7L361.3,232.1z M359.4,233.7l0.6,0.7l-4.8,4.1
	l-0.6-0.7L359.4,233.7z M363.5,234.6l0.6,0.7l-6.8,5.7l-0.6-0.7L363.5,234.6z M365.7,237.2l0.6,0.7l-6.8,5.7l-0.6-0.7L365.7,237.2z
	 M365.2,248.2c-0.6,0-1.2,0-1.7-0.2s-0.9-0.4-1.2-0.8c-0.5-0.6-0.7-1.2-0.6-2c0.1-0.8,0.6-1.5,1.4-2.2c0.8-0.6,1.5-1,2.3-0.9
	c0.8,0,1.4,0.3,1.9,0.8c0.3,0.4,0.5,0.8,0.6,1.3s0,1-0.2,1.5c-0.2,0.5-0.6,0.9-1.2,1.4l-2.9-3.4c-0.4,0.3-0.6,0.7-0.8,1
	c-0.2,0.4-0.3,0.8-0.2,1.1c0,0.4,0.2,0.6,0.3,0.8c0.4,0.5,1.2,0.8,2.2,0.7L365.2,248.2z M366.5,245.9c0.4-0.4,0.6-0.9,0.7-1.4
	c0-0.5-0.1-0.9-0.4-1.2c-0.3-0.4-0.8-0.6-1.3-0.6c-0.5,0-0.9,0.2-1.3,0.5L366.5,245.9z"/>
<path id="text7430" d="M215.7,214.7h0.9v4.6l4.1-4.6h1.1l-3.1,3.4l3.5,5.5h-1l-3.1-4.9l-1.6,1.8v3.1h-0.9V214.7z M223.7,214.8h0.9v1
	h-0.9V214.8z M223.7,217.3h0.9v6.3h-0.9V217.3z M227.7,218c0.5-0.3,0.9-0.5,1.3-0.6c0.4-0.1,0.8-0.2,1.1-0.2c0.3,0,0.6,0.1,0.8,0.2
	s0.5,0.3,0.7,0.7s0.3,0.7,0.3,1.2v4.4h-0.9v-4.4c0-0.4-0.1-0.8-0.3-1c-0.2-0.2-0.5-0.3-0.8-0.3c-0.3,0-0.6,0.1-1,0.2
	c-0.4,0.1-0.8,0.3-1.2,0.6v4.9h-0.9v-6.3h0.9V218z M234.5,221.1c-0.3-0.2-0.5-0.5-0.6-0.8s-0.2-0.6-0.2-0.9c0-0.6,0.2-1.2,0.7-1.6
	s1.1-0.6,1.9-0.6c0.3,0,0.6,0,0.9,0.1c0.3,0.1,0.6,0.2,0.8,0.4c0.4-0.2,1-0.4,1.6-0.4v0.8l-0.3,0c-0.4,0-0.7,0-0.9,0.1
	c0.2,0.4,0.3,0.7,0.3,1.2c0,0.7-0.2,1.2-0.7,1.7c-0.5,0.4-1.1,0.7-1.9,0.7c-0.2,0-0.5,0-0.8-0.1c-0.2,0-0.3,0-0.3,0
	c-0.2,0-0.3,0-0.4,0.1s-0.2,0.2-0.2,0.3c0,0.1,0.1,0.3,0.3,0.4c0.1,0,0.3,0.1,0.8,0.1c1.1,0,1.9,0.1,2.4,0.3s0.9,0.4,1.1,0.7
	c0.2,0.3,0.3,0.6,0.3,0.9c0,0.3-0.1,0.7-0.3,0.9c-0.2,0.3-0.5,0.5-1,0.6s-0.9,0.2-1.4,0.2c-0.7,0-1.3-0.1-1.9-0.3
	c-0.4-0.1-0.8-0.4-1-0.6s-0.3-0.6-0.3-0.9c0-0.2,0.1-0.5,0.2-0.7s0.3-0.4,0.6-0.6c-0.2-0.1-0.3-0.3-0.4-0.4s-0.1-0.3-0.1-0.4
	c0-0.2,0.1-0.4,0.2-0.6S234.2,221.2,234.5,221.1L234.5,221.1z M236.3,220.8c0.5,0,1-0.2,1.3-0.5c0.3-0.3,0.5-0.7,0.5-1.1
	c0-0.4-0.2-0.7-0.5-1s-0.7-0.4-1.3-0.4c-0.6,0-1,0.1-1.3,0.4c-0.3,0.3-0.5,0.6-0.5,1.1s0.2,0.8,0.5,1.1
	C235.3,220.7,235.7,220.8,236.3,220.8L236.3,220.8z M234.9,223.2c-0.3,0.2-0.5,0.3-0.6,0.5s-0.2,0.3-0.2,0.5c0,0.2,0.1,0.5,0.4,0.7
	c0.4,0.3,1.1,0.4,1.9,0.4s1.4-0.1,1.7-0.4c0.2-0.2,0.4-0.4,0.4-0.6c0-0.3-0.2-0.6-0.7-0.7S236.4,223.3,234.9,223.2L234.9,223.2z"/>
<path id="text7434" d="M331.2,137.9h5.2v0.8H332v2.9h3.3v0.9H332v3.4h4.8v0.9h-5.7V137.9z M338.2,141.6c0.4-0.4,0.8-0.7,1.3-0.9
	s0.9-0.3,1.4-0.3c0.5,0,1,0.1,1.3,0.3s0.6,0.5,0.8,0.9c0.1,0.3,0.2,0.6,0.2,1v2.7c0,0.5,0.1,1,0.2,1.5h-0.9
	c-0.1-0.4-0.2-0.7-0.2-1.1c-0.4,0.4-0.8,0.7-1.2,0.9s-0.8,0.3-1.2,0.3c-0.5,0-1-0.2-1.3-0.5s-0.5-0.7-0.5-1.2c0-0.4,0.1-0.8,0.4-1.1
	s0.6-0.6,1.2-0.8c0.4-0.1,1.3-0.4,2.7-0.7v-0.4c0-0.3-0.1-0.6-0.3-0.8s-0.5-0.3-0.9-0.3c-0.3,0-0.7,0.1-1,0.2s-0.7,0.4-1.2,0.8
	L338.2,141.6z M342.3,145.2v-2c-0.9,0.2-1.6,0.4-1.9,0.5c-0.5,0.2-0.8,0.4-1.1,0.6s-0.3,0.5-0.3,0.8c0,0.3,0.1,0.5,0.3,0.7
	s0.5,0.3,0.8,0.3c0.3,0,0.6-0.1,1-0.2S341.8,145.5,342.3,145.2L342.3,145.2z M345.4,143.1c-0.3-0.3-0.5-0.7-0.5-1.1
	c0-0.5,0.2-0.9,0.6-1.2c0.4-0.3,0.9-0.5,1.6-0.5c0.4,0,0.9,0.1,1.3,0.2c0.4,0.2,0.7,0.4,1,0.7l-0.7,0.5c-0.2-0.3-0.5-0.5-0.8-0.6
	s-0.6-0.2-0.9-0.2c-0.4,0-0.7,0.1-1,0.3c-0.2,0.2-0.3,0.4-0.3,0.6c0,0.2,0.1,0.4,0.3,0.6c0.2,0.2,0.6,0.3,1.2,0.5
	c1,0.2,1.6,0.5,1.9,0.9s0.5,0.7,0.5,1.2c0,0.5-0.2,0.9-0.6,1.3s-0.9,0.5-1.6,0.5c-0.5,0-1-0.1-1.4-0.3s-0.9-0.5-1.3-0.9l0.7-0.5
	c0.4,0.4,0.7,0.6,1,0.8s0.6,0.2,1,0.2c0.4,0,0.8-0.1,1-0.3s0.4-0.5,0.4-0.7c0-0.2-0.1-0.4-0.3-0.6c-0.3-0.2-0.8-0.5-1.5-0.7
	c-0.5-0.1-0.9-0.3-1.2-0.4C345.6,143.3,345.5,143.2,345.4,143.1L345.4,143.1z M351.8,138.2h0.8v2.3h1.6v0.8h-1.6v3.9
	c0,0.3,0.1,0.6,0.3,0.8s0.4,0.3,0.7,0.3c0.2,0,0.4,0,0.6-0.1v0.8c-0.3,0-0.5,0.1-0.7,0.1c-0.6,0-1-0.1-1.3-0.4s-0.4-0.7-0.4-1.2
	v-4.1h-1.1v-0.8h1.1V138.2z M315.3,156.4c-0.3,0.4-0.7,0.8-1.1,1c-0.4,0.2-0.9,0.3-1.4,0.3c-1,0-1.8-0.4-2.5-1.1
	c-0.7-0.8-1.1-2-1.1-3.5c0-1.5,0.4-2.7,1.1-3.4s1.6-1.2,2.6-1.2c0.6,0,1.1,0.1,1.6,0.4s0.9,0.6,1.2,1c0.2,0.3,0.4,0.8,0.6,1.3
	l-0.9,0.2c-0.1-0.4-0.2-0.7-0.4-0.9c-0.2-0.4-0.5-0.7-0.8-0.9s-0.7-0.3-1.1-0.3c-0.7,0-1.4,0.3-1.9,1c-0.5,0.6-0.8,1.6-0.8,2.8
	c0,0.7,0.1,1.4,0.3,2s0.6,1.1,1,1.4s0.9,0.5,1.4,0.5c0.4,0,0.8-0.1,1.1-0.3s0.6-0.4,0.8-0.7s0.3-0.5,0.4-0.8s0.1-0.6,0.1-1.1h-2.2
	v-0.9h3.1v4.3h-0.8V156.4z M317.4,151.3h0.8l1.4,4.6l1.5-4.6h0.7l1.5,4.7l1.5-4.7h0.8l-2,6.3h-0.6l-1.5-4.8l-1.5,4.8h-0.6
	L317.4,151.3z M327.1,148.8h0.9v1h-0.9V148.8z M327.1,151.3h0.9v6.3h-0.9V151.3z M330.5,148.7h0.9v8.9h-0.9V148.7z M333.8,148.7h0.9
	v8.9h-0.9V148.7z M337.2,148.8h0.9v1h-0.9V148.8z M337.2,151.3h0.9v6.3h-0.9V151.3z M341.3,152.3c0.7-0.5,1.3-0.8,1.6-0.9
	c0.3-0.1,0.7-0.2,1-0.2c0.3,0,0.6,0.1,0.9,0.3s0.4,0.5,0.6,0.9c0.7-0.5,1.3-0.8,1.6-0.9s0.7-0.2,1-0.2c0.4,0,0.8,0.1,1.1,0.4
	c0.4,0.4,0.6,0.8,0.6,1.4v4.7h-0.9v-4.4c0-0.4-0.1-0.7-0.3-0.9s-0.4-0.3-0.7-0.3c-0.2,0-0.5,0.1-0.9,0.2c-0.3,0.1-0.8,0.4-1.4,0.9
	v4.6h-0.9v-4.4c0-0.4-0.1-0.7-0.3-0.9s-0.4-0.3-0.7-0.3c-0.3,0-0.6,0.1-0.9,0.2s-0.8,0.4-1.4,0.9v4.6h-0.9v-6.3h0.9V152.3z
	 M351.7,148.7h0.8v3.4c0.3-0.3,0.6-0.5,1-0.7s0.8-0.3,1.1-0.3c0.7,0,1.3,0.3,1.8,0.9s0.8,1.4,0.8,2.4c0,0.6-0.1,1.2-0.3,1.7
	s-0.6,0.9-1,1.2s-0.9,0.4-1.3,0.4c-0.4,0-0.7-0.1-1-0.2c-0.3-0.1-0.7-0.4-1.1-0.7v0.8h-0.8V148.7z M352.6,156
	c0.4,0.3,0.8,0.6,1.1,0.7s0.6,0.2,0.9,0.2c0.5,0,1-0.2,1.3-0.6s0.5-1.1,0.5-1.9c0-0.8-0.2-1.4-0.6-1.9s-0.8-0.6-1.4-0.6
	c-0.3,0-0.7,0.1-1,0.2s-0.7,0.4-1,0.7V156z M359,151.3h0.9v4.1c0,0.5,0.1,0.8,0.3,1.1s0.5,0.4,0.8,0.4c0.3,0,0.6-0.1,0.9-0.2
	c0.3-0.2,0.7-0.4,1.2-0.9v-4.5h0.9v6.3h-0.9v-1c-0.5,0.4-0.9,0.7-1.3,0.9s-0.8,0.3-1.1,0.3c-0.3,0-0.6-0.1-0.9-0.2s-0.5-0.4-0.7-0.7
	s-0.3-0.7-0.3-1.2V151.3z M367.1,152.7c0.4-0.5,0.7-0.9,1.1-1.2s0.8-0.4,1.3-0.4c0.1,0,0.1,0,0.2,0l-0.1,0.9l-0.3,0
	c-0.2,0-0.5,0-0.8,0.2c-0.3,0.1-0.5,0.3-0.8,0.6s-0.4,0.6-0.5,1s-0.2,0.7-0.2,1v2.8h-0.9v-6.3h0.9V152.7z M370.3,151.3h0.9l2,5.1
	l1.9-5.1h0.9l-2.5,6.7c-0.2,0.7-0.4,1.1-0.6,1.3s-0.3,0.3-0.4,0.5s-0.4,0.2-0.6,0.3s-0.5,0.1-0.9,0.1c-0.2,0-0.5,0-0.8-0.1l0.2-0.8
	c0.2,0,0.4,0.1,0.6,0.1c0.5,0,0.8-0.1,1-0.3s0.4-0.6,0.6-1.2c0-0.1,0.1-0.2,0.1-0.3L370.3,151.3z"/>
<path id="path7438" class="st7" d="M312.6,116.2h69.5"/>
<path id="text7442" d="M368.3,94.5c-0.3,0.4-0.7,0.8-1.1,1s-0.9,0.3-1.4,0.3c-1,0-1.8-0.4-2.5-1.1c-0.7-0.8-1.1-2-1.1-3.5
	c0-1.5,0.4-2.7,1.1-3.4c0.7-0.8,1.6-1.2,2.6-1.2c0.6,0,1.1,0.1,1.6,0.4c0.5,0.2,0.9,0.6,1.2,1c0.2,0.3,0.4,0.8,0.6,1.3l-0.9,0.2
	c-0.1-0.4-0.2-0.7-0.4-0.9c-0.2-0.4-0.5-0.7-0.8-0.9c-0.3-0.2-0.7-0.3-1.1-0.3c-0.7,0-1.4,0.3-1.9,1c-0.5,0.6-0.8,1.6-0.8,2.8
	c0,0.7,0.1,1.4,0.3,2s0.6,1.1,1,1.4s0.9,0.5,1.4,0.5c0.4,0,0.8-0.1,1.1-0.3s0.6-0.4,0.8-0.7s0.3-0.5,0.4-0.8s0.1-0.6,0.1-1.1h-2.2
	v-0.9h3.1v4.3h-0.8V94.5z M376.1,94.2c-0.4,0.5-0.8,0.9-1.2,1.2s-0.9,0.4-1.4,0.4c-0.7,0-1.4-0.3-1.9-0.9s-0.8-1.4-0.8-2.4
	c0-1,0.3-1.8,0.8-2.4c0.5-0.6,1.1-0.9,1.8-0.9c0.5,0,0.9,0.1,1.4,0.4c0.4,0.3,0.8,0.6,1,1.1c0.2,0.5,0.3,1.1,0.3,1.8h-4.4
	c0,0.5,0.1,0.9,0.2,1.2c0.2,0.4,0.4,0.7,0.7,0.9s0.6,0.3,0.9,0.3c0.7,0,1.3-0.4,2-1.3L376.1,94.2z M375.2,91.8
	c-0.1-0.6-0.3-1.1-0.6-1.4c-0.3-0.3-0.7-0.5-1.2-0.5c-0.5,0-0.9,0.2-1.3,0.6c-0.3,0.4-0.5,0.8-0.5,1.3H375.2z M380.2,95.7
	c-0.8,0-1.5-0.3-2-0.9s-0.8-1.4-0.8-2.4c0-0.7,0.1-1.3,0.4-1.8c0.2-0.5,0.6-0.9,1-1.1c0.4-0.3,0.9-0.4,1.4-0.4
	c0.5,0,0.9,0.1,1.4,0.4c0.4,0.3,0.8,0.7,1,1.2c0.3,0.5,0.4,1.1,0.4,1.8c0,1-0.3,1.8-0.8,2.4S380.9,95.7,380.2,95.7L380.2,95.7z
	 M380.1,95c0.5,0,1-0.2,1.3-0.7s0.6-1.1,0.6-1.9c0-0.8-0.2-1.4-0.6-1.9c-0.4-0.4-0.8-0.6-1.3-0.6c-0.6,0-1,0.2-1.4,0.7
	c-0.4,0.4-0.6,1.1-0.6,1.9c0,0.8,0.2,1.5,0.6,1.9S379.6,95,380.1,95L380.1,95z M385.6,90.7c0.4-0.5,0.7-0.9,1.1-1.2
	c0.4-0.2,0.8-0.4,1.3-0.4c0.1,0,0.1,0,0.2,0l-0.1,0.9l-0.3,0c-0.2,0-0.5,0-0.8,0.2c-0.3,0.1-0.5,0.3-0.8,0.6c-0.2,0.3-0.4,0.6-0.5,1
	c-0.1,0.4-0.2,0.7-0.2,1v2.8h-0.9v-6.3h0.9V90.7z M390.1,93.1c-0.3-0.2-0.5-0.5-0.6-0.8s-0.2-0.6-0.2-0.9c0-0.6,0.2-1.2,0.7-1.6
	c0.5-0.4,1.1-0.6,1.9-0.6c0.3,0,0.6,0,0.9,0.1c0.3,0.1,0.6,0.2,0.8,0.4c0.4-0.2,1-0.4,1.6-0.4v0.8l-0.3,0c-0.4,0-0.7,0-0.9,0.1
	c0.2,0.4,0.3,0.7,0.3,1.2c0,0.7-0.2,1.2-0.7,1.7s-1.1,0.7-1.9,0.7c-0.2,0-0.5,0-0.8-0.1c-0.2,0-0.3,0-0.3,0c-0.2,0-0.3,0-0.4,0.1
	S390,93.9,390,94c0,0.1,0.1,0.3,0.3,0.4c0.1,0,0.3,0.1,0.8,0.1c1.1,0,1.9,0.1,2.4,0.3s0.9,0.4,1.1,0.7s0.3,0.6,0.3,0.9
	c0,0.3-0.1,0.7-0.3,0.9s-0.5,0.5-1,0.6s-0.9,0.2-1.4,0.2c-0.7,0-1.3-0.1-1.9-0.3c-0.4-0.1-0.8-0.4-1-0.6s-0.3-0.6-0.3-0.9
	c0-0.2,0.1-0.5,0.2-0.7s0.3-0.4,0.6-0.6c-0.2-0.1-0.3-0.3-0.4-0.4s-0.1-0.3-0.1-0.4c0-0.2,0.1-0.4,0.2-0.6S389.7,93.3,390.1,93.1
	L390.1,93.1z M391.8,92.9c0.5,0,1-0.2,1.3-0.5s0.5-0.7,0.5-1.1c0-0.4-0.2-0.7-0.5-1c-0.3-0.3-0.7-0.4-1.3-0.4c-0.6,0-1,0.1-1.3,0.4
	c-0.3,0.3-0.5,0.6-0.5,1.1c0,0.4,0.2,0.8,0.5,1.1C390.8,92.8,391.2,92.9,391.8,92.9L391.8,92.9z M390.4,95.3
	c-0.3,0.2-0.5,0.3-0.6,0.5s-0.2,0.3-0.2,0.5c0,0.2,0.1,0.5,0.4,0.7c0.4,0.3,1.1,0.4,1.9,0.4s1.4-0.1,1.7-0.4
	c0.2-0.2,0.4-0.4,0.4-0.6c0-0.3-0.2-0.6-0.7-0.7S391.9,95.3,390.4,95.3L390.4,95.3z M396.6,86.8h0.9v1h-0.9V86.8z M396.6,89.3h0.9
	v6.3h-0.9V89.3z M400.7,90c0.5-0.3,0.9-0.5,1.3-0.6c0.4-0.1,0.8-0.2,1.1-0.2c0.3,0,0.6,0.1,0.8,0.2c0.3,0.1,0.5,0.3,0.7,0.7
	c0.2,0.3,0.3,0.7,0.3,1.2v4.4H404v-4.4c0-0.4-0.1-0.8-0.3-1c-0.2-0.2-0.5-0.3-0.8-0.3c-0.3,0-0.6,0.1-1,0.2
	c-0.4,0.1-0.8,0.3-1.2,0.6v4.9h-0.9v-6.3h0.9V90z M406.6,90.4c0.4-0.4,0.8-0.7,1.3-0.9c0.5-0.2,0.9-0.3,1.4-0.3c0.5,0,1,0.1,1.3,0.3
	c0.4,0.2,0.6,0.5,0.8,0.9c0.1,0.3,0.2,0.6,0.2,1v2.7c0,0.5,0.1,1,0.2,1.5h-0.9c-0.1-0.4-0.2-0.7-0.2-1.1c-0.4,0.4-0.8,0.7-1.2,0.9
	s-0.8,0.3-1.2,0.3c-0.5,0-1-0.2-1.3-0.5s-0.5-0.7-0.5-1.2c0-0.4,0.1-0.8,0.4-1.1s0.6-0.6,1.2-0.8c0.4-0.1,1.3-0.4,2.7-0.7V91
	c0-0.3-0.1-0.6-0.3-0.8c-0.2-0.2-0.5-0.3-0.9-0.3c-0.3,0-0.7,0.1-1,0.2c-0.3,0.2-0.7,0.4-1.2,0.8L406.6,90.4z M410.7,94.1v-2
	c-0.9,0.2-1.6,0.4-1.9,0.5c-0.5,0.2-0.8,0.4-1.1,0.6s-0.3,0.5-0.3,0.8c0,0.3,0.1,0.5,0.3,0.7s0.5,0.3,0.8,0.3c0.3,0,0.6-0.1,1-0.2
	S410.3,94.4,410.7,94.1L410.7,94.1z"/>
<path id="text7450" d="M464.7,103.3h3.1c1,0,1.8,0.2,2.4,0.7c0.5,0.5,0.8,1,0.8,1.6c0,0.4-0.1,0.8-0.4,1.2s-0.7,0.7-1.2,0.9
	c0.6,0.2,1.1,0.6,1.4,1c0.3,0.4,0.5,0.8,0.5,1.2c0,0.6-0.3,1.2-0.9,1.7c-0.6,0.5-1.4,0.7-2.4,0.7h-3.2V103.3z M465.5,104.1v3.2h1.6
	c1.1,0,1.8-0.2,2.2-0.5c0.4-0.3,0.6-0.7,0.6-1.1c0-0.4-0.2-0.8-0.5-1.1c-0.4-0.3-0.9-0.5-1.6-0.5H465.5z M465.5,108v3.4h2.3
	c0.7,0,1.3-0.2,1.8-0.6c0.3-0.3,0.5-0.6,0.5-1.1c0-0.3-0.1-0.6-0.3-0.9c-0.2-0.3-0.5-0.5-0.9-0.6c-0.4-0.1-0.9-0.2-1.4-0.2H465.5z
	 M473.9,107.3c0.4-0.5,0.7-0.9,1.1-1.2c0.4-0.2,0.8-0.4,1.3-0.4c0.1,0,0.1,0,0.2,0l-0.1,0.9l-0.3,0c-0.2,0-0.5,0-0.8,0.2
	s-0.5,0.3-0.8,0.6c-0.2,0.3-0.4,0.6-0.5,1c-0.1,0.4-0.2,0.7-0.2,1v2.8h-0.9v-6.3h0.9V107.3z M480.3,112.3c-0.8,0-1.5-0.3-2-0.9
	c-0.6-0.6-0.8-1.4-0.8-2.4c0-0.7,0.1-1.3,0.4-1.8c0.2-0.5,0.6-0.9,1-1.1c0.4-0.3,0.9-0.4,1.4-0.4c0.5,0,0.9,0.1,1.4,0.4
	c0.4,0.3,0.8,0.7,1,1.2c0.3,0.5,0.4,1.1,0.4,1.8c0,1-0.3,1.8-0.8,2.4C481.7,112,481,112.3,480.3,112.3L480.3,112.3z M480.2,111.6
	c0.5,0,1-0.2,1.3-0.7c0.4-0.4,0.6-1.1,0.6-1.9c0-0.8-0.2-1.4-0.6-1.9c-0.4-0.4-0.8-0.6-1.3-0.6c-0.6,0-1,0.2-1.4,0.7
	s-0.6,1.1-0.6,1.9c0,0.8,0.2,1.5,0.6,1.9C479.2,111.3,479.7,111.6,480.2,111.6L480.2,111.6z M489.5,110.6c-0.3,0.5-0.6,0.9-0.9,1.1
	c-0.5,0.3-1,0.5-1.5,0.5c-0.5,0-1-0.1-1.4-0.4c-0.4-0.3-0.8-0.7-1-1.2c-0.2-0.5-0.4-1.1-0.4-1.7c0-1,0.3-1.8,0.8-2.4
	s1.2-0.9,1.9-0.9c0.5,0,1,0.1,1.4,0.4c0.4,0.3,0.8,0.7,1.1,1.2l-0.7,0.4c-0.2-0.4-0.5-0.8-0.8-1c-0.3-0.2-0.6-0.3-1-0.3
	c-0.5,0-1,0.2-1.3,0.7s-0.6,1.1-0.6,2c0,0.8,0.2,1.4,0.6,1.8c0.4,0.4,0.8,0.7,1.3,0.7c0.7,0,1.3-0.4,1.8-1.3L489.5,110.6z
	 M491.1,103.3h0.9v5.8l2.9-3.2h1.1l-2.1,2.2l2.3,4.1h-0.9l-1.9-3.5l-1.4,1.5v2.1h-0.9V103.3z"/>
<path id="text7454" d="M497.5,232.4c0.1,0.4,0.2,0.6,0.3,0.8c0.2,0.3,0.5,0.6,0.8,0.8s0.7,0.3,1.2,0.3c0.7,0,1.2-0.2,1.6-0.5
	s0.6-0.7,0.6-1.2c0-0.4-0.2-0.8-0.5-1.1c-0.3-0.2-0.8-0.4-1.6-0.7c-1.1-0.3-1.8-0.7-2.3-1.1c-0.5-0.4-0.7-0.9-0.7-1.5
	c0-0.7,0.3-1.2,0.8-1.7c0.5-0.5,1.2-0.7,2-0.7c0.5,0,1,0.1,1.4,0.3c0.4,0.2,0.8,0.5,1.1,0.8c0.2,0.3,0.4,0.6,0.5,1l-0.9,0.3
	c-0.2-0.5-0.4-0.9-0.8-1.2s-0.8-0.4-1.3-0.4c-0.6,0-1,0.2-1.3,0.5c-0.3,0.3-0.5,0.7-0.5,1.1c0,0.3,0.1,0.6,0.4,0.9
	c0.3,0.3,0.9,0.5,1.8,0.8c1.1,0.3,1.8,0.7,2.3,1.1c0.4,0.4,0.6,0.9,0.6,1.6c0,0.7-0.3,1.3-0.8,1.8s-1.3,0.8-2.2,0.8
	c-0.6,0-1.1-0.1-1.6-0.3s-0.9-0.5-1.2-1c-0.2-0.3-0.4-0.6-0.5-1.1L497.5,232.4z M509.5,233.4c-0.3,0.5-0.6,0.9-0.9,1.1
	c-0.5,0.3-1,0.5-1.5,0.5c-0.5,0-1-0.1-1.4-0.4s-0.8-0.7-1-1.2s-0.4-1.1-0.4-1.7c0-1,0.3-1.8,0.8-2.4s1.2-0.9,1.9-0.9
	c0.5,0,1,0.1,1.4,0.4s0.8,0.7,1.1,1.2l-0.7,0.4c-0.2-0.4-0.5-0.8-0.8-1c-0.3-0.2-0.6-0.3-1-0.3c-0.5,0-1,0.2-1.3,0.7s-0.6,1.1-0.6,2
	c0,0.8,0.2,1.4,0.6,1.8s0.8,0.7,1.3,0.7c0.7,0,1.3-0.4,1.8-1.3L509.5,233.4z M511,228.6h0.9v4.1c0,0.5,0.1,0.8,0.3,1.1
	s0.5,0.4,0.8,0.4c0.3,0,0.6-0.1,0.9-0.2s0.7-0.4,1.2-0.9v-4.5h0.9v6.3h-0.9v-1c-0.5,0.4-0.9,0.7-1.3,0.9s-0.8,0.3-1.1,0.3
	c-0.3,0-0.6-0.1-0.9-0.2s-0.5-0.4-0.7-0.7s-0.3-0.7-0.3-1.2V228.6z M518.8,232.4c-0.3-0.2-0.5-0.5-0.6-0.8s-0.2-0.6-0.2-0.9
	c0-0.6,0.2-1.2,0.7-1.6s1.1-0.6,1.9-0.6c0.3,0,0.6,0,0.9,0.1s0.6,0.2,0.8,0.4c0.4-0.2,1-0.4,1.6-0.4v0.8l-0.3,0
	c-0.4,0-0.7,0-0.9,0.1c0.2,0.4,0.3,0.7,0.3,1.2c0,0.7-0.2,1.2-0.7,1.7s-1.1,0.7-1.9,0.7c-0.2,0-0.5,0-0.8-0.1c-0.2,0-0.3,0-0.3,0
	c-0.2,0-0.3,0-0.4,0.1s-0.2,0.2-0.2,0.3c0,0.1,0.1,0.3,0.3,0.4c0.1,0,0.3,0.1,0.8,0.1c1.1,0,1.9,0.1,2.4,0.3s0.9,0.4,1.1,0.7
	s0.3,0.6,0.3,0.9c0,0.3-0.1,0.7-0.3,0.9s-0.5,0.5-1,0.6s-0.9,0.2-1.4,0.2c-0.7,0-1.3-0.1-1.9-0.3c-0.4-0.1-0.8-0.4-1-0.6
	s-0.3-0.6-0.3-0.9c0-0.2,0.1-0.5,0.2-0.7s0.3-0.4,0.6-0.6c-0.2-0.1-0.3-0.3-0.4-0.4s-0.1-0.3-0.1-0.4c0-0.2,0.1-0.4,0.2-0.6
	S518.5,232.6,518.8,232.4L518.8,232.4z M520.5,232.2c0.5,0,1-0.2,1.3-0.5s0.5-0.7,0.5-1.1c0-0.4-0.2-0.7-0.5-1s-0.7-0.4-1.3-0.4
	c-0.6,0-1,0.1-1.3,0.4c-0.3,0.3-0.5,0.6-0.5,1.1s0.2,0.8,0.5,1.1S520,232.2,520.5,232.2L520.5,232.2z M519.2,234.6
	c-0.3,0.2-0.5,0.3-0.6,0.5s-0.2,0.3-0.2,0.5c0,0.2,0.1,0.5,0.4,0.7c0.4,0.3,1.1,0.4,1.9,0.4s1.4-0.1,1.7-0.4
	c0.2-0.2,0.4-0.4,0.4-0.6c0-0.3-0.2-0.6-0.7-0.7S520.7,234.7,519.2,234.6L519.2,234.6z M527.6,235.1c-0.8,0-1.5-0.3-2-0.9
	s-0.8-1.4-0.8-2.4c0-0.7,0.1-1.3,0.4-1.8s0.6-0.9,1-1.1c0.4-0.3,0.9-0.4,1.4-0.4c0.5,0,0.9,0.1,1.4,0.4c0.4,0.3,0.8,0.7,1,1.2
	c0.3,0.5,0.4,1.1,0.4,1.8c0,1-0.3,1.8-0.8,2.4S528.3,235.1,527.6,235.1L527.6,235.1z M527.5,234.3c0.5,0,1-0.2,1.3-0.7
	s0.6-1.1,0.6-1.9c0-0.8-0.2-1.4-0.6-1.9c-0.4-0.4-0.8-0.6-1.3-0.6c-0.6,0-1,0.2-1.4,0.7c-0.4,0.4-0.6,1.1-0.6,1.9
	c0,0.8,0.2,1.5,0.6,1.9S527,234.3,527.5,234.3L527.5,234.3z M532.6,232.4c-0.3-0.2-0.5-0.5-0.6-0.8s-0.2-0.6-0.2-0.9
	c0-0.6,0.2-1.2,0.7-1.6s1.1-0.6,1.9-0.6c0.3,0,0.6,0,0.9,0.1s0.6,0.2,0.8,0.4c0.4-0.2,1-0.4,1.6-0.4v0.8l-0.3,0
	c-0.4,0-0.7,0-0.9,0.1c0.2,0.4,0.3,0.7,0.3,1.2c0,0.7-0.2,1.2-0.7,1.7s-1.1,0.7-1.9,0.7c-0.2,0-0.5,0-0.8-0.1c-0.2,0-0.3,0-0.3,0
	c-0.2,0-0.3,0-0.4,0.1s-0.2,0.2-0.2,0.3c0,0.1,0.1,0.3,0.3,0.4c0.1,0,0.3,0.1,0.8,0.1c1.1,0,1.9,0.1,2.4,0.3s0.9,0.4,1.1,0.7
	s0.3,0.6,0.3,0.9c0,0.3-0.1,0.7-0.3,0.9s-0.5,0.5-1,0.6s-0.9,0.2-1.4,0.2c-0.7,0-1.3-0.1-1.9-0.3c-0.4-0.1-0.8-0.4-1-0.6
	s-0.3-0.6-0.3-0.9c0-0.2,0.1-0.5,0.2-0.7s0.3-0.4,0.6-0.6c-0.2-0.1-0.3-0.3-0.4-0.4s-0.1-0.3-0.1-0.4c0-0.2,0.1-0.4,0.2-0.6
	S532.3,232.6,532.6,232.4L532.6,232.4z M534.3,232.2c0.5,0,1-0.2,1.3-0.5s0.5-0.7,0.5-1.1c0-0.4-0.2-0.7-0.5-1s-0.7-0.4-1.3-0.4
	c-0.6,0-1,0.1-1.3,0.4c-0.3,0.3-0.5,0.6-0.5,1.1s0.2,0.8,0.5,1.1S533.8,232.2,534.3,232.2L534.3,232.2z M533,234.6
	c-0.3,0.2-0.5,0.3-0.6,0.5s-0.2,0.3-0.2,0.5c0,0.2,0.1,0.5,0.4,0.7c0.4,0.3,1.1,0.4,1.9,0.4s1.4-0.1,1.7-0.4
	c0.2-0.2,0.4-0.4,0.4-0.6c0-0.3-0.2-0.6-0.7-0.7S534.5,234.7,533,234.6L533,234.6z"/>
<path id="text7458" d="M557.5,304.7c-0.1,0.6-0.3,1-0.6,1.4c-0.3,0.5-0.7,0.8-1.2,1.1s-1,0.4-1.6,0.4c-0.7,0-1.3-0.2-1.8-0.5
	s-1-0.9-1.3-1.6s-0.5-1.5-0.5-2.5c0-0.8,0.1-1.6,0.4-2.4s0.7-1.3,1.3-1.7s1.2-0.6,1.8-0.6c0.6,0,1.1,0.1,1.6,0.3s0.8,0.6,1.2,1
	c0.2,0.3,0.4,0.8,0.6,1.3l-0.9,0.1c-0.2-0.7-0.5-1.2-0.9-1.5s-0.9-0.5-1.4-0.5c-0.7,0-1.3,0.3-1.8,0.8c-0.6,0.7-0.8,1.7-0.8,2.9
	c0,1.3,0.3,2.3,0.9,3c0.5,0.6,1.1,0.9,1.8,0.9c0.4,0,0.8-0.1,1.2-0.3s0.6-0.5,0.9-0.9c0.1-0.2,0.3-0.6,0.4-1L557.5,304.7z
	 M559.3,298.5h0.9v8.9h-0.9V298.5z M562.2,302.2c0.4-0.4,0.8-0.7,1.3-0.9s0.9-0.3,1.4-0.3c0.5,0,1,0.1,1.3,0.3s0.6,0.5,0.8,0.9
	c0.1,0.3,0.2,0.6,0.2,1v2.7c0,0.5,0.1,1,0.2,1.5h-0.9c-0.1-0.4-0.2-0.7-0.2-1.1c-0.4,0.4-0.8,0.7-1.2,0.9s-0.8,0.3-1.2,0.3
	c-0.5,0-1-0.2-1.3-0.5s-0.5-0.7-0.5-1.2c0-0.4,0.1-0.8,0.4-1.1s0.6-0.6,1.2-0.8c0.4-0.1,1.3-0.4,2.7-0.7v-0.4c0-0.3-0.1-0.6-0.3-0.8
	s-0.5-0.3-0.9-0.3c-0.3,0-0.7,0.1-1,0.2s-0.7,0.4-1.2,0.8L562.2,302.2z M566.2,305.8v-2c-0.9,0.2-1.6,0.4-1.9,0.5
	c-0.5,0.2-0.8,0.4-1.1,0.6s-0.3,0.5-0.3,0.8c0,0.3,0.1,0.5,0.3,0.7s0.5,0.3,0.8,0.3c0.3,0,0.6-0.1,1-0.2S565.8,306.1,566.2,305.8
	L566.2,305.8z M570.1,302.5c0.4-0.5,0.7-0.9,1.1-1.2s0.8-0.4,1.3-0.4c0.1,0,0.1,0,0.2,0l-0.1,0.9l-0.3,0c-0.2,0-0.5,0-0.8,0.2
	s-0.5,0.3-0.8,0.6s-0.4,0.6-0.5,1s-0.2,0.7-0.2,1v2.8h-0.9v-6.3h0.9V302.5z M574.3,298.6h0.9v1h-0.9V298.6z M574.3,301.1h0.9v6.3
	h-0.9V301.1z M578.3,301.8c0.5-0.3,0.9-0.5,1.3-0.6s0.8-0.2,1.1-0.2c0.3,0,0.6,0.1,0.8,0.2s0.5,0.3,0.7,0.7s0.3,0.7,0.3,1.2v4.4
	h-0.9V303c0-0.4-0.1-0.8-0.3-1s-0.5-0.3-0.8-0.3c-0.3,0-0.6,0.1-1,0.2s-0.8,0.3-1.2,0.6v4.9h-0.9v-6.3h0.9V301.8z M585.1,304.9
	c-0.3-0.2-0.5-0.5-0.6-0.8s-0.2-0.6-0.2-0.9c0-0.6,0.2-1.2,0.7-1.6s1.1-0.6,1.9-0.6c0.3,0,0.6,0,0.9,0.1s0.6,0.2,0.8,0.4
	c0.4-0.2,1-0.4,1.6-0.4v0.8l-0.3,0c-0.4,0-0.7,0-0.9,0.1c0.2,0.4,0.3,0.7,0.3,1.2c0,0.7-0.2,1.2-0.7,1.7s-1.1,0.7-1.9,0.7
	c-0.2,0-0.5,0-0.8-0.1c-0.2,0-0.3,0-0.3,0c-0.2,0-0.3,0-0.4,0.1s-0.2,0.2-0.2,0.3c0,0.1,0.1,0.3,0.3,0.4c0.1,0,0.3,0.1,0.8,0.1
	c1.1,0,1.9,0.1,2.4,0.3s0.9,0.4,1.1,0.7s0.3,0.6,0.3,0.9c0,0.3-0.1,0.7-0.3,0.9s-0.5,0.5-1,0.6s-0.9,0.2-1.4,0.2
	c-0.7,0-1.3-0.1-1.9-0.3c-0.4-0.1-0.8-0.4-1-0.6s-0.3-0.6-0.3-0.9c0-0.2,0.1-0.5,0.2-0.7s0.3-0.4,0.6-0.6c-0.2-0.1-0.3-0.3-0.4-0.4
	s-0.1-0.3-0.1-0.4c0-0.2,0.1-0.4,0.2-0.6S584.8,305,585.1,304.9L585.1,304.9z M586.8,304.7c0.5,0,1-0.2,1.3-0.5s0.5-0.7,0.5-1.1
	c0-0.4-0.2-0.7-0.5-1s-0.7-0.4-1.3-0.4c-0.6,0-1,0.1-1.3,0.4s-0.5,0.6-0.5,1.1s0.2,0.8,0.5,1.1S586.3,304.7,586.8,304.7L586.8,304.7
	z M585.5,307c-0.3,0.2-0.5,0.3-0.6,0.5s-0.2,0.3-0.2,0.5c0,0.2,0.1,0.5,0.4,0.7c0.4,0.3,1.1,0.4,1.9,0.4s1.4-0.1,1.7-0.4
	c0.2-0.2,0.4-0.4,0.4-0.6c0-0.3-0.2-0.6-0.7-0.7S587,307.1,585.5,307L585.5,307z M591.9,298.8h0.8v2.3h1.6v0.8h-1.6v3.9
	c0,0.3,0.1,0.6,0.3,0.8s0.4,0.3,0.7,0.3c0.2,0,0.4,0,0.6-0.1v0.8c-0.3,0-0.5,0.1-0.7,0.1c-0.6,0-1-0.1-1.3-0.4s-0.4-0.7-0.4-1.2
	v-4.1h-1.1v-0.8h1.1V298.8z M598.3,307.5c-0.8,0-1.5-0.3-2-0.9s-0.8-1.4-0.8-2.4c0-0.7,0.1-1.3,0.4-1.8s0.6-0.9,1-1.1
	s0.9-0.4,1.4-0.4c0.5,0,0.9,0.1,1.4,0.4s0.8,0.7,1,1.2s0.4,1.1,0.4,1.8c0,1-0.3,1.8-0.8,2.4S599,307.5,598.3,307.5L598.3,307.5z
	 M598.2,306.8c0.5,0,1-0.2,1.3-0.7s0.6-1.1,0.6-1.9c0-0.8-0.2-1.4-0.6-1.9s-0.8-0.6-1.3-0.6c-0.6,0-1,0.2-1.4,0.7s-0.6,1.1-0.6,1.9
	c0,0.8,0.2,1.5,0.6,1.9S597.7,306.8,598.2,306.8L598.2,306.8z M603.6,301.8c0.5-0.3,0.9-0.5,1.3-0.6s0.8-0.2,1.1-0.2
	c0.3,0,0.6,0.1,0.8,0.2s0.5,0.3,0.7,0.7s0.3,0.7,0.3,1.2v4.4h-0.9V303c0-0.4-0.1-0.8-0.3-1s-0.5-0.3-0.8-0.3c-0.3,0-0.6,0.1-1,0.2
	s-0.8,0.3-1.2,0.6v4.9h-0.9v-6.3h0.9V301.8z"/>
<path id="text7462" d="M389.4,184.7h0.9v5.8c0,0.7,0.2,1.3,0.6,1.7s1,0.6,1.7,0.6c0.6,0,1-0.1,1.4-0.3s0.6-0.5,0.8-0.8
	s0.3-0.8,0.3-1.2v-5.8h0.9v5.8c0,1-0.3,1.8-0.9,2.4s-1.4,0.9-2.3,0.9c-0.8,0-1.4-0.2-1.9-0.5s-0.9-0.7-1.1-1.2s-0.3-1-0.3-1.4V184.7
	z M397.5,187.3h1l1.6,2.3l1.6-2.3h1l-2.1,3l2.2,3.3h-1l-1.7-2.5l-1.7,2.5h-1l2.2-3.3L397.5,187.3z M404.2,184.7h0.8v3.4
	c0.3-0.3,0.6-0.5,1-0.7c0.4-0.2,0.8-0.3,1.1-0.3c0.7,0,1.3,0.3,1.8,0.9c0.5,0.6,0.8,1.4,0.8,2.4c0,0.6-0.1,1.2-0.3,1.7
	s-0.6,0.9-1,1.2s-0.9,0.4-1.3,0.4c-0.4,0-0.7-0.1-1-0.2s-0.7-0.4-1.1-0.7v0.8h-0.8V184.7z M405.1,192c0.4,0.3,0.8,0.6,1.1,0.7
	s0.6,0.2,0.9,0.2c0.5,0,1-0.2,1.3-0.6s0.5-1.1,0.5-1.9c0-0.8-0.2-1.4-0.6-1.9s-0.8-0.6-1.4-0.6c-0.3,0-0.7,0.1-1,0.2s-0.7,0.4-1,0.7
	V192z M412.5,188.7c0.4-0.5,0.7-0.9,1.1-1.2s0.8-0.4,1.3-0.4c0.1,0,0.1,0,0.2,0l-0.1,0.9l-0.3,0c-0.2,0-0.5,0-0.8,0.2
	c-0.3,0.1-0.5,0.3-0.8,0.6s-0.4,0.6-0.5,1s-0.2,0.7-0.2,1v2.8h-0.9v-6.3h0.9V188.7z M416.6,184.8h0.9v1h-0.9V184.8z M416.6,187.3
	h0.9v6.3h-0.9V187.3z M424.1,184.7h0.8v6.9c0,0.4,0,0.7,0.1,1.1s0.1,0.7,0.2,0.8h-0.9c-0.1-0.3-0.1-0.6-0.1-0.9
	c-0.4,0.3-0.8,0.6-1.1,0.8s-0.7,0.3-1.1,0.3c-0.7,0-1.3-0.3-1.8-0.9s-0.8-1.4-0.8-2.4c0-1,0.3-1.9,0.8-2.4c0.5-0.6,1.1-0.9,1.8-0.9
	c0.4,0,0.7,0.1,1.1,0.2s0.7,0.4,1.1,0.7V184.7z M424.1,188.8c-0.4-0.3-0.7-0.5-1-0.7c-0.3-0.2-0.7-0.2-1-0.2c-0.5,0-1,0.2-1.3,0.6
	c-0.4,0.4-0.5,1-0.5,1.8c0,0.9,0.2,1.5,0.5,1.9s0.8,0.6,1.3,0.6c0.3,0,0.7-0.1,1-0.2s0.7-0.4,1-0.7V188.8z M427.7,191
	c-0.3-0.2-0.5-0.5-0.6-0.8s-0.2-0.6-0.2-0.9c0-0.6,0.2-1.2,0.7-1.6c0.5-0.4,1.1-0.6,1.9-0.6c0.3,0,0.6,0,0.9,0.1
	c0.3,0.1,0.6,0.2,0.8,0.4c0.4-0.2,1-0.4,1.6-0.4v0.8l-0.3,0c-0.4,0-0.7,0-0.9,0.1c0.2,0.4,0.3,0.7,0.3,1.2c0,0.7-0.2,1.2-0.7,1.7
	s-1.1,0.7-1.9,0.7c-0.2,0-0.5,0-0.8-0.1c-0.2,0-0.3,0-0.3,0c-0.2,0-0.3,0-0.4,0.1s-0.2,0.2-0.2,0.3c0,0.1,0.1,0.3,0.3,0.4
	c0.1,0,0.3,0.1,0.8,0.1c1.1,0,1.9,0.1,2.4,0.3s0.9,0.4,1.1,0.7s0.3,0.6,0.3,0.9c0,0.3-0.1,0.7-0.3,0.9s-0.5,0.5-1,0.6
	s-0.9,0.2-1.4,0.2c-0.7,0-1.3-0.1-1.9-0.3c-0.4-0.1-0.8-0.4-1-0.6s-0.3-0.6-0.3-0.9c0-0.2,0.1-0.5,0.2-0.7s0.3-0.4,0.6-0.6
	c-0.2-0.1-0.3-0.3-0.4-0.4s-0.1-0.3-0.1-0.4c0-0.2,0.1-0.4,0.2-0.6S427.4,191.2,427.7,191L427.7,191z M429.5,190.8
	c0.5,0,1-0.2,1.3-0.5s0.5-0.7,0.5-1.1c0-0.4-0.2-0.7-0.5-1c-0.3-0.3-0.7-0.4-1.3-0.4c-0.6,0-1,0.1-1.3,0.4s-0.5,0.6-0.5,1.1
	s0.2,0.8,0.5,1.1S428.9,190.8,429.5,190.8L429.5,190.8z M428.1,193.2c-0.3,0.2-0.5,0.3-0.6,0.5s-0.2,0.3-0.2,0.5
	c0,0.2,0.1,0.5,0.4,0.7c0.4,0.3,1.1,0.4,1.9,0.4s1.4-0.1,1.7-0.4c0.2-0.2,0.4-0.4,0.4-0.6c0-0.3-0.2-0.6-0.7-0.7
	S429.6,193.3,428.1,193.2L428.1,193.2z M439,192.1c-0.4,0.5-0.8,0.9-1.2,1.2s-0.9,0.4-1.4,0.4c-0.7,0-1.4-0.3-1.9-0.9
	s-0.8-1.4-0.8-2.4c0-1,0.3-1.8,0.8-2.4c0.5-0.6,1.1-0.9,1.8-0.9c0.5,0,0.9,0.1,1.4,0.4c0.4,0.3,0.8,0.6,1,1.1s0.3,1.1,0.3,1.8h-4.4
	c0,0.5,0.1,0.9,0.2,1.2c0.2,0.4,0.4,0.7,0.7,0.9s0.6,0.3,0.9,0.3c0.7,0,1.3-0.4,2-1.3L439,192.1z M438.1,189.7
	c-0.1-0.6-0.3-1.1-0.6-1.4s-0.7-0.5-1.2-0.5c-0.5,0-0.9,0.2-1.3,0.6s-0.5,0.8-0.5,1.3H438.1z"/>
<path id="text7466" d="M389.4,260.5h2.9c1,0,1.8,0.2,2.4,0.7s0.8,1,0.8,1.7c0,0.4-0.1,0.7-0.2,1s-0.4,0.5-0.6,0.8s-0.6,0.4-1,0.5
	s-0.9,0.2-1.5,0.2h-1.9v4h-0.9V260.5z M390.3,261.3v3.3h1.9c0.9,0,1.5-0.2,1.9-0.5s0.6-0.7,0.6-1.2c0-0.6-0.2-1-0.7-1.3
	c-0.4-0.2-1-0.3-1.8-0.3H390.3z M397.5,260.6h0.9v1h-0.9V260.6z M397.5,263.1h0.9v6.3h-0.9V263.1z M405.5,267.9
	c-0.3,0.5-0.6,0.9-0.9,1.1c-0.5,0.3-1,0.5-1.5,0.5c-0.5,0-1-0.1-1.4-0.4s-0.8-0.7-1-1.2s-0.4-1.1-0.4-1.7c0-1,0.3-1.8,0.8-2.4
	s1.2-0.9,1.9-0.9c0.5,0,1,0.1,1.4,0.4s0.8,0.7,1.1,1.2l-0.7,0.4c-0.2-0.4-0.5-0.8-0.8-1s-0.6-0.3-1-0.3c-0.5,0-1,0.2-1.3,0.7
	s-0.6,1.1-0.6,2c0,0.8,0.2,1.4,0.6,1.8s0.8,0.7,1.3,0.7c0.7,0,1.3-0.4,1.8-1.3L405.5,267.9z M407.1,260.5h0.9v5.8l2.9-3.2h1.1
	l-2.1,2.2l2.3,4.1h-0.9l-1.9-3.5l-1.4,1.5v2.1h-0.9V260.5z M418.5,268c-0.4,0.5-0.8,0.9-1.2,1.2s-0.9,0.4-1.4,0.4
	c-0.7,0-1.4-0.3-1.9-0.9s-0.8-1.4-0.8-2.4c0-1,0.3-1.8,0.8-2.4s1.1-0.9,1.8-0.9c0.5,0,0.9,0.1,1.4,0.4s0.8,0.6,1,1.1
	s0.3,1.1,0.3,1.8H414c0,0.5,0.1,0.9,0.2,1.2c0.2,0.4,0.4,0.7,0.7,0.9s0.6,0.3,0.9,0.3c0.7,0,1.3-0.4,2-1.3L418.5,268z M417.6,265.6
	c-0.1-0.6-0.3-1.1-0.6-1.4s-0.7-0.5-1.2-0.5c-0.5,0-0.9,0.2-1.3,0.6s-0.5,0.8-0.5,1.3H417.6z M421.1,264.6c0.4-0.5,0.7-0.9,1.1-1.2
	s0.8-0.4,1.3-0.4c0.1,0,0.1,0,0.2,0l-0.1,0.9l-0.3,0c-0.2,0-0.5,0-0.8,0.2s-0.5,0.3-0.8,0.6s-0.4,0.6-0.5,1s-0.2,0.7-0.2,1v2.8h-0.9
	v-6.3h0.9V264.6z M425.2,260.6h0.9v1h-0.9V260.6z M425.2,263.1h0.9v6.3h-0.9V263.1z M429.3,263.9c0.5-0.3,0.9-0.5,1.3-0.6
	s0.8-0.2,1.1-0.2c0.3,0,0.6,0.1,0.8,0.2s0.5,0.3,0.7,0.7s0.3,0.7,0.3,1.2v4.4h-0.9v-4.4c0-0.4-0.1-0.8-0.3-1s-0.5-0.3-0.8-0.3
	c-0.3,0-0.6,0.1-1,0.2s-0.8,0.3-1.2,0.6v4.9h-0.9v-6.3h0.9V263.9z M436.1,266.9c-0.3-0.2-0.5-0.5-0.6-0.8s-0.2-0.6-0.2-0.9
	c0-0.6,0.2-1.2,0.7-1.6s1.1-0.6,1.9-0.6c0.3,0,0.6,0,0.9,0.1s0.6,0.2,0.8,0.4c0.4-0.2,1-0.4,1.6-0.4v0.8l-0.3,0
	c-0.4,0-0.7,0-0.9,0.1c0.2,0.4,0.3,0.7,0.3,1.2c0,0.7-0.2,1.2-0.7,1.7s-1.1,0.7-1.9,0.7c-0.2,0-0.5,0-0.8-0.1c-0.2,0-0.3,0-0.3,0
	c-0.2,0-0.3,0-0.4,0.1s-0.2,0.2-0.2,0.3c0,0.1,0.1,0.3,0.3,0.4c0.1,0,0.3,0.1,0.8,0.1c1.1,0,1.9,0.1,2.4,0.3s0.9,0.4,1.1,0.7
	s0.3,0.6,0.3,0.9c0,0.3-0.1,0.7-0.3,0.9s-0.5,0.5-1,0.6s-0.9,0.2-1.4,0.2c-0.7,0-1.3-0.1-1.9-0.3c-0.4-0.1-0.8-0.4-1-0.6
	s-0.3-0.6-0.3-0.9c0-0.2,0.1-0.5,0.2-0.7s0.3-0.4,0.6-0.6c-0.2-0.1-0.3-0.3-0.4-0.4s-0.1-0.3-0.1-0.4c0-0.2,0.1-0.4,0.2-0.6
	S435.7,267.1,436.1,266.9L436.1,266.9z M437.8,266.7c0.5,0,1-0.2,1.3-0.5s0.5-0.7,0.5-1.1c0-0.4-0.2-0.7-0.5-1s-0.7-0.4-1.3-0.4
	c-0.6,0-1,0.1-1.3,0.4s-0.5,0.6-0.5,1.1s0.2,0.8,0.5,1.1S437.2,266.7,437.8,266.7L437.8,266.7z M436.4,269.1
	c-0.3,0.2-0.5,0.3-0.6,0.5s-0.2,0.3-0.2,0.5c0,0.2,0.1,0.5,0.4,0.7c0.4,0.3,1.1,0.4,1.9,0.4s1.4-0.1,1.7-0.4
	c0.2-0.2,0.4-0.4,0.4-0.6c0-0.3-0.2-0.6-0.7-0.7S438,269.1,436.4,269.1L436.4,269.1z"/>
<path id="text7470" d="M426.9,308.6h1.4l2.8,8.9h-0.9l-0.9-2.8h-3.6l-0.9,2.8H424L426.9,308.6z M427.6,309.2l-1.5,4.7h3L427.6,309.2
	z M432.7,308.7h0.8v1h-0.8V308.7z M432.7,311.2h0.8v7c0,0.6-0.1,1-0.4,1.3s-0.6,0.5-1.1,0.5c-0.1,0-0.2,0-0.3,0v-1
	c0.1,0,0.2,0,0.2,0c0.2,0,0.4-0.1,0.5-0.2c0.2-0.2,0.2-0.4,0.2-0.7V311.2z M435.5,312.3c0.4-0.4,0.8-0.7,1.3-0.9s0.9-0.3,1.4-0.3
	c0.5,0,1,0.1,1.3,0.3s0.6,0.5,0.8,0.9c0.1,0.3,0.2,0.6,0.2,1v2.7c0,0.5,0.1,1,0.2,1.5h-0.9c-0.1-0.4-0.2-0.7-0.2-1.1
	c-0.4,0.4-0.8,0.7-1.2,0.9s-0.8,0.3-1.2,0.3c-0.5,0-1-0.2-1.3-0.5s-0.5-0.7-0.5-1.2c0-0.4,0.1-0.8,0.4-1.1s0.6-0.6,1.2-0.8
	c0.4-0.1,1.3-0.4,2.7-0.7V313c0-0.3-0.1-0.6-0.3-0.8s-0.5-0.3-0.9-0.3c-0.3,0-0.7,0.1-1,0.2s-0.7,0.4-1.2,0.8L435.5,312.3z
	 M439.5,316v-2c-0.9,0.2-1.6,0.4-1.9,0.5c-0.5,0.2-0.8,0.4-1.1,0.6s-0.3,0.5-0.3,0.8c0,0.3,0.1,0.5,0.3,0.7s0.5,0.3,0.8,0.3
	c0.3,0,0.6-0.1,1-0.2S439.1,316.3,439.5,316L439.5,316z M441.8,311.2h1l1.6,2.3l1.6-2.3h1l-2.1,3l2.2,3.3h-1l-1.7-2.5l-1.7,2.5h-1
	l2.2-3.3L441.8,311.2z"/>
<path id="text7474" d="M458.8,273.9l0.5,0.7l-4.8,5.5l6.9-2.5l0.5,0.7l-4.8,5.5l6.9-2.5l0.5,0.7l-8.6,3.1l-0.4-0.6l4.9-5.7l-7.1,2.5
	l-0.4-0.6L458.8,273.9z M465.3,283.3l0.5,0.7l-2.7,1.9c0.7,0.4,1.2,0.7,1.4,0.9c0.3,0.2,0.5,0.4,0.6,0.7c0.3,0.4,0.4,0.9,0.3,1.3
	c-0.1,0.5-0.4,0.9-1,1.3l-3.6,2.5l-0.5-0.7l3.7-2.6c0.3-0.2,0.5-0.4,0.5-0.7c0-0.3,0-0.5-0.2-0.8c-0.2-0.3-0.4-0.5-0.7-0.7
	s-0.7-0.5-1.2-0.7l-4,2.8l-0.5-0.7L465.3,283.3z M469.3,289.4l0.5,0.7l-0.8,0.6l-0.5-0.7L469.3,289.4z M467.2,290.8l0.5,0.7
	l-5.2,3.6l-0.5-0.7L467.2,290.8z M471.2,292.5l0.5,0.7l-1.9,1.3l0.9,1.3l-0.6,0.4l-0.9-1.3l-3.2,2.2c-0.3,0.2-0.4,0.4-0.5,0.6
	c-0.1,0.2,0,0.5,0.2,0.7c0.1,0.1,0.2,0.3,0.4,0.5l-0.6,0.4c-0.2-0.2-0.3-0.4-0.5-0.6c-0.3-0.5-0.5-0.9-0.4-1.3s0.3-0.7,0.8-1
	l3.4-2.3l-0.6-0.9l0.6-0.4l0.6,0.9L471.2,292.5z M473.7,295.6l0.5,0.7l-2.8,1.9c0.4,0.1,0.8,0.2,1.1,0.4c0.4,0.2,0.6,0.5,0.9,0.8
	c0.4,0.6,0.5,1.3,0.3,2c-0.2,0.8-0.7,1.4-1.5,2c-0.5,0.4-1.1,0.6-1.6,0.7s-1.1,0.1-1.5-0.2c-0.4-0.2-0.8-0.5-1.1-0.9
	c-0.2-0.3-0.3-0.6-0.4-1s-0.1-0.8,0-1.3l-0.7,0.5l-0.5-0.7L473.7,295.6z M468.1,300.5c0,0.6,0,1,0,1.3c0.1,0.3,0.2,0.6,0.4,0.9
	c0.3,0.4,0.7,0.7,1.3,0.7c0.6,0.1,1.2-0.1,1.9-0.6c0.7-0.5,1.1-1,1.2-1.5c0.1-0.5,0.1-1-0.3-1.5c-0.2-0.3-0.4-0.5-0.8-0.7
	c-0.3-0.2-0.7-0.3-1.1-0.4L468.1,300.5z M475.3,302.5l0.5,0.7l-3.1,4.5l5.3-1.3l0.5,0.7l-7,1.7c-0.7,0.2-1.1,0.3-1.4,0.3
	c-0.2,0-0.4,0-0.6-0.1c-0.2-0.1-0.4-0.2-0.6-0.4c-0.2-0.2-0.4-0.4-0.6-0.7c-0.1-0.2-0.3-0.4-0.4-0.7l0.8-0.3
	c0.1,0.2,0.2,0.4,0.3,0.5c0.3,0.4,0.5,0.6,0.8,0.7s0.7,0,1.3-0.1c0.1,0,0.2-0.1,0.3-0.1L475.3,302.5z"/>
<path id="text7478" d="M484.1,284.8c-0.6-0.8-0.8-1.8-0.5-2.7c0.3-1.1,1-2.1,2.2-2.9c0.7-0.5,1.5-0.8,2.3-1c0.8-0.2,1.5-0.1,2.1,0.2
	c0.6,0.3,1.1,0.7,1.5,1.3c0.3,0.5,0.5,1,0.6,1.5c0,0.5,0,1-0.2,1.5c-0.2,0.5-0.5,0.9-0.8,1.4c-0.4,0.4-0.8,0.8-1.3,1.2
	c-0.6,0.4-1.1,0.6-1.6,0.8c-0.5,0.1-1,0.2-1.4,0.2c-0.4,0-0.8,0-1.1-0.1c-0.4-0.1-0.8-0.3-1.1-0.5
	C484.5,285.3,484.2,285.1,484.1,284.8L484.1,284.8z M484.7,284.3c0.4,0.6,1.1,1,1.9,1.1c0.8,0.1,1.8-0.2,2.8-0.9
	c1.1-0.7,1.7-1.6,2-2.5c0.2-0.7,0.1-1.4-0.3-2c-0.4-0.6-1-0.9-1.9-1c-0.8-0.1-1.8,0.3-2.8,1c-1,0.7-1.7,1.5-1.9,2.3
	C484.2,283,484.3,283.7,484.7,284.3L484.7,284.3z M490.4,287.2c0.1-0.4,0.3-0.8,0.6-1c0.4-0.3,0.8-0.3,1.3-0.2
	c0.5,0.1,0.9,0.5,1.3,1c0.3,0.4,0.4,0.8,0.5,1.2c0.1,0.4,0.1,0.8,0,1.3l-0.8-0.2c0.1-0.4,0.1-0.7,0.1-1c0-0.3-0.2-0.6-0.3-0.8
	c-0.2-0.4-0.5-0.6-0.8-0.6c-0.3-0.1-0.5,0-0.7,0.1c-0.2,0.1-0.3,0.3-0.3,0.5c0,0.2,0,0.6,0.3,1.3c0.3,0.9,0.5,1.6,0.4,2.1
	c-0.1,0.5-0.3,0.8-0.7,1.1c-0.4,0.3-0.9,0.4-1.4,0.2s-1-0.5-1.4-1c-0.3-0.4-0.5-0.8-0.6-1.3c-0.1-0.5-0.1-1,0-1.6l0.8,0.3
	c-0.1,0.5-0.1,0.9-0.1,1.2c0.1,0.3,0.2,0.7,0.4,0.9c0.2,0.4,0.5,0.6,0.8,0.7c0.3,0.1,0.6,0,0.8-0.1c0.2-0.1,0.3-0.3,0.3-0.6
	c0.1-0.3-0.1-0.9-0.3-1.6c-0.2-0.5-0.3-0.9-0.3-1.2C490.3,287.6,490.3,287.4,490.4,287.2L490.4,287.2z M498.1,289.2l0.5,0.7
	l-2.7,1.9c0.7,0.4,1.2,0.7,1.4,0.9s0.5,0.4,0.6,0.7c0.3,0.4,0.4,0.9,0.3,1.3c-0.1,0.5-0.4,0.9-1,1.3l-3.6,2.5l-0.5-0.7l3.7-2.6
	c0.3-0.2,0.5-0.4,0.5-0.7c0-0.3,0-0.5-0.2-0.8c-0.2-0.3-0.4-0.5-0.7-0.7c-0.3-0.2-0.7-0.5-1.2-0.7l-4,2.8l-0.5-0.7L498.1,289.2z
	 M498.9,296.9c0.6,0.1,1.1,0.3,1.5,0.6s0.8,0.6,1,1c0.3,0.4,0.4,0.9,0.5,1.3c0,0.4-0.1,0.8-0.3,1.1c-0.2,0.2-0.4,0.5-0.8,0.7
	l-2.2,1.5c-0.4,0.3-0.8,0.6-1.1,1l-0.5-0.7c0.2-0.3,0.5-0.5,0.8-0.7c-0.5-0.1-1-0.3-1.4-0.5c-0.4-0.2-0.7-0.5-0.9-0.9
	c-0.3-0.4-0.4-0.9-0.3-1.3c0.1-0.5,0.3-0.8,0.7-1.1c0.3-0.2,0.7-0.3,1.1-0.3c0.4,0,0.9,0.2,1.3,0.5c0.3,0.2,1,0.8,2.1,1.8l0.3-0.2
	c0.3-0.2,0.4-0.4,0.5-0.8c0.1-0.3,0-0.6-0.2-0.9c-0.2-0.3-0.4-0.5-0.8-0.7c-0.3-0.2-0.8-0.4-1.4-0.5L498.9,296.9z M498.2,302.4
	l1.7-1.1c-0.7-0.7-1.2-1.1-1.5-1.3c-0.4-0.3-0.8-0.5-1.1-0.5c-0.3,0-0.6,0-0.9,0.2c-0.2,0.2-0.4,0.4-0.4,0.6s0,0.5,0.2,0.8
	c0.2,0.3,0.4,0.5,0.8,0.7C497.3,302,497.7,302.2,498.2,302.4L498.2,302.4z M503.3,301.5l0.5,0.7l-3,3.8l4.6-1.4l0.4,0.5l-3,3.9
	l4.7-1.4l0.5,0.7l-6.3,1.9l-0.3-0.5l3.1-3.9l-4.8,1.5l-0.3-0.5L503.3,301.5z M507.7,309.7c0.6,0.1,1.1,0.3,1.5,0.6
	c0.4,0.3,0.8,0.6,1,1c0.3,0.4,0.4,0.9,0.5,1.3c0,0.4-0.1,0.8-0.3,1.1c-0.2,0.2-0.4,0.5-0.8,0.7l-2.2,1.5c-0.4,0.3-0.8,0.6-1.1,1
	l-0.5-0.7c0.2-0.3,0.5-0.5,0.8-0.7c-0.5-0.1-1-0.3-1.4-0.5s-0.7-0.5-0.9-0.9c-0.3-0.4-0.4-0.9-0.3-1.3c0.1-0.5,0.3-0.8,0.7-1.1
	c0.3-0.2,0.7-0.3,1.1-0.3c0.4,0,0.9,0.2,1.3,0.5c0.3,0.2,1,0.8,2.1,1.8l0.3-0.2c0.3-0.2,0.4-0.4,0.5-0.8c0.1-0.3,0-0.6-0.2-0.9
	c-0.2-0.3-0.4-0.5-0.8-0.7c-0.3-0.2-0.8-0.4-1.4-0.5L507.7,309.7z M507,315.1l1.7-1.1c-0.7-0.7-1.2-1.1-1.5-1.3
	c-0.4-0.3-0.8-0.5-1.1-0.5c-0.3,0-0.6,0-0.9,0.2c-0.2,0.2-0.4,0.4-0.4,0.6s0,0.5,0.2,0.8c0.2,0.3,0.4,0.5,0.8,0.7
	C506.1,314.8,506.5,315,507,315.1L507,315.1z"/>
<path id="text7482" d="M312.3,182.3h0.9v8.1h1.4v0.8h-3.9v-0.8h1.6v-7.1c-0.8,0.2-1.3,0.3-1.6,0.3v-0.7
	C311.3,182.8,311.9,182.6,312.3,182.3L312.3,182.3z"/>
<path id="text7486" d="M307.5,211.4c0.2-0.5,0.4-0.9,0.6-1.2c0.3-0.4,0.7-0.8,1.2-1c0.4-0.2,0.9-0.3,1.4-0.3c0.7,0,1.4,0.3,1.9,0.8
	c0.5,0.5,0.8,1.1,0.8,1.9c0,0.4-0.1,0.8-0.2,1.1s-0.4,0.6-0.7,0.9c-0.3,0.3-0.9,0.7-1.7,1.3s-1.3,1-1.6,1.4s-0.5,0.7-0.7,1h5v0.8
	h-5.9v-0.7c0-0.2,0.1-0.4,0.3-0.7c0.2-0.4,0.6-0.8,1-1.2s1-0.9,1.7-1.4c0.5-0.4,0.9-0.7,1.1-0.9c0.3-0.3,0.5-0.5,0.6-0.8
	s0.2-0.5,0.2-0.8c0-0.5-0.2-0.9-0.5-1.3c-0.3-0.3-0.7-0.5-1.2-0.5c-0.5,0-0.9,0.2-1.3,0.5c-0.4,0.3-0.7,0.8-1,1.4L307.5,211.4z"/>
<path id="text7490" d="M302,250.8c0.4-0.5,0.8-0.8,1.3-1c0.5-0.2,1-0.3,1.5-0.3c0.8,0,1.5,0.2,2,0.7c0.5,0.5,0.8,1,0.8,1.6
	c0,0.4-0.1,0.8-0.4,1.1c-0.2,0.4-0.6,0.7-1.2,0.9c0.5,0.2,0.9,0.4,1.2,0.7c0.4,0.4,0.6,0.9,0.6,1.5c0,0.4-0.1,0.9-0.4,1.3
	s-0.6,0.8-1.1,1s-1,0.4-1.6,0.4c-0.5,0-0.9-0.1-1.4-0.3s-0.8-0.4-1.1-0.7c-0.2-0.2-0.4-0.5-0.6-0.8l0.7-0.5c0.4,0.5,0.8,0.8,1.2,1.1
	s0.8,0.3,1.2,0.3c0.6,0,1.1-0.2,1.5-0.5s0.6-0.8,0.6-1.2c0-0.3-0.1-0.6-0.3-0.9s-0.6-0.5-1-0.7s-1-0.3-1.5-0.3c-0.1,0-0.3,0-0.5,0
	l0.1-0.9h0.6c0.9,0,1.5-0.2,1.9-0.5s0.6-0.7,0.6-1.1c0-0.4-0.2-0.7-0.5-1c-0.3-0.3-0.8-0.5-1.3-0.5c-0.7,0-1.4,0.3-2.1,1L302,250.8z
	"/>
</svg>
