<?xml version="1.0" encoding="utf-8"?>
<!-- Generator: Adobe Illustrator 21.1.0, SVG Export Plug-In . SVG Version: 6.00 Build 0)  -->
<svg version="1.1" id="Layer_1" xmlns="http://www.w3.org/2000/svg" xmlns:xlink="http://www.w3.org/1999/xlink" x="0px" y="0px"
	 viewBox="0 0 24 24" style="enable-background:new 0 0 24 24;" xml:space="preserve">
<style type="text/css">
	.st0{clip-path:url(#SVGID_2_);fill:#F46767;}
</style>
<g>
	<defs>
		<rect id="SVGID_1_" width="24" height="24"/>
	</defs>
	<clipPath id="SVGID_2_">
		<use xlink:href="#SVGID_1_"  style="overflow:visible;"/>
	</clipPath>
	<path class="st0" d="M20,4H4C2.9,4,2,4.9,2,6l0,12c0,1.1,0.9,2,2,2h16c1.1,0,2-0.9,2-2V6C22,4.9,21.1,4,20,4z M8.5,15H7.3l-2.6-3.5
		V15H3.5V9h1.2l2.5,3.5V9h1.2V15z M13.5,10.3H11v1.1h2.5v1.3H11v1.1h2.5V15h-4V9h4V10.3z M20.5,14c0,0.6-0.5,1-1,1h-4
		c-0.6,0-1-0.4-1-1V9h1.2v4.5h1.1V10h1.2v3.5h1.1V9h1.2V14z"/>
</g>
</svg>
