<?xml version="1.0" encoding="utf-8"?>
<!-- Generator: Adobe Illustrator 21.1.0, SVG Export Plug-In . SVG Version: 6.00 Build 0)  -->
<svg version="1.1" id="Layer_1" xmlns="http://www.w3.org/2000/svg" xmlns:xlink="http://www.w3.org/1999/xlink" x="0px" y="0px"
	 viewBox="0 0 512 512" style="enable-background:new 0 0 512 512;" xml:space="preserve">
<style type="text/css">
	.st0{fill:#6D2525;}
	.st1{fill:#E22D2D;}
	.st2{fill:none;}
	.st3{fill:#F7F5F5;}
	.st4{font-family:'MyriadPro-Bold';}
	.st5{font-size:123px;}
</style>
<g id="Layer_11">
	<g>
		<path class="st0" d="M422.5,203.7c-0.2,0.5-0.5,1-0.8,1.4l-187,274.1c-5.5,8-16.2,10.5-24.4,5.2l-152-98
			c-8.2-5.2-10.7-16.4-5.2-24.4l187-274.1c0.3-0.4,0.6-0.9,0.9-1.3c1.7-3.4,4.9-6,8.9-6.8l131.3-28.3c7-1.5,14,3,15.6,10l28.3,131.3
			C426,196.7,424.9,200.7,422.5,203.7L422.5,203.7z M353.5,111.6c7.7,5,17.9,2.7,22.9-5s2.8-18-5-22.9c-7.7-5-18-2.8-22.9,5
			C343.6,96.3,345.8,106.6,353.5,111.6L353.5,111.6z"/>
		<path class="st1" d="M408.4,206c-0.3,0.4-0.6,0.9-0.9,1.3L200.8,467.4c-6,7.5-17.2,8.9-24.8,2.9L33.8,358.6
			c-7.6-6-9.1-17.2-2.9-24.8l206.6-260c0.3-0.4,0.6-0.8,1-1.1c2.1-3.3,5.5-5.6,9.6-6.1l133.4-16.1c7.1-0.8,13.7,4.3,14.5,11.5
			l16,133.3C412.4,199.4,411,203.2,408.4,206L408.4,206z M348.3,107.7c7.2,5.7,17.6,4.4,23.2-2.8c5.7-7.2,4.4-17.6-2.8-23.2
			c-7.2-5.7-17.6-4.4-23.2,2.8C339.8,91.7,341.1,102.1,348.3,107.7L348.3,107.7z"/>
		
			<rect x="68.8" y="203.6" transform="matrix(0.6135 -0.7897 0.7897 0.6135 -114.2262 291.441)" class="st2" width="343.7" height="117.6"/>
		<text id="TERM" transform="matrix(0.6135 -0.7897 0.7897 0.6135 157.6578 415.6294)" class="st3 st4 st5">TERM</text>
	</g>
	
		<rect x="92.4" y="237.3" transform="matrix(0.6135 -0.7897 0.7897 0.6135 -119.0966 289.3021)" class="st2" width="287.2" height="58"/>
</g>
<g id="Layer_1_1_">
</g>
</svg>
