<?xml version="1.0" encoding="utf-8"?>
<!-- Generator: Adobe Illustrator 21.1.0, SVG Export Plug-In . SVG Version: 6.00 Build 0)  -->
<svg version="1.1" id="Capa_1" xmlns="http://www.w3.org/2000/svg" xmlns:xlink="http://www.w3.org/1999/xlink" x="0px" y="0px"
	 viewBox="0 0 456.7 456.7" style="enable-background:new 0 0 456.7 456.7;" xml:space="preserve">
<style type="text/css">
	.st0{fill:#BF1E2D;}
</style>
<g>
	<g id="Layer_8_65_">
		<path class="st0" d="M161.7,221.2c0-6,1.9-9.9,5.8-11.7c3.9-1.8,9.2-2.6,16.2-2.6h87.5c8.4,0,14.5,1.3,18.3,3.9
			c3.8,2.6,5.6,7,5.6,13c0,3.7-2.2,8.5-6.6,14.6c-4.4,6-9.5,12.7-15.1,20c-5.7,7.3-11.5,16.4-17.5,27.2c-6,10.9-11.5,24.1-16.5,39.8
			c-2.1,6.9-3.6,12.6-4.5,17.2c-0.9,4.5-1.8,10.5-2.9,17.7c-1.1,7.3-2,12.8-2.8,16.7c-1.8,8.9-4.4,15.1-7.8,18.6
			c-3.4,3.5-7.9,5.2-13.5,5.2c-5.3,0-9.6-1.9-12.9-5.6c-3.2-3.7-4.9-9.2-4.9-16.5c0-5.6,1.2-13.2,3.5-22.9
			c2.4-9.6,6.2-21.2,11.6-34.6c5.3-13.4,12-27.2,20-41.4c8-14.1,17.5-28.2,28.6-42.2h-70.3c-7.4,0-12.8-1.3-16.5-4
			C163.5,231.1,161.7,226.9,161.7,221.2z M426.2,66.2v100.1c0,0.3-0.1,0.6-0.1,0.9v260.1c0,16.2-13.2,29.4-29.4,29.4H60
			c-16.2,0-29.5-13.2-29.5-29.4V118.7c0-0.5,0.1-0.9,0.1-1.3V66.2c0-6.2,8-11.3,18-11.3h32.1V33.8C80.8,15.2,95.9,0,114.6,0
			c18.7,0,33.8,15.2,33.8,33.8v21.1h53V33.8c0-18.7,15.2-33.8,33.8-33.8c18.7,0,33.8,15.2,33.8,33.8v21.1h48.3V33.8
			c0-18.7,15.2-33.8,33.8-33.8c18.7,0,33.8,15.2,33.8,33.8v21.1h23.1C418.1,54.9,426.2,60,426.2,66.2z M334.2,54.9h34V33.8
			c0-9.4-7.6-17-17-17c-9.4,0-17,7.6-17,17V54.9z M218.3,54.9h34V33.8c0-9.4-7.6-17-17-17c-9.4,0-17,7.6-17,17V54.9z M97.6,54.9h34
			V33.8c0-9.4-7.6-17-17-17c-9.4,0-17,7.6-17,17V54.9z M400.8,177.6h-345v249.6c0,2.3,1.9,4.2,4.2,4.2h336.6c2.3,0,4.2-1.9,4.2-4.2
			L400.8,177.6L400.8,177.6z"/>
	</g>
</g>
</svg>
