<?xml version="1.0" encoding="utf-8"?>
<!-- Generator: Adobe Illustrator 24.0.3, SVG Export Plug-In . SVG Version: 6.00 Build 0)  -->
<svg version="1.1" id="Layer_1" xmlns="http://www.w3.org/2000/svg" xmlns:xlink="http://www.w3.org/1999/xlink" x="0px" y="0px"
	 viewBox="0 0 48 48" style="enable-background:new 0 0 48 48;" xml:space="preserve">
<style type="text/css">
	.st0{fill:none;}
	.st1{fill:#BF1E2D;}
</style>
<path class="st0" d="M0,0h48v48H0V0z"/>
<path class="st1" d="M24,20.7c-1.8,0-3.3,1.5-3.3,3.3s1.5,3.3,3.3,3.3c1.8,0,3.3-1.5,3.3-3.3S25.8,20.7,24,20.7z M24-6
	C7.4-6-6,7.4-6,24S7.4,54,24,54s30-13.4,30-30S40.6-6,24-6z M30.6,30.6L6,42l11.4-24.6L42,6L30.6,30.6z"/>
</svg>
