<?xml version="1.0" encoding="utf-8"?>
<!-- Generator: Adobe Illustrator 21.1.0, SVG Export Plug-In . SVG Version: 6.00 Build 0)  -->
<svg version="1.1" id="Layer_1" xmlns="http://www.w3.org/2000/svg" xmlns:xlink="http://www.w3.org/1999/xlink" x="0px" y="0px"
	 viewBox="0 0 512 512" style="enable-background:new 0 0 512 512;" xml:space="preserve">
<style type="text/css">
	.st0{fill:#3A3737;}
	.st1{fill:#A8A7A7;}
	.st2{fill:none;}
	.st3{fill:#F7F5F5;}
	.st4{font-family:'MyriadPro-Bold';}
	.st5{font-size:124.738px;}
</style>
<g id="Layer_11">
	<g>
		<path class="st0" d="M418.4,188.6c-0.2,0.5-0.4,1-0.6,1.4L262.8,483.9c-4.6,8.6-15,12.2-23.8,7.8L75.3,409.2
			c-8.8-4.4-12.7-15.3-8.1-23.9L222.1,91.5c0.3-0.4,0.5-0.9,0.7-1.4c1.3-3.5,4.2-6.6,8.1-7.8l128.1-41.9c6.9-2.2,14.4,1.6,16.8,8.5
			l43.8,128.6C421,181.2,420.3,185.4,418.4,188.6L418.4,188.6z M338.3,103.5c8.3,4.2,18.2,0.8,22.3-7.4c4.1-8.2,0.7-18.3-7.7-22.4
			c-8.3-4.2-18.3-0.9-22.3,7.4C326.6,89.2,330.1,99.3,338.3,103.5L338.3,103.5z"/>
		<path class="st1" d="M404.4,192.4c-0.3,0.4-0.5,0.9-0.7,1.4L227.4,475.6c-5.2,8.2-16.2,10.7-24.5,5.5L47.4,383.9
			c-8.3-5.2-11.1-16.3-5.9-24.5L217.8,77.6c0.3-0.4,0.5-0.9,0.9-1.2c1.7-3.5,4.8-6.2,8.8-7.1l131.7-29.9c7.1-1.5,14.3,2.9,15.9,10
			l31.7,131.9C407.7,185.3,406.7,189.3,404.4,192.4L404.4,192.4z M332.7,100.2c7.9,4.9,18.1,2.6,22.9-5.2c4.8-7.8,2.4-18-5.5-23
			c-7.9-4.9-18.1-2.6-22.9,5.2C322.3,85,324.8,95.3,332.7,100.2L332.7,100.2z"/>
		<polygon class="st2" points="256.4,131.3 357.9,194 234.5,396.2 133,333.5 		"/>
		<text id="TERM" transform="matrix(0.5139 -0.8424 0.8509 0.5253 208.3566 380.0072)" class="st3 st4 st5">EXP</text>
	</g>
	<polygon class="st2" points="289.4,131.8 339.5,162.7 189.8,408 139.8,377.1 	"/>
</g>
<g id="Layer_1_1_">
</g>
</svg>
