<?xml version="1.0" encoding="utf-8"?>
<!-- Generator: Adobe Illustrator 24.0.3, SVG Export Plug-In . SVG Version: 6.00 Build 0)  -->
<svg version="1.1" id="Layer_1" xmlns="http://www.w3.org/2000/svg" xmlns:xlink="http://www.w3.org/1999/xlink" x="0px" y="0px"
	 viewBox="0 0 24 24" style="enable-background:new 0 0 24 24;" xml:space="preserve">
<style type="text/css">
	.st0{fill:none;}
	.st1{fill:#BF1E2D;}
</style>
<title>favoutite</title>
<path class="st0" d="M0,0h24v24H0V0z"/>
<path class="st1" d="M12,23.2l-1.7-1.6C4.1,16,0,12.3,0,7.8c0-3.6,2.9-6.6,6.5-6.6c0,0,0.1,0,0.1,0c2.1,0,4,0.9,5.4,2.5
	c1.4-1.6,3.3-2.5,5.4-2.5C21,1.1,24,4,24,7.6c0,0,0,0.1,0,0.1c0,4.5-4.1,8.2-10.3,13.8L12,23.2z"/>
</svg>
