<?xml version="1.0" encoding="utf-8"?>
<!-- Generator: Adobe Illustrator 21.1.0, SVG Export Plug-In . SVG Version: 6.00 Build 0)  -->
<svg version="1.1" id="Layer_1" xmlns="http://www.w3.org/2000/svg" xmlns:xlink="http://www.w3.org/1999/xlink" x="0px" y="0px"
	 viewBox="0 0 24 24" style="enable-background:new 0 0 24 24;" xml:space="preserve">
<style type="text/css">
	.st0{fill:none;}
	.st1{fill:#BF1E2D;}
</style>
<path class="st0" d="M0,0h24v24H0V0z"/>
<path class="st1" d="M16.5,15.5v-1.8L14,16.2l2.5,2.5V17H22v-1.5H16.5z M19.5,19.8H14v1.5h5.5V23l2.5-2.5L19.5,18V19.8z M9.5,5.5
	c1.1,0,2-0.9,2-2s-0.9-2-2-2s-2,0.9-2,2S8.4,5.5,9.5,5.5z M5.8,8.9L3,23h2.1l1.8-8L9,17v6h2v-7.6l-2.1-2.1l0.6-3
	C10.9,12,12.8,13,15,13v-2c-1.9,0-3.4-1-4.4-2.4L9.7,7C9.4,6.3,8.7,6,8,6C7.8,6,7.5,6.1,7.2,6.2L2,8.3V13h2V9.6L5.8,8.9"/>
</svg>
