<?xml version="1.0" encoding="utf-8"?>
<!-- Generator: Adobe Illustrator 24.0.3, SVG Export Plug-In . SVG Version: 6.00 Build 0)  -->
<svg version="1.1" id="Layer_1" xmlns="http://www.w3.org/2000/svg" xmlns:xlink="http://www.w3.org/1999/xlink" x="0px" y="0px"
	 viewBox="0 0 512 512" style="enable-background:new 0 0 512 512;" xml:space="preserve">
<style type="text/css">
	.st0{fill:#BF1E2D;}
</style>
<g>
	<path class="st0" d="M25.3,69.5c0-13.5,0.1-27.1,0-40.6c-0.1-3.5,0.9-4.3,4.3-4.2c38.9,0.3,77,5.9,114.6,16.3
		c47.5,13,91.3,33.6,132,61.1c35.7,24.2,67.5,52.8,95,86.1c37,44.5,64.9,94.2,83.7,149.2c16.3,48.1,24.3,97.5,25.2,148.2
		c0.1,2.7-1,3.5-3.5,3.5c-27.1-0.1-54.1-0.1-81.1,0c-3.2,0-3.3-1.7-3.3-4c0-19-1.7-38-4.8-56.9c-5.5-33.4-15.1-65.7-29.1-96.5
		c-15-32.8-34.1-63.1-57.7-90.3c-24.3-28.1-52.1-52.3-83.8-72c-28.2-17.7-58.2-31.4-90.3-40.8c-31.4-9.2-63.4-14.3-96.2-14.4
		c-4,0-5.5-0.9-5.3-5.3C25.6,95.5,25.3,82.4,25.3,69.5z"/>
	<path class="st0" d="M25.3,226.7c0-13.4,0.1-26.8-0.1-40c-0.1-3.5,1-4.3,4.5-4.3c35.6,0.9,70.1,7.3,103.2,20.4
		c41.6,16.4,77.8,41,108.4,73.4c29.1,30.7,50.7,66,65.2,105.6c12.2,33.4,18.3,67.7,18.9,103.1c0.1,2.9-0.9,3.6-3.6,3.6
		c-26.8-0.1-53.4-0.1-80.2,0c-3.3,0-4.2-1.2-4.2-4.2c-0.3-37.6-9.8-72.7-28.5-105.4c-17.6-30.7-41.3-55.7-71.3-74.9
		c-26.2-16.8-54.9-26.9-85.7-31.2c-7.5-1.2-15.3-1.7-22.9-1.3c-3.2,0.1-3.9-1-3.7-4C25.5,253.9,25.3,240.4,25.3,226.7z"/>
	<path class="st0" d="M86.1,365.2c33.4,0,60.3,27.4,60.3,61.3c0,34.1-27.1,61.6-60.5,61.6c-33.7,0-60.5-27.5-60.5-61.8
		C25.3,392.2,52.1,365.2,86.1,365.2z"/>
</g>
</svg>
