<?xml version="1.0" encoding="utf-8"?>
<!-- Generator: Adobe Illustrator 21.1.0, SVG Export Plug-In . SVG Version: 6.00 Build 0)  -->
<svg version="1.1" id="Layer_1" xmlns="http://www.w3.org/2000/svg" xmlns:xlink="http://www.w3.org/1999/xlink" x="0px" y="0px"
	 viewBox="0 0 512 512" style="enable-background:new 0 0 512 512;" xml:space="preserve">
<style type="text/css">
	.st0{fill:#BF1E2D;}
</style>
<g>
	<path class="st0" d="M94.8,126.7c0-9.4,0.1-18.8,0-28.2c-0.1-2.4,0.6-3,3-2.9c27,0.2,53.5,4.1,79.6,11.3c33,9,63.4,23.3,91.7,42.4
		c24.8,16.8,46.9,36.7,66,59.8c25.7,30.9,45.1,65.4,58.1,103.6c11.3,33.4,16.9,67.7,17.5,102.9c0.1,1.9-0.7,2.4-2.4,2.4
		c-18.8-0.1-37.6-0.1-56.3,0c-2.2,0-2.3-1.2-2.3-2.8c0-13.2-1.2-26.4-3.3-39.5c-3.8-23.2-10.5-45.6-20.2-67
		c-10.4-22.8-23.7-43.8-40.1-62.7c-16.9-19.5-36.2-36.3-58.2-50c-19.6-12.3-40.4-21.8-62.7-28.3c-21.8-6.4-44-9.9-66.8-10
		c-2.8,0-3.8-0.6-3.7-3.7C95,144.8,94.8,135.7,94.8,126.7z"/>
	<path class="st0" d="M94.8,235.9c0-9.3,0.1-18.6-0.1-27.8c-0.1-2.4,0.7-3,3.1-3c24.7,0.6,48.7,5.1,71.7,14.2
		c28.9,11.4,54,28.5,75.3,51c20.2,21.3,35.2,45.8,45.3,73.3c8.5,23.2,12.7,47,13.1,71.6c0.1,2-0.6,2.5-2.5,2.5
		c-18.6-0.1-37.1-0.1-55.7,0c-2.3,0-2.9-0.8-2.9-2.9c-0.2-26.1-6.8-50.5-19.8-73.2c-12.2-21.3-28.7-38.7-49.5-52
		c-18.2-11.7-38.1-18.7-59.5-21.7c-5.2-0.8-10.6-1.2-15.9-0.9c-2.2,0.1-2.7-0.7-2.6-2.8C94.9,254.8,94.8,245.4,94.8,235.9z"/>
	<path class="st0" d="M137,332.1c23.2,0,41.9,19,41.9,42.6c0,23.7-18.8,42.8-42,42.8c-23.4,0-42-19.1-42-42.9
		C94.8,350.8,113.4,332.1,137,332.1z"/>
</g>
</svg>
