<?xml version="1.0" encoding="utf-8"?>
<!-- Generator: Adobe Illustrator 24.0.3, SVG Export Plug-In . SVG Version: 6.00 Build 0)  -->
<svg version="1.1" id="Layer_1" xmlns="http://www.w3.org/2000/svg" xmlns:xlink="http://www.w3.org/1999/xlink" x="0px" y="0px"
	 viewBox="0 0 18 18" style="enable-background:new 0 0 18 18;" xml:space="preserve">
<style type="text/css">
	.st0{fill:none;}
	.st1{fill:#BF1E2D;}
</style>
<path class="st0" d="M-4-4H22V22H-4V-4z"/>
<path class="st1" d="M8.5,5.8C7,5.8,5.8,7,5.8,8.5s1.2,2.7,2.7,2.7s2.7-1.2,2.7-2.7S10,5.8,8.5,5.8z M17.6,0.4H0.4
	c-1.2,0-2.2,1-2.2,2.2v13c0,1.2,1,2.2,2.2,2.2h17.3c1.2,0,2.2-1,2.2-2.2v-13C19.8,1.3,18.8,0.4,17.6,0.4z M14.2,15.7L11,12.6
	c-0.7,0.5-1.6,0.8-2.6,0.8c-2.7,0-4.8-2.2-4.8-4.9s2.2-4.9,4.9-4.9s4.9,2.2,4.9,4.9c0,1-0.3,1.8-0.8,2.6l3.1,3.1
	C15.7,14.2,14.2,15.7,14.2,15.7z"/>
</svg>
