<?xml version="1.0" ?><!DOCTYPE svg  PUBLIC '-//W3C//DTD SVG 1.1//EN'  'http://www.w3.org/Graphics/SVG/1.1/DTD/svg11.dtd'><svg height="512px" style="enable-background:new 0 0 512 512;" version="1.1" viewBox="0 0 512 512" width="512px" xml:space="preserve" xmlns="http://www.w3.org/2000/svg" xmlns:xlink="http://www.w3.org/1999/xlink"><g id="Layer_11"><g><path d="M409.213,333.712c-0.511,0.17-1.021,0.34-1.531,0.425    L82.548,400.553c-9.496,1.928-18.963-3.771-21.146-13.209L20.639,211.17c-2.183-9.439,3.713-19.219,13.209-21.146l325.134-66.416    c0.511-0.113,1.049-0.198,1.56-0.284c3.6-1.247,7.738-0.907,11.196,1.248l113.925,71.121c6.123,3.827,7.993,11.962,4.167,18.057    l-71.121,113.924C416.555,331.132,412.982,333.258,409.213,333.712L409.213,333.712z M423.896,219.504    c2.069,8.901,10.941,14.428,19.842,12.388c8.901-2.069,14.457-10.942,12.388-19.843s-10.941-14.457-19.843-12.387    C427.383,201.702,421.855,210.603,423.896,219.504L423.896,219.504z" style="fill-rule:evenodd;clip-rule:evenodd;fill:#D8555A;"/><path d="M397.449,325.463c-0.511,0.113-1.049,0.227-1.56,0.283    L66.391,368.323c-9.609,1.219-18.539-5.528-19.814-15.138L22.454,173.979c-1.304-9.609,5.499-18.595,15.137-19.842l329.471-42.548    c0.538-0.057,1.049-0.113,1.559-0.142c3.714-0.879,7.796-0.17,11.056,2.296l106.781,81.439c5.726,4.394,6.831,12.643,2.466,18.369    l-81.439,106.781C404.989,323.592,401.247,325.35,397.449,325.463L397.449,325.463z M422.733,213.126    c1.22,9.042,9.554,15.392,18.596,14.173c9.071-1.219,15.421-9.553,14.201-18.595c-1.219-9.042-9.553-15.392-18.595-14.173    C427.864,195.75,421.515,204.055,422.733,213.126L422.733,213.126z" style="fill-rule:evenodd;clip-rule:evenodd;fill:#EF717B;"/><path d="M143.436,265.028c-0.396-2.977-1.729-5.159-3.968-6.548c-2.211-1.36-6.038-2.608-11.452-3.742    c-11.282-1.928-19.786-4.507-25.54-7.71c-5.754-3.175-9.127-8.476-10.12-15.846c-0.964-7.171,1.36-13.379,6.973-18.652    s13.181-8.561,22.762-9.836c9.468-1.304,17.603,0.085,24.293,4.167c6.718,4.054,10.517,9.921,11.367,17.632l-0.057,0.368    l-19.304,2.608c-0.454-3.373-1.984-5.981-4.592-7.795c-2.608-1.814-5.953-2.438-10.035-1.899    c-3.997,0.567-7.001,1.871-9.042,3.912c-2.041,2.069-2.863,4.394-2.523,7.001c0.34,2.466,1.758,4.337,4.252,5.528    c2.495,1.19,7.059,2.495,13.691,3.912c10.091,1.587,17.915,4.139,23.414,7.71c5.471,3.572,8.731,9.042,9.751,16.44    c1.021,7.541-1.134,13.805-6.406,18.851s-12.756,8.221-22.451,9.553c-9.723,1.305-18.482,0-26.249-3.911    c-7.739-3.912-12.132-10.488-13.181-19.673l0.057-0.368l19.361-2.637c0.68,4.904,2.466,8.249,5.414,10.007    c2.976,1.729,7.143,2.239,12.558,1.502c4.11-0.538,7.058-1.786,8.872-3.713C143.068,269.989,143.805,267.722,143.436,265.028    L143.436,265.028z M243.131,238.95c1.417,10.517-0.737,19.644-6.492,27.411c-5.754,7.739-14.003,12.331-24.803,13.805    c-10.857,1.475-20.126-0.736-27.808-6.661c-7.653-5.953-12.217-14.145-13.635-24.69l-2.098-15.42    c-1.417-10.488,0.766-19.616,6.548-27.411c5.811-7.738,14.116-12.359,24.945-13.833c10.715-1.474,19.956,0.766,27.609,6.718    s12.217,14.145,13.635,24.662L243.131,238.95z M221.219,226.109c-0.85-6.123-2.976-10.914-6.378-14.457    c-3.401-3.515-7.738-4.932-12.982-4.224c-5.386,0.737-9.213,3.231-11.537,7.512c-2.324,4.281-3.062,9.496-2.211,15.676    l2.098,15.477c0.85,6.208,2.948,11.056,6.378,14.57c3.401,3.543,7.795,4.933,13.181,4.195c5.187-0.681,8.986-3.203,11.31-7.512    c2.324-4.309,3.09-9.524,2.239-15.732L221.219,226.109z M277.288,254.483l36.879-5.017l2.069,15.307l-56.807,7.71l-11.622-85.635    l19.927-2.693L277.288,254.483z M324.655,263.64l-11.622-85.635l30.926-4.195c10.092-1.389,18.964,0.765,26.646,6.406    c7.653,5.641,12.189,13.606,13.578,23.868l2.098,15.42c1.417,10.318-0.851,19.219-6.746,26.674    c-5.896,7.484-13.861,11.877-23.953,13.267L324.655,263.64z M335.03,190.59l7.483,55.049l9.638-1.332    c5.301-0.708,9.185-3.062,11.679-7.115c2.466-4.025,3.316-9.015,2.494-14.967l-2.098-15.534    c-0.794-5.924-2.92-10.488-6.378-13.663c-3.486-3.231-7.88-4.479-13.152-3.742L335.03,190.59z" style="fill:#FFFFFF;"/></g></g><g id="Layer_1"/></svg>