<?xml version="1.0" encoding="utf-8"?>
<!-- Generator: Adobe Illustrator 21.1.0, SVG Export Plug-In . SVG Version: 6.00 Build 0)  -->
<svg version="1.1" id="Layer_1" xmlns="http://www.w3.org/2000/svg" xmlns:xlink="http://www.w3.org/1999/xlink" x="0px" y="0px"
	 viewBox="0 0 512 512" style="enable-background:new 0 0 512 512;" xml:space="preserve">
<style type="text/css">
	.st0{fill:#770825;}
	.st1{fill:#A80424;}
	.st2{fill:#FFFFFF;}
</style>
<g id="Layer_11">
	<g>
		<path class="st0" d="M439.8,249.7c-0.4,0.3-0.9,0.6-1.4,0.8l-295,152c-8.6,4.4-19.2,1.5-23.9-7L32.6,236.9
			c-4.7-8.5-1.6-19.5,7-23.9l295-152c0.5-0.2,0.9-0.5,1.4-0.7c3.1-2.1,7.2-3,11.1-1.8L476,96.1c6.9,2,10.9,9.3,8.9,16.2l-37.6,128.9
			C446.1,245.2,443.2,248.2,439.8,249.7L439.8,249.7z M422.9,135.8c4.4,8,14.5,10.9,22.5,6.5c8-4.4,11-14.5,6.5-22.5
			c-4.4-8-14.5-11-22.5-6.5C421.5,117.7,418.5,127.8,422.9,135.8L422.9,135.8z"/>
		<path class="st1" d="M426.2,244.9c-0.5,0.2-0.9,0.5-1.4,0.7L119.2,375.9c-8.9,3.7-19.4-0.3-23.2-9.2l-71.8-166
			c-3.8-8.9,0.2-19.4,9.2-23.2L339,47.3c0.5-0.2,0.9-0.4,1.4-0.5c3.4-1.9,7.5-2.3,11.3-0.8l124.9,49.4c6.7,2.7,10,10.3,7.3,17
			l-49.4,124.8C432.9,241.1,429.8,243.7,426.2,244.9L426.2,244.9z M420.1,130c3.6,8.4,13.3,12.3,21.7,8.6
			c8.4-3.6,12.3-13.3,8.6-21.7s-13.3-12.3-21.7-8.6C420.3,111.8,416.5,121.6,420.1,130L420.1,130z"/>
		<path class="st2" d="M165.3,255.5c-1.2-2.8-3.1-4.5-5.6-5.2c-2.5-0.7-6.6-0.9-12-0.5c-11.4,1.2-20.3,1-26.7-0.5
			c-6.4-1.5-11.1-5.7-14-12.5c-2.8-6.6-2.3-13.2,1.7-19.9c3.9-6.6,10.4-11.8,19.2-15.6c8.8-3.8,17-4.7,24.5-2.6s12.8,6.7,15.7,13.9
			l0.1,0.4l-17.8,7.7c-1.3-3.1-3.5-5.2-6.5-6.2c-3-1-6.4-0.7-10.2,0.9c-3.7,1.7-6.2,3.7-7.6,6.2s-1.5,5-0.6,7.4
			c1,2.2,2.9,3.7,5.6,4.2c2.8,0.5,7.5,0.5,14.3,0.1c10.2-1.2,18.4-0.9,24.6,1.1c6.3,2,10.9,6.4,13.8,13.2c3,7,2.6,13.5-1,19.9
			c-3.7,6.3-10,11.4-19,15.3c-9,3.9-17.8,5-26.3,3.4c-8.5-1.7-14.5-6.8-18-15.4l-0.1-0.4l17.9-7.7c2,4.6,4.6,7.3,7.9,8.2
			c3.4,0.9,7.5,0.2,12.5-2c3.8-1.7,6.3-3.7,7.6-6C166.2,260.4,166.4,258,165.3,255.5L165.3,255.5z M254.1,203.4
			c4.2,9.7,4.6,19.2,1.2,28.1c-3.4,9-10.1,15.6-20.1,20c-10.1,4.3-19.5,4.7-28.6,1.1s-15.6-10.3-19.8-20l-6.2-14.3
			c-4.2-9.7-4.6-19.1-1.1-28.1c3.5-9,10.2-15.7,20.3-20.1c9.9-4.3,19.4-4.7,28.4-1c9,3.6,15.6,10.3,19.8,20L254.1,203.4z M229.6,197
			c-2.5-5.7-5.8-9.7-10-12.2c-4.2-2.4-8.8-2.6-13.6-0.5c-4.9,2.1-8,5.6-9,10.3c-1.1,4.8-0.4,9.9,2.1,15.7l6.2,14.3
			c2.5,5.8,5.8,9.9,10.1,12.3c4.3,2.5,8.8,2.6,13.8,0.5c4.8-2.1,7.8-5.5,8.8-10.3c1.1-4.8,0.4-10-2.1-15.7L229.6,197z M291.3,209.2
			l34.2-14.8l6.2,14.2l-52.6,22.8l-34.4-79.3l18.5-8L291.3,209.2z M339.4,205.1L305,125.8l28.7-12.4c9.3-4.1,18.5-4.4,27.3-1
			s15.4,9.7,19.5,19.3l6.2,14.3c4.2,9.5,4.4,18.7,0.8,27.5s-10.1,15.2-19.4,19.3L339.4,205.1z M329.6,131.9l22.2,51l9-3.9
			c4.9-2.1,8-5.4,9.3-10c1.3-4.5,0.7-9.6-1.7-15.1l-6.2-14.4c-2.4-5.5-5.7-9.3-9.9-11.4c-4.3-2.1-8.8-2.2-13.6,0L329.6,131.9z"/>
	</g>
	
		<text transform="matrix(0.2201 0.9755 -0.9755 0.2201 588.3729 456.7007)" style="font-family:'MyriadPro-Regular'; font-size:12px;">Lorem ipsum</text>
</g>
<g id="Layer_1_1_">
</g>
</svg>
